<svg width="132" height="44" viewBox="0 0 132 44" fill="none" xmlns="http://www.w3.org/2000/svg">
    <path d="M18.917 2.36c5.307 0 9.36 1.373 12.16 4.12 2.827 2.72 4.24 6.533 4.24 11.44 0 3.6-.666 6.693-2 9.28-1.466 1.92-2.92 3.84-4.36 5.76l1.04 1.92c.96 1.467 2.2 2.747 3.72 3.84 1.547 1.093 3.4 1.64 5.56 1.64 1.387 0 2.414-.187 3.08-.56.667-.373 1.4-1.093 2.2-2.16 0 1.093-.706 2.04-2.12 2.84-1.413.827-3.146 1.24-5.2 1.24-2.773 0-4.986-.693-6.64-2.08-1.626-1.36-3.173-3.133-4.64-5.32-.746.373-1.813.68-3.2.92-1.36.267-2.746.4-4.16.4-5.6 0-9.746-1.413-12.44-4.24-2.666-2.827-4-6.533-4-11.12 0-6 1.534-10.48 4.6-13.44 3.094-2.987 7.147-4.48 12.16-4.48zm-11.8 13.2c0 6.08 1.214 10.747 3.64 14 2.427 3.253 5.374 4.88 8.84 4.88.827 0 1.76-.093 2.8-.28 1.067-.16 2.067-.44 3-.84-1.173-2.533-2.626-4.787-4.36-6.76-1.733-2-3.44-3-5.12-3-.906 0-1.613.147-2.12.44-.48.267-.933.653-1.36 1.16.134-1.067.627-1.813 1.48-2.24.854-.427 1.854-.64 3-.64 2.427 0 4.56.907 6.4 2.72 1.867 1.787 3.4 3.947 4.6 6.48.907-.933 1.534-2.2 1.88-3.8.347-1.6.52-3.293.52-5.08 0-2.933-.36-5.813-1.08-8.64-.693-2.853-2-5.28-3.92-7.28-1.893-2.027-4.493-3.04-7.8-3.04-3.36 0-5.933.867-7.72 2.6-1.786 1.733-2.68 4.84-2.68 9.32z" fill="url(#qec1ap8hka)"/>
    <path d="M45.804 11.76v14.68c0 .72.094 1.227.28 1.52.187.267.6.613 1.24 1.04h-6.84c.374-.293.747-.6 1.12-.92.347-.4.52-.947.52-1.64V15.92c0-.747-.346-1.12-1.04-1.12-.506 0-1.12.24-1.84.72.934-1.067 1.814-1.96 2.64-2.68.854-.72 2.16-1.08 3.92-1.08z" fill="url(#0mnuxj01hb)"/>
    <path d="M67.816 11.6c2.026 0 3.626.427 4.8 1.28 1.2.853 1.8 2.227 1.8 4.12 0 1.387-1.814 3.08-5.44 5.08-3.6 1.973-5.614 3.213-6.04 3.72.613 0 1.24.013 1.88.04h2.04c2.026 0 3.773-.053 5.24-.16 1.493-.133 2.626-.387 3.4-.76-.587.907-1.16 1.8-1.72 2.68-.88.987-2.027 1.48-3.44 1.48l-10.6-.08c0-1.787.906-3.427 2.72-4.92a316.74 316.74 0 0 0 5.16-3.6c1.786-1.253 2.68-2.533 2.68-3.84 0-1.173-.254-2.093-.76-2.76-.48-.693-1.387-1.04-2.72-1.04-.827 0-1.654.32-2.48.96-.827.613-1.24 1.36-1.24 2.24 0 .693.053 1.267.16 1.72.106.453.4 1.027.88 1.72-1.28-.667-2.134-1.28-2.56-1.84-.4-.587-.6-1.347-.6-2.28 0-1.04.666-1.92 2-2.64 1.36-.747 2.973-1.12 4.84-1.12z" fill="url(#x3n0bh9fnc)"/>
    <path d="M85.569 11.68c2.186 0 3.893.787 5.12 2.36 1.253 1.573 1.88 3.52 1.88 5.84 0 2.427-.894 4.6-2.68 6.52-1.76 1.893-3.76 2.84-6 2.84-2.134 0-3.84-.787-5.12-2.36-1.28-1.6-1.92-3.6-1.92-6s.88-4.533 2.64-6.4c1.76-1.867 3.786-2.8 6.08-2.8zm-5.2 6.84c0 2.08.306 4.067.92 5.96.613 1.893 1.92 2.84 3.92 2.84 1.12 0 2.026-.48 2.72-1.44.693-.96 1.04-2.187 1.04-3.68 0-2.16-.36-4.133-1.08-5.92-.72-1.813-1.947-2.72-3.68-2.72-1.174 0-2.107.467-2.8 1.4-.694.933-1.04 2.12-1.04 3.56z" fill="url(#8lvo4gyejd)"/>
    <path d="M102.776 11.6c2.027 0 3.627.427 4.8 1.28 1.2.853 1.8 2.227 1.8 4.12 0 1.387-1.813 3.08-5.44 5.08-3.6 1.973-5.613 3.213-6.04 3.72.614 0 1.24.013 1.88.04h2.04c2.027 0 3.774-.053 5.24-.16 1.494-.133 2.627-.387 3.4-.76-.586.907-1.16 1.8-1.72 2.68-.88.987-2.026 1.48-3.44 1.48l-10.6-.08c0-1.787.907-3.427 2.72-4.92 1.68-1.147 3.4-2.347 5.16-3.6 1.787-1.253 2.68-2.533 2.68-3.84 0-1.173-.253-2.093-.76-2.76-.48-.693-1.386-1.04-2.72-1.04-.826 0-1.653.32-2.48.96-.826.613-1.24 1.36-1.24 2.24 0 .693.054 1.267.16 1.72.107.453.4 1.027.88 1.72-1.28-.667-2.133-1.28-2.56-1.84-.4-.587-.6-1.347-.6-2.28 0-1.04.667-1.92 2-2.64 1.36-.747 2.974-1.12 4.84-1.12z" fill="url(#oac5xuyx6e)"/>
    <path d="M119.73 11.6c2.026 0 3.626.427 4.8 1.28 1.2.853 1.8 2.227 1.8 4.12 0 1.387-1.814 3.08-5.44 5.08-3.6 1.973-5.614 3.213-6.04 3.72.613 0 1.24.013 1.88.04h2.04c2.026 0 3.773-.053 5.24-.16 1.493-.133 2.626-.387 3.4-.76-.587.907-1.16 1.8-1.72 2.68-.88.987-2.027 1.48-3.44 1.48l-10.6-.08c0-1.787.906-3.427 2.72-4.92a316.74 316.74 0 0 0 5.16-3.6c1.786-1.253 2.68-2.533 2.68-3.84 0-1.173-.254-2.093-.76-2.76-.48-.693-1.387-1.04-2.72-1.04-.827 0-1.654.32-2.48.96-.827.613-1.24 1.36-1.24 2.24 0 .693.053 1.267.16 1.72.106.453.4 1.027.88 1.72-1.28-.667-2.134-1.28-2.56-1.84-.4-.587-.6-1.347-.6-2.28 0-1.04.666-1.92 2-2.64 1.36-.747 2.973-1.12 4.84-1.12z" fill="url(#t2q8phcsuf)"/>
    <path fill-rule="evenodd" clip-rule="evenodd" d="M20.358 2.395c4.605.23 8.178 1.592 10.72 4.085 2.826 2.72 4.24 6.533 4.24 11.44 0 3.6-.667 6.693-2 9.28-1.467 1.92-2.92 3.84-4.36 5.76l1.04 1.92c.96 1.467 2.2 2.747 3.72 3.84 1.091.772 2.336 1.272 3.734 1.498.582.095 1.19.142 1.825.142 1.226 0 2.17-.146 2.834-.438l.009-.003c.083-.037.163-.077.237-.119.667-.373 1.4-1.093 2.2-2.16 0 1.033-.63 1.936-1.893 2.707a8.05 8.05 0 0 1-.227.133c-.918.537-1.971.9-3.16 1.088a12.956 12.956 0 0 1-2.04.152c-2.773 0-4.986-.693-6.64-2.08-1.55-1.296-3.028-2.968-4.434-5.016-.069-.1-.137-.202-.206-.304a5.531 5.531 0 0 1-.108.053c-.74.35-1.771.639-3.092.867l-.16.031-.032.006a21.45 21.45 0 0 1-3.968.363c-.652 0-1.286-.02-1.899-.057-4.648-.292-8.161-1.686-10.54-4.183-2.667-2.827-4-6.533-4-11.12 0-6 1.533-10.48 4.6-13.44A15.376 15.376 0 0 1 8.78 5.192c2.442-1.663 5.354-2.593 8.737-2.792.458-.026.925-.04 1.4-.04.491 0 .971.012 1.44.035zM9.58 6.462c-1.642 1.771-2.463 4.804-2.463 9.098 0 5.803 1.105 10.318 3.315 13.546.097.14.195.278.295.414l.03.04c1.781 2.388 3.842 3.899 6.183 4.534.538.146 1.09.246 1.657.3.329.03.662.046 1 .046.827 0 1.76-.093 2.8-.28l.144-.022.025-.004a12.65 12.65 0 0 0 1.41-.312c.49-.139.964-.306 1.421-.502a33.974 33.974 0 0 0-.664-1.348 27.516 27.516 0 0 0-3.696-5.412c-1.253-1.446-2.493-2.37-3.718-2.77a4.861 4.861 0 0 0-.402-.113 4.374 4.374 0 0 0-1-.117c-.619 0-1.144.069-1.577.205a2.718 2.718 0 0 0-.543.235c-.48.267-.933.653-1.36 1.16.102-.816.415-1.445.94-1.887l.011-.01c.158-.13.334-.245.53-.343a6.086 6.086 0 0 1 2-.581c.32-.04.653-.059 1-.059a9.4 9.4 0 0 1 .676.024c2.149.155 4.056 1.053 5.723 2.696 1.504 1.44 2.791 3.12 3.862 5.044.259.465.505.943.738 1.436a6.32 6.32 0 0 0 1-1.364c.387-.7.68-1.513.88-2.436.347-1.6.52-3.293.52-5.08 0-2.933-.36-5.813-1.08-8.64-.693-2.853-2-5.28-3.92-7.28-1.352-1.447-3.064-2.378-5.138-2.792a12.503 12.503 0 0 0-1.262-.183 14.774 14.774 0 0 0-1.4-.065c-3.36 0-5.933.867-7.72 2.6a5.88 5.88 0 0 0-.217.222zM28.01 28.49c.125-.342.232-.717.321-1.127.323-1.487.486-3.073.486-4.763 0-2.81-.344-5.565-1.033-8.27l-.002-.008-.002-.008c-.635-2.611-1.82-4.798-3.545-6.595l-.007-.007-.007-.008C22.666 6.04 20.495 5.14 17.517 5.14c-3.11 0-5.255.799-6.675 2.177-1.335 1.295-2.225 3.871-2.225 8.243 0 4.676.742 8.345 2.12 11.106l.212-1.692c.186-1.49.933-2.713 2.297-3.396 1.1-.55 2.338-.798 3.671-.798 2.845 0 5.346 1.079 7.445 3.144a22.442 22.442 0 0 1 3.648 4.566zm-16.286-.154c.077.111.156.22.236.327 2.198 2.947 4.729 4.277 7.637 4.277.718 0 1.56-.081 2.535-.256l.021-.004.022-.003c.383-.058.755-.133 1.115-.224a25.943 25.943 0 0 0-3.38-4.903l-.006-.008c-1.611-1.858-2.94-2.482-3.987-2.482-.775 0-1.182.13-1.368.238l-.012.007-.011.006c-.292.162-.608.42-.941.815l-1.861 2.21zM5.716 5.761C9.135 2.46 13.585.86 18.917.86c5.555 0 10.038 1.44 13.206 4.543 3.187 3.07 4.694 7.313 4.694 12.516 0 3.783-.7 7.124-2.166 9.967l-.061.118-.08.106a816.822 816.822 0 0 0-3.775 4.98l.55 1.018c.848 1.28 1.943 2.41 3.303 3.39 1.258.887 2.797 1.361 4.69 1.361 1.308 0 2.02-.186 2.346-.369.396-.221.979-.745 1.733-1.75l2.7-3.6v4.5c0 1.866-1.242 3.215-2.872 4.14-1.692.987-3.699 1.44-5.948 1.44-3.023 0-5.61-.76-7.603-2.431-1.495-1.25-2.902-2.802-4.23-4.638-.7.226-1.497.41-2.374.563-1.452.284-2.93.425-4.433.425-5.83 0-10.445-1.472-13.526-4.705l-.005-.006C2.09 29.275.657 25.176.657 20.28c0-6.238 1.597-11.177 5.059-14.52zm41.588 4.5v16.18a3.722 3.722 0 0 0 .058.708c.03.029.074.07.136.122.152.127.367.287.659.481l4.122 2.748H36.148l3.41-2.68c.317-.248.634-.508.953-.778.05-.086.113-.26.113-.602v-9.99a4.52 4.52 0 0 0-.547.318l-1.961-2.236c.965-1.103 1.893-2.048 2.783-2.823l.01-.008.008-.007c1.242-1.048 2.966-1.434 4.887-1.434h1.5zm-5.528 4.738c.232.182.348.489.348.921v10.52c0 .403-.058.756-.175 1.06-.084.22-.2.413-.344.58-.374.32-.747.627-1.12.92h6.84c-.64-.427-1.054-.773-1.24-1.04a1.512 1.512 0 0 1-.181-.46 4.68 4.68 0 0 1-.1-1.06V11.76c-.543 0-1.043.034-1.5.103-1.023.154-1.83.48-2.42.977a20.35 20.35 0 0 0-.8.735 31.79 31.79 0 0 0-1.84 1.945c.72-.48 1.334-.72 1.84-.72.293 0 .523.066.692.199zm27.096-3.357c1.534.126 2.782.539 3.743 1.238 1.2.853 1.8 2.227 1.8 4.12 0 1.387-1.813 3.08-5.44 5.08a108.286 108.286 0 0 0-4.16 2.38c-1.036.636-1.663 1.083-1.88 1.34.614 0 1.24.013 1.88.04h2.04c2.027 0 3.774-.053 5.24-.16.439-.039.846-.088 1.222-.148.906-.144 1.632-.348 2.179-.612a425.884 425.884 0 0 0-1.72 2.68c-.88.987-2.027 1.48-3.44 1.48l-10.6-.08v-.08a5.108 5.108 0 0 1 .288-1.62 5.61 5.61 0 0 1 .34-.775c.453-.855 1.15-1.67 2.092-2.445a316.74 316.74 0 0 0 5.16-3.6c1.786-1.253 2.68-2.533 2.68-3.84 0-1.173-.254-2.093-.76-2.76-.23-.332-.558-.585-.984-.758a3.563 3.563 0 0 0-.737-.204 5.89 5.89 0 0 0-1-.078c-.756 0-1.512.268-2.268.803a6.27 6.27 0 0 0-.212.157c-.826.613-1.24 1.36-1.24 2.24 0 .392.017.745.052 1.06.026.243.062.463.108.66.107.453.4 1.027.88 1.72-.965-.503-1.687-.975-2.167-1.417a3.835 3.835 0 0 1-.23-.229 2.822 2.822 0 0 1-.163-.194c-.4-.587-.6-1.347-.6-2.28 0-1.04.667-1.92 2-2.64.278-.152.566-.289.864-.41.897-.364 1.89-.588 2.977-.672a12.979 12.979 0 0 1 2.056.004zm3.102 12.543c1.42-.128 2.339-.36 2.87-.616l.707-.341a13.185 13.185 0 0 1-.202-2.348c0-.93.114-1.825.34-2.683-.317.835-.93 1.575-1.61 2.21-1.037.968-2.52 1.961-4.38 2.987l-.002.002c-.612.335-1.175.648-1.691.938a65.712 65.712 0 0 0 3.968-.149zm3.874-6.532c.494-1.525 1.35-2.93 2.55-4.202 2.005-2.128 4.413-3.27 7.17-3.27 2.596 0 4.758.959 6.299 2.93 1.493 1.878 2.202 4.167 2.202 6.77 0 2.837-1.06 5.367-3.082 7.54-1.996 2.148-4.376 3.32-7.098 3.32-2.558 0-4.703-.97-6.284-2.914l-.008-.01a9.75 9.75 0 0 1-1.091-1.697c-.498.772-.987 1.534-1.465 2.285l-.065.103-.081.09c-1.186 1.33-2.752 1.982-4.56 1.982h-.01l-12.09-.091V29c0-2.367 1.224-4.396 3.267-6.078l.052-.043.056-.038a314.773 314.773 0 0 0 5.135-3.583l.009-.006c1.655-1.16 2.041-2.05 2.041-2.612 0-.974-.211-1.533-.454-1.852l-.02-.027-.019-.027c-.066-.096-.351-.394-1.487-.394-.414 0-.927.155-1.561.646l-.012.01-.013.009c-.519.385-.633.715-.633 1.035 0 .628.049 1.076.12 1.377.041.178.207.566.653 1.21l-1.926 2.184c-1.313-.684-2.421-1.423-3.06-2.262l-.025-.031-.022-.033c-.616-.903-.86-1.984-.86-3.125 0-1.822 1.213-3.109 2.782-3.957 1.621-.89 3.491-1.303 5.557-1.303 2.219 0 4.164.465 5.676 1.562 1.702 1.214 2.424 3.116 2.424 5.338 0 .223-.023.441-.067.653zm1.632 6.961a8.304 8.304 0 0 0 1.289 2.266c1.28 1.573 2.986 2.36 5.12 2.36 2.24 0 4.24-.947 6-2.84 1.786-1.92 2.68-4.093 2.68-6.52 0-2.32-.627-4.267-1.88-5.84-1.227-1.573-2.934-2.36-5.12-2.36-2.294 0-4.32.933-6.08 2.8-1.76 1.867-2.64 4-2.64 6.4 0 .58.037 1.135.111 1.667.103.733.276 1.422.52 2.067zm9.017-7.773-.002-.007c-.286-.718-.625-1.141-.958-1.388-.32-.237-.737-.386-1.328-.386-.704 0-1.189.246-1.596.795-.46.618-.744 1.47-.744 2.665 0 1.93.284 3.76.847 5.498.232.716.552 1.13.893 1.377.341.248.839.425 1.6.425.606 0 1.073-.222 1.504-.818.465-.645.756-1.54.756-2.802 0-1.991-.332-3.771-.972-5.36zm16.079 3.64c1.787-1.254 2.68-2.534 2.68-3.84 0-1.174-.253-2.094-.76-2.76-.229-.333-.557-.585-.983-.758a3.549 3.549 0 0 0-.737-.205 5.882 5.882 0 0 0-1-.078c-.756 0-1.512.268-2.268.803a6.27 6.27 0 0 0-.212.157c-.826.613-1.24 1.36-1.24 2.24 0 .392.017.745.052 1.06.026.243.062.463.108.66.107.453.4 1.027.88 1.72-.965-.503-1.687-.975-2.167-1.417a3.835 3.835 0 0 1-.23-.229 2.796 2.796 0 0 1-.163-.194c-.4-.587-.6-1.347-.6-2.28 0-1.04.667-1.92 2-2.64.278-.152.565-.289.864-.41.897-.364 1.889-.588 2.976-.672a13 13 0 0 1 2.057.004c1.534.126 2.782.539 3.743 1.238 1.2.853 1.8 2.227 1.8 4.12 0 1.387-1.813 3.08-5.44 5.08a108.641 108.641 0 0 0-4.16 2.38c-1.036.636-1.663 1.083-1.88 1.34.614 0 1.24.013 1.88.04h2.04c2.027 0 3.774-.053 5.24-.16.439-.039.846-.088 1.222-.148.906-.144 1.632-.348 2.178-.612-.429.664-.851 1.32-1.266 1.97l-.454.71c-.88.987-2.026 1.48-3.44 1.48l-10.6-.08.001-.08a5.11 5.11 0 0 1 .288-1.62c.092-.262.205-.52.34-.775.453-.855 1.15-1.67 2.091-2.445 1.68-1.147 3.4-2.347 5.16-3.6zm7.638 7.592-.212.332-.065.103-.081.09c-1.186 1.33-2.752 1.982-4.56 1.982h-.011l-12.089-.091V29c0-2.367 1.224-4.396 3.267-6.078l.052-.043.056-.038a313.48 313.48 0 0 0 5.135-3.583l.009-.006c1.655-1.16 2.041-2.05 2.041-2.612 0-.974-.211-1.533-.454-1.852l-.02-.027-.019-.027c-.066-.096-.351-.394-1.487-.394-.414 0-.927.155-1.561.646l-.012.01-.013.009c-.519.385-.634.715-.634 1.035 0 .628.05 1.076.12 1.377.042.178.208.566.654 1.21l-1.927 2.184c-1.312-.684-2.42-1.423-3.06-2.262l-.024-.031-.022-.033c-.616-.903-.86-1.984-.86-3.125 0-1.822 1.213-3.108 2.782-3.957 1.62-.889 3.491-1.303 5.557-1.303 2.218 0 4.163.465 5.676 1.562 1.702 1.214 2.424 3.116 2.424 5.338 0 1.338-.847 2.483-1.836 3.406-1.037.969-2.519 1.962-4.379 2.988l-.004.002c-.611.335-1.175.648-1.69.938a65.71 65.71 0 0 0 3.968-.149c1.42-.128 2.339-.36 2.869-.616l4.818-2.325-.983 1.518a313.757 313.757 0 0 0 5.02-3.504l.009-.006c1.655-1.16 2.042-2.05 2.042-2.612 0-.974-.212-1.533-.455-1.852l-.02-.027-.019-.027c-.066-.096-.351-.394-1.486-.394-.415 0-.928.155-1.562.646l-.012.01-.013.009c-.518.385-.633.715-.633 1.035 0 .628.049 1.076.12 1.377.042.178.207.566.653 1.21l-1.926 2.184c-1.313-.684-2.421-1.423-3.061-2.262l-.024-.031-.022-.033c-.616-.903-.86-1.984-.86-3.125 0-1.822 1.213-3.108 2.782-3.957 1.621-.889 3.491-1.303 5.558-1.303 2.218 0 4.163.465 5.675 1.562 1.702 1.214 2.425 3.116 2.425 5.338 0 1.338-.848 2.483-1.837 3.406-1.037.969-2.519 1.962-4.379 2.988l-.003.002c-.612.335-1.175.648-1.691.938a65.71 65.71 0 0 0 3.968-.149c1.42-.128 2.339-.36 2.869-.616l4.818-2.325-2.906 4.491c-.585.904-1.156 1.794-1.714 2.67l-.065.103-.081.09c-1.186 1.33-2.752 1.982-4.559 1.982h-.012l-12.088-.091V29c0-.315.021-.624.064-.927zm13.796-2.393c-1.467.107-3.214.16-5.24.16h-2.04c-.64-.027-1.267-.04-1.88-.04.216-.257.843-.704 1.88-1.34l.059-.037.136-.083c.985-.598 2.306-1.351 3.965-2.26 3.626-2 5.44-3.693 5.44-5.08 0-1.893-.6-3.267-1.8-4.12-.962-.7-2.21-1.112-3.744-1.238a12.962 12.962 0 0 0-2.056-.004c-1.088.084-2.08.308-2.977.672a8.229 8.229 0 0 0-.863.41c-1.334.72-2 1.6-2 2.64 0 .933.2 1.693.6 2.28.048.064.103.129.163.194.069.076.145.152.229.23.48.441 1.202.913 2.168 1.416-.48-.693-.774-1.267-.88-1.72a5.288 5.288 0 0 1-.109-.66 9.963 9.963 0 0 1-.051-1.06c0-.88.413-1.627 1.24-2.24.07-.055.141-.107.211-.157.756-.535 1.512-.803 2.269-.803.365 0 .698.026 1 .078.271.047.517.115.736.205.426.173.754.425.984.757.506.667.76 1.587.76 2.76 0 1.307-.894 2.587-2.68 3.84a316.74 316.74 0 0 1-5.16 3.6c-.942.775-1.639 1.59-2.092 2.445a5.67 5.67 0 0 0-.406.977c-.14.462-.214.934-.222 1.418V29l10.6.08c1.413 0 2.56-.493 3.44-1.48a355.907 355.907 0 0 1 1.72-2.68c-.547.264-1.273.468-2.179.612-.376.06-.783.109-1.221.148zm-42.721-1.2a19.22 19.22 0 0 1-.92-5.96c0-1.44.346-2.627 1.04-3.56.693-.933 1.626-1.4 2.8-1.4 1.733 0 2.96.907 3.68 2.72.72 1.787 1.08 3.76 1.08 5.92 0 1.493-.347 2.72-1.04 3.68-.694.96-1.6 1.44-2.72 1.44-2 0-3.307-.947-3.92-2.84z" fill="#764E01"/>
    <defs>
        <linearGradient id="qec1ap8hka" x1="64.894" y1="8.778" x2="64.624" y2="34.886" gradientUnits="userSpaceOnUse">
            <stop stop-color="#FFD600"/>
            <stop offset="1" stop-color="#B9750E"/>
        </linearGradient>
        <linearGradient id="0mnuxj01hb" x1="64.894" y1="8.778" x2="64.624" y2="34.886" gradientUnits="userSpaceOnUse">
            <stop stop-color="#FFD600"/>
            <stop offset="1" stop-color="#B9750E"/>
        </linearGradient>
        <linearGradient id="x3n0bh9fnc" x1="64.894" y1="8.778" x2="64.624" y2="34.886" gradientUnits="userSpaceOnUse">
            <stop stop-color="#FFD600"/>
            <stop offset="1" stop-color="#B9750E"/>
        </linearGradient>
        <linearGradient id="8lvo4gyejd" x1="64.894" y1="8.778" x2="64.624" y2="34.886" gradientUnits="userSpaceOnUse">
            <stop stop-color="#FFD600"/>
            <stop offset="1" stop-color="#B9750E"/>
        </linearGradient>
        <linearGradient id="oac5xuyx6e" x1="64.894" y1="8.778" x2="64.624" y2="34.886" gradientUnits="userSpaceOnUse">
            <stop stop-color="#FFD600"/>
            <stop offset="1" stop-color="#B9750E"/>
        </linearGradient>
        <linearGradient id="t2q8phcsuf" x1="64.894" y1="8.778" x2="64.624" y2="34.886" gradientUnits="userSpaceOnUse">
            <stop stop-color="#FFD600"/>
            <stop offset="1" stop-color="#B9750E"/>
        </linearGradient>
    </defs>
</svg>
