<svg width="126" height="40" viewBox="0 0 126 40" fill="none" xmlns="http://www.w3.org/2000/svg">
    <path d="M16.917.36c5.307 0 9.36 1.373 12.16 4.12 2.827 2.72 4.24 6.533 4.24 11.44 0 3.6-.666 6.693-2 9.28-1.466 1.92-2.92 3.84-4.36 5.76l1.04 1.92c.96 1.467 2.2 2.747 3.72 3.84 1.547 1.093 3.4 1.64 5.56 1.64 1.387 0 2.414-.187 3.08-.56.667-.373 1.4-1.093 2.2-2.16 0 1.093-.706 2.04-2.12 2.84-1.413.827-3.146 1.24-5.2 1.24-2.773 0-4.986-.693-6.64-2.08-1.626-1.36-3.173-3.133-4.64-5.32-.746.373-1.813.68-3.2.92-1.36.267-2.746.4-4.16.4-5.6 0-9.746-1.413-12.44-4.24-2.666-2.827-4-6.533-4-11.12 0-6 1.534-10.48 4.6-13.44C7.851 1.853 11.904.36 16.917.36zm-11.8 13.2c0 6.08 1.214 10.747 3.64 14 2.427 3.253 5.374 4.88 8.84 4.88.827 0 1.76-.093 2.8-.28a12.16 12.16 0 0 0 3-.84c-1.173-2.533-2.626-4.787-4.36-6.76-1.733-2-3.44-3-5.12-3-.906 0-1.613.147-2.12.44-.48.267-.933.653-1.36 1.16.134-1.067.627-1.813 1.48-2.24.854-.427 1.854-.64 3-.64 2.427 0 4.56.907 6.4 2.72 1.867 1.787 3.4 3.947 4.6 6.48.907-.933 1.534-2.2 1.88-3.8.347-1.6.52-3.293.52-5.08 0-2.933-.36-5.813-1.08-8.64-.693-2.853-2-5.28-3.92-7.28-1.893-2.027-4.493-3.04-7.8-3.04-3.36 0-5.933.867-7.72 2.6-1.786 1.733-2.68 4.84-2.68 9.32zm38.688-3.8v14.68c0 .72.093 1.227.28 1.52.186.267.6.613 1.24 1.04h-6.84c.373-.293.746-.6 1.12-.92.346-.4.52-.947.52-1.64V13.92c0-.747-.347-1.12-1.04-1.12-.507 0-1.12.24-1.84.72.933-1.067 1.813-1.96 2.64-2.68.853-.72 2.16-1.08 3.92-1.08zm22.01-.16c2.027 0 3.627.427 4.8 1.28 1.2.853 1.8 2.227 1.8 4.12 0 1.387-1.813 3.08-5.44 5.08-3.6 1.973-5.613 3.213-6.04 3.72.614 0 1.24.013 1.88.04h2.04c2.027 0 3.774-.053 5.24-.16 1.494-.133 2.627-.387 3.4-.76-.586.907-1.16 1.8-1.72 2.68-.88.987-2.026 1.48-3.44 1.48l-10.6-.08c0-1.787.907-3.427 2.72-4.92a316.74 316.74 0 0 0 5.16-3.6c1.787-1.253 2.68-2.533 2.68-3.84 0-1.173-.253-2.093-.76-2.76-.48-.693-1.386-1.04-2.72-1.04-.826 0-1.653.32-2.48.96-.826.613-1.24 1.36-1.24 2.24 0 .693.054 1.267.16 1.72.107.453.4 1.027.88 1.72-1.28-.667-2.133-1.28-2.56-1.84-.4-.587-.6-1.347-.6-2.28 0-1.04.667-1.92 2-2.64 1.36-.747 2.974-1.12 4.84-1.12zm17.754.08c2.186 0 3.893.787 5.12 2.36 1.253 1.573 1.88 3.52 1.88 5.84 0 2.427-.894 4.6-2.68 6.52-1.76 1.893-3.76 2.84-6 2.84-2.134 0-3.84-.787-5.12-2.36-1.28-1.6-1.92-3.6-1.92-6s.88-4.533 2.64-6.4c1.76-1.867 3.786-2.8 6.08-2.8zm-5.2 6.84c0 2.08.306 4.067.92 5.96.613 1.893 1.92 2.84 3.92 2.84 1.12 0 2.026-.48 2.72-1.44.693-.96 1.04-2.187 1.04-3.68 0-2.16-.36-4.133-1.08-5.92-.72-1.813-1.947-2.72-3.68-2.72-1.174 0-2.107.467-2.8 1.4-.694.933-1.04 2.12-1.04 3.56zm22.407-6.92c2.027 0 3.627.427 4.8 1.28 1.2.853 1.8 2.227 1.8 4.12 0 1.387-1.813 3.08-5.44 5.08-3.6 1.973-5.613 3.213-6.04 3.72.614 0 1.24.013 1.88.04h2.04c2.027 0 3.774-.053 5.24-.16 1.494-.133 2.627-.387 3.4-.76-.586.907-1.16 1.8-1.72 2.68-.88.987-2.026 1.48-3.44 1.48l-10.6-.08c0-1.787.907-3.427 2.72-4.92a315.01 315.01 0 0 0 5.16-3.6c1.787-1.253 2.68-2.533 2.68-3.84 0-1.173-.253-2.093-.76-2.76-.48-.693-1.386-1.04-2.72-1.04-.826 0-1.653.32-2.48.96-.826.613-1.24 1.36-1.24 2.24 0 .693.054 1.267.16 1.72.107.453.4 1.027.88 1.72-1.28-.667-2.133-1.28-2.56-1.84-.4-.587-.6-1.347-.6-2.28 0-1.04.667-1.92 2-2.64 1.36-.747 2.974-1.12 4.84-1.12zm16.954 0c2.026 0 3.626.427 4.8 1.28 1.2.853 1.8 2.227 1.8 4.12 0 1.387-1.814 3.08-5.44 5.08-3.6 1.973-5.614 3.213-6.04 3.72.613 0 1.24.013 1.88.04h2.04c2.026 0 3.773-.053 5.24-.16 1.493-.133 2.626-.387 3.4-.76-.587.907-1.16 1.8-1.72 2.68-.88.987-2.027 1.48-3.44 1.48l-10.6-.08c0-1.787.906-3.427 2.72-4.92a316.74 316.74 0 0 0 5.16-3.6c1.786-1.253 2.68-2.533 2.68-3.84 0-1.173-.254-2.093-.76-2.76-.48-.693-1.387-1.04-2.72-1.04-.827 0-1.654.32-2.48.96-.827.613-1.24 1.36-1.24 2.24 0 .693.053 1.267.16 1.72.106.453.4 1.027.88 1.72-1.28-.667-2.134-1.28-2.56-1.84-.4-.587-.6-1.347-.6-2.28 0-1.04.666-1.92 2-2.64 1.36-.747 2.973-1.12 4.84-1.12z" fill="url(#d46mmbexla)"/>
    <path d="m29.077 4.48-1.05 1.07.005.006.005.005 1.04-1.081zm2.24 20.72 1.192.91.08-.105.062-.118-1.334-.687zm-4.36 5.76-1.2-.9-.577.77.458.844 1.32-.714zm1.04 1.92-1.319.714.03.055.034.053 1.255-.822zm3.72 3.84-.876 1.218.01.007.866-1.225zm10.84-1.08h1.5v-4.5l-2.7 3.6 1.2.9zm-2.12 2.84-.739-1.305-.009.005-.009.005.757 1.295zm-11.84-.84.964-1.15h-.002l-.962 1.15zm-4.64-5.32 1.246-.836-.735-1.096-1.181.59.67 1.342zm-3.2.92-.256-1.478-.016.003-.016.003.288 1.472zm-16.6-3.84-1.09 1.03.004.005L4.157 29.4zm.6-24.56L5.8 5.92 4.757 4.84zm4 22.72 1.203-.897-1.203.897zm11.64 4.6-.222-1.483-.021.003-.022.004.265 1.476zm3-.84.591 1.379 1.42-.608-.65-1.401-1.36.63zm-4.36-6.76-1.133.982.006.008 1.127-.99zM11.797 22l.729 1.311.011-.006.012-.007L11.797 22zm-1.36 1.16-1.488-.186-.629 5.029 3.265-3.877-1.148-.966zm10.88-.16-1.052 1.068.007.008.008.008L21.317 23zm4.6 6.48-1.355.642.925 1.954 1.506-1.55-1.076-1.046zm1.88-3.8 1.466.318-1.466-.318zm-.56-13.72-1.457.354.002.008.002.008 1.453-.37zm-3.92-7.28-1.096 1.024.007.007.007.008 1.082-1.039zm-15.52-.44 1.045 1.077L7.797 4.24zm9.12-2.38c5.056 0 8.678 1.305 11.11 3.69l2.1-2.14C26.96.301 22.476-1.14 16.918-1.14v3zm11.12 3.7c2.463 2.37 3.78 5.753 3.78 10.36h3c0-5.206-1.509-9.45-4.7-12.52l-2.08 2.16zm3.78 10.36c0 3.417-.632 6.263-1.833 8.593l2.667 1.374c1.465-2.843 2.166-6.184 2.166-9.967h-3zm-1.692 8.37a820.884 820.884 0 0 0-4.368 5.77l2.4 1.8a816.467 816.467 0 0 1 4.352-5.75l-2.384-1.82zm-4.487 7.384a282.424 282.424 0 0 1 .52.96l.52.96 2.638-1.428-.26-.48-.26-.48c-.15-.28-.369-.681-.52-.96l-2.638 1.428zm1.104 2.028c1.068 1.63 2.44 3.042 4.1 4.236l1.751-2.436c-1.38-.993-2.488-2.141-3.34-3.444l-2.51 1.644zm4.11 4.243c1.834 1.297 4 1.915 6.425 1.915v-3c-1.895 0-3.435-.475-4.694-1.365l-1.731 2.45zm6.425 1.915c1.465 0 2.806-.187 3.813-.751l-1.466-2.618c-.326.183-1.038.369-2.347.369v3zm3.813-.751c.938-.525 1.822-1.441 2.667-2.569l-2.4-1.8c-.754 1.006-1.337 1.53-1.733 1.751l1.466 2.618zm-.033-3.469c0 .316-.165.86-1.359 1.535l1.478 2.61c1.634-.924 2.881-2.275 2.881-4.145h-3zm-1.377 1.545c-1.132.662-2.589 1.035-4.443 1.035v3c2.253 0 4.263-.454 5.958-1.445l-1.515-2.59zm-4.443 1.035c-2.523 0-4.362-.627-5.676-1.73l-1.928 2.3c1.993 1.67 4.581 2.43 7.604 2.43v-3zm-5.678-1.73c-1.495-1.25-2.95-2.91-4.356-5.006l-2.491 1.672c1.527 2.277 3.165 4.165 4.923 5.635l1.924-2.302zm-6.273-5.512c-.556.279-1.458.554-2.785.784l.512 2.956c1.447-.25 2.678-.588 3.615-1.056l-1.341-2.684zm-2.817.79a20.065 20.065 0 0 1-3.872.372v3c1.509 0 2.992-.142 4.449-.428l-.577-2.944zm-3.872.372c-5.37 0-9.048-1.355-11.354-3.775l-2.172 2.07c3.081 3.233 7.697 4.705 13.526 4.705v-3zM5.248 28.37c-2.357-2.498-3.59-5.813-3.59-10.09h-3c0 4.896 1.432 8.995 4.408 12.15l2.182-2.06zm-3.59-10.09c0-5.762 1.47-9.782 4.141-12.36L3.716 3.76C.253 7.103-1.343 12.043-1.343 18.28h3zM5.798 5.92c2.768-2.673 6.424-4.06 11.118-4.06v-3c-5.332 0-9.782 1.6-13.202 4.9L5.8 5.92zm-2.182 7.64c0 6.25 1.243 11.284 3.938 14.897l2.405-1.794C7.8 23.77 6.617 19.47 6.617 13.56h-3zm3.938 14.897c2.655 3.56 6.017 5.483 10.042 5.483v-3c-2.908 0-5.439-1.33-7.637-4.277l-2.405 1.794zm10.042 5.483c.936 0 1.96-.105 3.065-.304l-.53-2.952c-.975.175-1.817.256-2.535.256v3zm3.023-.297a13.66 13.66 0 0 0 3.368-.944l-1.181-2.758c-.809.347-1.684.593-2.632.736l.445 2.966zm4.138-2.953c-1.23-2.656-2.76-5.032-4.594-7.12l-2.254 1.98c1.633 1.859 3.01 3.99 4.126 6.4l2.722-1.26zm-4.587-7.112c-1.856-2.142-3.94-3.518-6.254-3.518v3c1.047 0 2.376.624 3.987 2.482l2.267-1.964zm-6.254-3.518c-1.038 0-2.044.163-2.871.642l1.503 2.596c.186-.107.593-.238 1.368-.238v-3zm-2.848.629c-.669.371-1.258.887-1.779 1.505l2.295 1.932c.332-.395.65-.653.94-.815L11.07 20.69zm.857 2.657c.08-.643.32-.913.662-1.084l-1.341-2.684c-1.365.683-2.112 1.905-2.298 3.396l2.977.372zm.662-1.084c.607-.304 1.369-.482 2.33-.482v-3c-1.334 0-2.572.249-3.671.798l1.341 2.684zm2.33-.482c2.005 0 3.767.732 5.347 2.288l2.105-2.136c-2.1-2.07-4.605-3.152-7.453-3.152v3zm5.362 2.304c1.724 1.65 3.153 3.656 4.282 6.038l2.711-1.284c-1.272-2.685-2.909-4.998-4.918-6.922l-2.075 2.168zm6.713 6.441c1.147-1.18 1.88-2.723 2.27-4.527l-2.932-.636c-.302 1.396-.823 2.387-1.49 3.073l2.152 2.09zm2.27-4.527c.372-1.714.554-3.514.554-5.398h-3c0 1.69-.163 3.276-.486 4.762l2.932.636zm.554-5.398c0-3.058-.375-6.062-1.126-9.01l-2.907.74a33.366 33.366 0 0 1 1.033 8.27h3zm-1.122-8.994c-.752-3.095-2.181-5.762-4.296-7.965L22.235 5.72c1.726 1.797 2.91 3.983 3.545 6.595l2.915-.708zm-4.282-7.95C22.183 1.268 19.153.14 15.517.14v3c2.978 0 5.149.899 6.704 2.564l2.192-2.048zM15.517.14c-3.61 0-6.611.935-8.764 3.023l2.089 2.154c1.42-1.378 3.566-2.177 6.675-2.177v-3zM6.753 3.163C4.515 5.335 3.617 8.972 3.617 13.56h3c0-4.372.89-6.948 2.225-8.243l-2.09-2.154zM43.804 9.76h1.5v-1.5h-1.5v1.5zm.28 16.2-1.265.805.018.028.019.027 1.228-.86zm1.24 1.04v1.5h4.955l-4.122-2.748L45.325 27zm-6.84 0-.926-1.18-3.41 2.68h4.336V27zm1.12-.92.977 1.139.084-.073.073-.084-1.133-.982zm-2.36-12.56-1.128-.988 1.96 2.236-.831-1.248zm2.64-2.68-.967-1.146-.009.007-.009.008.986 1.131zm2.42-1.08v14.68h3V9.76h-3zm0 14.68c0 .758.082 1.645.515 2.325l2.531-1.61c.047.074.027.08 0-.067a3.722 3.722 0 0 1-.046-.648h-3zm.552 2.38c.364.52.996 1.001 1.636 1.428l1.665-2.496a7.657 7.657 0 0 1-.658-.481c-.163-.137-.2-.193-.186-.171l-2.457 1.72zm2.468-1.32h-6.84v3h6.84v-3zm-5.913 2.68c.391-.308.78-.628 1.17-.961l-1.953-2.278c-.357.307-.714.6-1.07.88l1.853 2.358zm1.327-1.118c.648-.748.886-1.682.886-2.622h-3c0 .446-.108.605-.153.658l2.267 1.964zm.886-2.622V13.92h-3v10.52h3zm0-10.52c0-.578-.131-1.291-.66-1.86-.549-.591-1.272-.76-1.88-.76v3c.043 0 .017.006-.051-.018a.696.696 0 0 1-.268-.181c-.182-.197-.14-.35-.14-.181h3zm-2.54-2.62c-.946 0-1.86.431-2.672.972l1.665 2.496c.628-.42.94-.468 1.008-.468v-3zm-.71 3.208c.9-1.03 1.732-1.872 2.496-2.537L38.9 9.71c-.89.775-1.819 1.72-2.784 2.823l2.257 1.976zm2.478-2.522c.465-.392 1.354-.726 2.953-.726v-3c-1.922 0-3.646.386-4.888 1.434l1.935 2.292zm29.764-1.106-.883 1.213.007.005.006.004.87-1.222zm-3.64 9.2.72 1.315.004-.002-.725-1.313zm-6.04 3.72-1.148-.966-2.077 2.466h3.224v-1.5zm1.88.04-.063 1.499.031.001h.032v-1.5zm7.28-.16.108 1.496h.013l.012-.002-.133-1.494zm3.4-.76 1.259.815 2.906-4.492-4.818 2.326.653 1.351zm-1.72 2.68 1.119.998.08-.09.066-.103-1.266-.805zm-3.44 1.48-.012 1.5h.011v-1.5zm-10.6-.08h-1.5v1.489l1.488.011.012-1.5zm2.72-4.92-.846-1.239-.056.038-.052.043.953 1.158zm5.16-3.6-.862-1.228-.009.006.87 1.222zm1.92-6.6-1.234.854.02.027.02.027 1.194-.908zm-5.2-.08.893 1.205.013-.01.012-.009-.918-1.186zm-1.08 3.96 1.46-.344-1.46.344zm.88 1.72-.693 1.33 1.926-2.184-1.233.854zm-2.56-1.84-1.24.845.022.033.024.031 1.194-.909zm1.4-4.92.712 1.32.01-.005-.723-1.315zm4.84.38c1.832 0 3.084.387 3.917.993l1.765-2.426c-1.514-1.1-3.461-1.567-5.683-1.567v3zm3.93 1.002c.694.494 1.17 1.336 1.17 2.898h3c0-2.225-.725-4.129-2.431-5.342l-1.739 2.444zM70.916 15c0 .05-.06.444-.884 1.214-.776.724-2.014 1.578-3.78 2.553l1.448 2.627c1.86-1.026 3.342-2.02 4.38-2.988.988-.923 1.835-2.069 1.835-3.406h-3zm-4.662 3.765c-1.808.991-3.237 1.808-4.275 2.448-.518.319-.955.603-1.3.85-.31.223-.653.488-.89.77l2.294 1.933c-.025.03.045-.05.343-.264.266-.19.638-.434 1.126-.735.975-.6 2.353-1.39 4.145-2.372l-1.443-2.63zM60.935 25.3c.592 0 1.198.013 1.818.039l.125-2.998a46.662 46.662 0 0 0-1.943-.041v3zm1.88.04h2.041v-3H62.815v3zm2.04 0c2.051 0 3.836-.054 5.35-.164l-.218-2.992c-1.42.103-3.129.156-5.131.156v3zm5.374-.166c1.56-.14 2.904-.413 3.919-.903l-1.305-2.702c-.532.257-1.454.49-2.88.617l.266 2.988zm2.007-3.069c-.589.91-1.164 1.806-1.726 2.69l2.531 1.61c.558-.876 1.13-1.767 1.714-2.67l-2.519-1.63zm-1.58 2.497c-.574.643-1.302.978-2.32.978v3c1.807 0 3.373-.652 4.559-1.982l-2.239-1.996zm-2.31.978-10.6-.08-.022 3 10.6.08.023-3zM59.237 27c0-1.206.589-2.458 2.173-3.762l-1.907-2.316c-2.043 1.682-3.267 3.711-3.267 6.078h3zm2.065-3.681a317.46 317.46 0 0 0 5.185-3.617l-1.74-2.444a315.208 315.208 0 0 1-5.136 3.583L61.3 23.32zm5.176-3.611c1.918-1.346 3.319-3.017 3.319-5.068h-3c0 .562-.387 1.451-2.042 2.612l1.723 2.456zm3.319-5.068c0-1.373-.296-2.653-1.066-3.668l-2.389 1.816c.243.319.455.878.455 1.852h3zm-1.027-3.614c-.894-1.29-2.422-1.686-3.954-1.686v3c1.136 0 1.421.298 1.487.394l2.467-1.708zM64.815 9.34c-1.238 0-2.379.485-3.398 1.274l1.837 2.372c.634-.491 1.147-.646 1.562-.646v-3zm-3.373 1.255c-1.135.842-1.846 2.005-1.846 3.445h3c0-.32.115-.65.633-1.035l-1.787-2.41zm-1.846 3.445c0 .759.057 1.457.2 2.064l2.92-.688c-.071-.3-.12-.748-.12-1.376h-3zm.2 2.064c.17.728.592 1.487 1.106 2.23l2.467-1.708c-.446-.643-.611-1.032-.653-1.21l-2.92.688zm3.032.046c-1.247-.65-1.845-1.138-2.06-1.42l-2.386 1.82c.64.838 1.748 1.577 3.06 2.26l1.386-2.66zm-2.013-1.355c-.184-.27-.34-.71-.34-1.435h-3c0 1.141.245 2.222.861 3.125l2.479-1.69zm-.34-1.435c0-.256.118-.729 1.213-1.32L60.263 9.4c-1.572.849-2.788 2.136-2.788 3.96h3zm1.222-1.325c1.098-.603 2.453-.935 4.118-.935v-3c-2.067 0-3.94.415-5.561 1.305l1.443 2.63zm26.992.005-1.183.922.004.007.005.006 1.174-.935zm-.8 12.36-1.099-1.022 1.099 1.022zm-11.12.48-1.172.937.008.01 1.164-.947zm.72-12.4 1.091 1.029-1.091-1.029zm1.8 10-1.427.462 1.427-.462zm6.64 1.4-1.216-.878 1.216.878zm-.04-9.6-1.394.554.002.007 1.392-.561zm-6.48-1.32-1.205-.895 1.205.895zm4.16-1.78c1.775 0 3.024.612 3.937 1.782l2.365-1.844C88.331 9.14 86.168 8.18 83.57 8.18v3zm3.946 1.795c1.01 1.268 1.554 2.87 1.554 4.905h3c0-2.605-.71-4.896-2.207-6.775l-2.347 1.87zm1.554 4.905c0 2.015-.727 3.831-2.279 5.498l2.197 2.044c2.022-2.173 3.082-4.704 3.082-7.542h-3zm-2.279 5.499c-1.524 1.64-3.144 2.361-4.901 2.361v3c2.722 0 5.102-1.172 7.098-3.319L86.79 23.38zm-4.901 2.361c-1.71 0-2.978-.604-3.957-1.807l-2.327 1.894c1.581 1.943 3.726 2.913 6.284 2.913v-3zm-3.95-1.797c-1.031-1.29-1.59-2.943-1.59-5.063h-3c0 2.68.72 5.027 2.248 6.937l2.343-1.874zm-1.59-5.063c0-1.99.714-3.762 2.231-5.371l-2.183-2.058c-2.002 2.124-3.048 4.618-3.048 7.429h3zm2.231-5.371c1.514-1.605 3.16-2.329 4.989-2.329v-3c-2.758 0-5.166 1.143-7.172 3.271l2.183 2.058zm-1.711 3.011c0 2.23.329 4.373.993 6.422l2.854-.924a17.719 17.719 0 0 1-.847-5.498h-3zm.993 6.422c.381 1.178 1.02 2.183 1.987 2.883.965.699 2.12.995 3.36.995v-3c-.761 0-1.259-.177-1.6-.425-.341-.247-.661-.661-.893-1.377l-2.854.924zm5.347 3.878c1.633 0 2.98-.738 3.936-2.062l-2.432-1.756c-.43.596-.898.818-1.504.818v3zm3.936-2.062c.92-1.275 1.324-2.832 1.324-4.558h-3c0 1.261-.291 2.157-.756 2.802l2.432 1.756zm1.324-4.558c0-2.329-.39-4.495-1.19-6.48l-2.782 1.12c.64 1.589.972 3.369.972 5.36h3zm-1.186-6.474c-.435-1.095-1.07-2.032-1.963-2.692-.906-.67-1.97-.974-3.111-.974v3c.591 0 1.007.15 1.328.386.333.247.672.67.957 1.388l2.789-1.108zm-5.074-3.666c-1.643 0-3.025.687-4.005 2.005l2.409 1.79c.407-.549.892-.795 1.596-.795v-3zm-4.005 2.005c-.927 1.249-1.335 2.771-1.335 4.455h3c0-1.196.284-2.047.744-2.665l-2.409-1.79zm27.372-1.185-.882 1.213.007.005.006.004.869-1.222zm-3.64 9.2.721 1.315.004-.002-.725-1.313zm-6.04 3.72-1.147-.966-2.077 2.466h3.224v-1.5zm1.88.04-.062 1.499.031.001h.031v-1.5zm7.28-.16.109 1.496h.013l.012-.002-.134-1.494zm3.4-.76 1.26.815 2.906-4.492-4.818 2.326.652 1.351zm-1.72 2.68 1.12.998.081-.09.065-.103-1.266-.805zm-3.44 1.48-.011 1.5h.011v-1.5zm-10.6-.08h-1.5v1.489l1.49.011.01-1.5zm2.72-4.92-.845-1.239-.056.038-.052.043.953 1.158zm5.16-3.6-.861-1.228-.009.006.87 1.222zm1.92-6.6-1.233.854.019.027.02.027 1.194-.908zm-5.2-.08.894 1.205.013-.01.012-.009-.919-1.186zm-1.08 3.96 1.46-.344-1.46.344zm.88 1.72-.693 1.33 1.927-2.184-1.234.854zm-2.56-1.84-1.239.845.022.033.024.031 1.193-.909zm1.4-4.92.713 1.32.01-.005-.723-1.315zm4.84.38c1.832 0 3.085.387 3.918.993l1.765-2.426c-1.514-1.1-3.461-1.567-5.683-1.567v3zm3.931 1.002c.694.494 1.169 1.336 1.169 2.898h3c0-2.225-.724-4.129-2.43-5.342l-1.739 2.444zM105.876 15c0 .05-.059.444-.883 1.214-.776.724-2.014 1.578-3.781 2.553l1.449 2.627c1.86-1.026 3.342-2.02 4.379-2.988.989-.923 1.836-2.069 1.836-3.406h-3zm-4.661 3.765c-1.808.991-3.237 1.808-4.275 2.448-.518.319-.955.603-1.3.85-.31.223-.653.488-.891.77l2.295 1.933c-.025.03.045-.05.343-.264.266-.19.638-.434 1.126-.735.975-.6 2.353-1.39 4.144-2.372l-1.442-2.63zM95.896 25.3c.592 0 1.198.013 1.818.039l.125-2.998a46.663 46.663 0 0 0-1.943-.041v3zm1.88.04H99.816v-3H97.776v3zm2.04 0c2.051 0 3.836-.054 5.349-.164l-.217-2.992c-1.42.103-3.129.156-5.132.156v3zm5.374-.166c1.559-.14 2.904-.413 3.919-.903l-1.305-2.702c-.532.257-1.454.49-2.881.617l.267 2.988zm2.007-3.069c-.589.91-1.164 1.806-1.726 2.69l2.531 1.61c.558-.876 1.129-1.767 1.714-2.67l-2.519-1.63zm-1.58 2.497c-.574.643-1.302.978-2.321.978v3c1.808 0 3.374-.652 4.56-1.982l-2.239-1.996zm-2.309.978-10.6-.08-.023 3 10.6.08.023-3zM94.196 27c0-1.206.59-2.458 2.174-3.762l-1.907-2.316c-2.043 1.682-3.267 3.711-3.267 6.078h3zm2.066-3.681a319.638 319.638 0 0 0 5.185-3.617l-1.74-2.444a314.773 314.773 0 0 1-5.136 3.583l1.691 2.478zm5.176-3.611c1.918-1.346 3.318-3.017 3.318-5.068h-3c0 .562-.386 1.451-2.041 2.612l1.723 2.456zm3.318-5.068c0-1.373-.295-2.653-1.065-3.668l-2.389 1.816c.243.319.454.878.454 1.852h3zm-1.026-3.614c-.894-1.29-2.422-1.686-3.954-1.686v3c1.136 0 1.421.298 1.487.394l2.467-1.708zM99.776 9.34c-1.238 0-2.379.485-3.398 1.274l1.837 2.372c.634-.491 1.147-.646 1.561-.646v-3zm-3.373 1.255c-1.135.842-1.847 2.005-1.847 3.445h3c0-.32.115-.65.634-1.035l-1.787-2.41zm-1.847 3.445c0 .759.058 1.457.2 2.064l2.92-.688c-.07-.3-.12-.748-.12-1.376h-3zm.2 2.064c.172.728.593 1.487 1.107 2.23l2.467-1.708c-.446-.643-.612-1.032-.653-1.21l-2.92.688zm3.033.046c-1.247-.65-1.845-1.138-2.06-1.42l-2.386 1.82c.64.838 1.748 1.577 3.06 2.26l1.386-2.66zm-2.013-1.355c-.184-.27-.34-.71-.34-1.435h-3c0 1.141.245 2.222.861 3.125l2.479-1.69zm-.34-1.435c0-.256.118-.729 1.213-1.32L95.224 9.4c-1.572.849-2.788 2.136-2.788 3.96h3zm1.222-1.325c1.098-.603 2.453-.935 4.118-.935v-3c-2.068 0-3.94.415-5.561 1.305l1.443 2.63zm25.872-1.155-.883 1.213.007.005.006.004.87-1.222zm-3.64 9.2.721 1.315.003-.002-.724-1.313zm-6.04 3.72-1.148-.966-2.077 2.466h3.225v-1.5zm1.88.04-.063 1.499.031.001h.032v-1.5zm7.28-.16.108 1.496h.013l.012-.002-.133-1.494zm3.4-.76 1.259.815 2.906-4.492-4.818 2.326.653 1.351zm-1.72 2.68 1.119.998.081-.09.065-.103-1.265-.805zm-3.44 1.48-.012 1.5h.012v-1.5zm-10.6-.08h-1.5v1.489l1.488.011.012-1.5zm2.72-4.92-.846-1.239-.056.038-.052.043.954 1.158zm5.16-3.6-.862-1.228-.009.006.871 1.222zm1.92-6.6-1.234.854.019.027.02.027 1.195-.908zm-5.2-.08.893 1.205.013-.01.012-.009-.918-1.186zm-1.08 3.96 1.46-.344-1.46.344zm.88 1.72-.693 1.33 1.926-2.184-1.233.854zm-2.56-1.84-1.24.845.022.033.024.031 1.194-.909zm1.4-4.92.712 1.32.009-.005-.721-1.315zm4.84.38c1.832 0 3.084.387 3.917.993l1.765-2.426c-1.514-1.1-3.461-1.567-5.682-1.567v3zm3.93 1.002c.694.494 1.17 1.336 1.17 2.898h3c0-2.225-.725-4.129-2.431-5.342l-1.739 2.444zM122.83 15c0 .05-.06.444-.884 1.214-.776.724-2.014 1.578-3.781 2.553l1.449 2.627c1.86-1.026 3.342-2.02 4.379-2.988.989-.923 1.837-2.069 1.837-3.406h-3zm-4.661 3.765c-1.809.991-3.238 1.808-4.276 2.448-.518.319-.955.603-1.299.85-.312.223-.654.488-.892.77l2.295 1.933c-.025.03.045-.05.343-.264.266-.19.638-.434 1.126-.735.975-.6 2.353-1.39 4.145-2.372l-1.442-2.63zM112.85 25.3c.591 0 1.197.013 1.817.039l.125-2.998a46.647 46.647 0 0 0-1.942-.041v3zm1.88.04H116.77v-3h-2.04v3zm2.04 0c2.05 0 3.835-.054 5.348-.164l-.217-2.992c-1.42.103-3.129.156-5.131.156v3zm5.373-.166c1.56-.14 2.904-.413 3.919-.903l-1.305-2.702c-.532.257-1.454.49-2.881.617l.267 2.988zm2.007-3.069a449.71 449.71 0 0 0-1.726 2.69l2.531 1.61c.558-.876 1.129-1.767 1.714-2.67l-2.519-1.63zm-1.58 2.497c-.574.643-1.301.978-2.32.978v3c1.807 0 3.373-.652 4.559-1.982l-2.239-1.996zm-2.309.978-10.6-.08-.023 3 10.6.08.023-3zM111.15 27c0-1.206.589-2.458 2.173-3.762l-1.907-2.316c-2.043 1.682-3.266 3.711-3.266 6.078h3zm2.065-3.681a317.892 317.892 0 0 0 5.185-3.617l-1.741-2.444a314.343 314.343 0 0 1-5.135 3.583l1.691 2.478zm5.176-3.611c1.918-1.346 3.319-3.017 3.319-5.068h-3c0 .562-.387 1.451-2.042 2.612l1.723 2.456zm3.319-5.068c0-1.373-.295-2.653-1.066-3.668l-2.389 1.816c.243.319.455.878.455 1.852h3zm-1.027-3.614c-.894-1.29-2.422-1.686-3.953-1.686v3c1.135 0 1.42.298 1.486.394l2.467-1.708zM116.73 9.34c-1.239 0-2.38.485-3.399 1.274l1.837 2.372c.634-.491 1.147-.646 1.562-.646v-3zm-3.374 1.255c-1.135.842-1.846 2.005-1.846 3.445h3c0-.32.115-.65.633-1.035l-1.787-2.41zm-1.846 3.445c0 .759.057 1.457.199 2.064l2.921-.688c-.071-.3-.12-.748-.12-1.376h-3zm.199 2.064c.172.728.593 1.487 1.107 2.23l2.467-1.708c-.446-.643-.611-1.032-.653-1.21l-2.921.688zm3.033.046c-1.247-.65-1.845-1.138-2.059-1.42l-2.387 1.82c.64.838 1.748 1.577 3.061 2.26l1.385-2.66zm-2.013-1.355c-.184-.27-.339-.71-.339-1.435h-3c0 1.141.244 2.222.86 3.125l2.479-1.69zm-.339-1.435c0-.256.117-.729 1.212-1.32l-1.425-2.64c-1.572.849-2.787 2.136-2.787 3.96h3zm1.221-1.325c1.098-.603 2.453-.935 4.119-.935v-3c-2.068 0-3.94.415-5.562 1.305l1.443 2.63z" fill="#764E01"/>
    <defs>
        <linearGradient id="d46mmbexla" x1="62.894" y1="6.778" x2="62.624" y2="32.886" gradientUnits="userSpaceOnUse">
            <stop stop-color="#FFD600"/>
            <stop offset="1" stop-color="#B9750E"/>
        </linearGradient>
    </defs>
</svg>
