<svg width="138" height="44" viewBox="0 0 138 44" fill="none" xmlns="http://www.w3.org/2000/svg">
    <path fill-rule="evenodd" clip-rule="evenodd" d="M20.486 2.395c4.606.23 8.18 1.592 10.72 4.085 2.827 2.72 4.24 6.533 4.24 11.44 0 3.6-.666 6.693-2 9.28-1.466 1.92-2.92 3.84-4.36 5.76l1.04 1.92c.96 1.467 2.2 2.747 3.72 3.84 1.092.772 2.337 1.272 3.735 1.498.582.095 1.19.142 1.825.142 1.226 0 2.17-.146 2.834-.438.003 0 .006-.002.008-.003.084-.037.163-.077.238-.119.667-.373 1.4-1.093 2.2-2.16 0 1.033-.631 1.936-1.893 2.707-.074.045-.15.09-.227.133-.918.537-1.971.9-3.16 1.088a12.958 12.958 0 0 1-2.04.152c-2.773 0-4.986-.693-6.64-2.08-1.55-1.296-3.028-2.968-4.434-5.016-.069-.1-.137-.202-.206-.304a5.531 5.531 0 0 1-.108.053c-.74.35-1.771.639-3.092.867l-.16.031-.032.006a21.45 21.45 0 0 1-3.968.363c-.653 0-1.286-.02-1.9-.057-4.647-.292-8.16-1.686-10.54-4.183-2.666-2.827-4-6.533-4-11.12 0-6 1.534-10.48 4.6-13.44A15.375 15.375 0 0 1 8.91 5.192c2.442-1.663 5.354-2.593 8.737-2.792.458-.026.925-.04 1.4-.04.491 0 .971.012 1.44.035zM9.71 6.462c-1.642 1.771-2.463 4.804-2.463 9.098 0 5.803 1.105 10.318 3.315 13.546.097.14.195.278.295.414l.03.04c1.781 2.388 3.842 3.899 6.183 4.534.538.146 1.09.246 1.657.3.329.03.662.046 1 .046.827 0 1.76-.093 2.8-.28l.144-.022.025-.004a12.65 12.65 0 0 0 1.41-.312c.49-.139.964-.306 1.421-.502a31.663 31.663 0 0 0-.664-1.348 27.515 27.515 0 0 0-3.696-5.412c-1.253-1.446-2.493-2.37-3.718-2.77a4.861 4.861 0 0 0-.402-.113 4.374 4.374 0 0 0-1-.117c-.619 0-1.145.069-1.577.205a2.715 2.715 0 0 0-.543.235c-.48.267-.933.653-1.36 1.16.102-.816.415-1.445.94-1.887l.01-.01c.159-.13.335-.245.53-.343a6.084 6.084 0 0 1 2-.581c.32-.04.654-.059 1-.059a9.4 9.4 0 0 1 .677.024c2.149.155 4.056 1.053 5.723 2.696 1.504 1.44 2.791 3.12 3.862 5.044.259.465.505.943.738 1.436.384-.395.717-.85 1-1.364.387-.7.68-1.513.88-2.436.347-1.6.52-3.293.52-5.08 0-2.933-.36-5.813-1.08-8.64-.693-2.853-2-5.28-3.92-7.28-1.352-1.447-3.065-2.378-5.138-2.792a12.498 12.498 0 0 0-1.262-.183 14.774 14.774 0 0 0-1.4-.065c-3.36 0-5.933.867-7.72 2.6a5.873 5.873 0 0 0-.217.222zm18.43 22.028c.125-.342.232-.717.321-1.127.322-1.487.486-3.073.486-4.763 0-2.81-.344-5.565-1.033-8.27l-.002-.008-.002-.008c-.635-2.611-1.82-4.798-3.545-6.595l-.007-.007-.007-.008C22.795 6.04 20.624 5.14 17.646 5.14c-3.11 0-5.255.799-6.675 2.177-1.335 1.295-2.225 3.871-2.225 8.243 0 4.676.742 8.345 2.12 11.106l.212-1.692c.186-1.49.933-2.713 2.297-3.396 1.1-.55 2.338-.798 3.671-.798 2.845 0 5.346 1.079 7.445 3.144a22.442 22.442 0 0 1 3.648 4.566zm-16.286-.154c.077.111.156.22.236.327 2.198 2.947 4.729 4.277 7.637 4.277.718 0 1.56-.081 2.535-.256l.021-.004.022-.003c.383-.058.755-.133 1.115-.224a25.943 25.943 0 0 0-3.38-4.903l-.006-.008c-1.611-1.858-2.94-2.482-3.987-2.482-.775 0-1.182.13-1.368.238l-.012.007-.011.006c-.292.162-.609.42-.941.815l-1.861 2.21zM5.845 5.761C9.264 2.46 13.714.86 19.046.86c5.555 0 10.038 1.44 13.206 4.543 3.187 3.07 4.694 7.313 4.694 12.516 0 3.783-.7 7.124-2.166 9.967l-.061.118-.08.106a816.822 816.822 0 0 0-3.776 4.98l.552 1.018c.846 1.28 1.942 2.41 3.302 3.39 1.258.887 2.797 1.361 4.69 1.361 1.308 0 2.02-.186 2.346-.369.396-.221.979-.745 1.733-1.75l2.7-3.6v4.5c0 1.866-1.243 3.215-2.872 4.14-1.692.987-3.7 1.44-5.948 1.44-3.023 0-5.61-.76-7.603-2.431-1.495-1.25-2.902-2.802-4.23-4.638-.7.226-1.498.41-2.375.563-1.451.284-2.93.425-4.432.425-5.83 0-10.445-1.472-13.526-4.705l-.005-.006C2.22 29.275.786 25.176.786 20.28c0-6.238 1.596-11.177 5.059-14.52zm41.945 5.88c1.534.127 2.782.54 3.743 1.24 1.2.852 1.8 2.226 1.8 4.12 0 1.386-1.813 3.08-5.44 5.08a108.456 108.456 0 0 0-4.1 2.342l-.06.036c-1.036.637-1.663 1.084-1.88 1.341.614 0 1.24.013 1.88.04h2.04c2.027 0 3.774-.053 5.24-.16.439-.039.846-.088 1.222-.148.906-.144 1.632-.348 2.178-.612a434.398 434.398 0 0 0-1.72 2.68c-.88.987-2.026 1.48-3.44 1.48l-10.6-.08.001-.08a5.104 5.104 0 0 1 .288-1.62c.092-.262.205-.52.34-.775.453-.855 1.15-1.67 2.091-2.445a316.74 316.74 0 0 0 5.16-3.6c1.787-1.253 2.68-2.533 2.68-3.84 0-1.173-.253-2.093-.76-2.76-.23-.332-.557-.585-.983-.758a3.562 3.562 0 0 0-.737-.204 5.89 5.89 0 0 0-1-.078c-.756 0-1.512.268-2.268.803a6.27 6.27 0 0 0-.212.157c-.826.613-1.24 1.36-1.24 2.24 0 .392.018.745.052 1.06.026.243.062.463.108.66.107.453.4 1.027.88 1.72-.965-.503-1.687-.975-2.167-1.417a3.835 3.835 0 0 1-.23-.229 2.796 2.796 0 0 1-.163-.194c-.4-.587-.6-1.347-.6-2.28 0-1.04.667-1.92 2-2.64.278-.152.566-.289.864-.41.897-.364 1.89-.588 2.976-.672a12.983 12.983 0 0 1 2.057.004zm3.102 12.544c1.42-.128 2.339-.36 2.87-.616l4.817-2.325-2.906 4.491c-.585.904-1.156 1.794-1.714 2.67l-.065.103-.081.09c-1.186 1.33-2.752 1.982-4.56 1.982h-.01l-12.09-.091V29c0-2.367 1.224-4.396 3.267-6.078l.052-.043.056-.038a314.773 314.773 0 0 0 5.135-3.583l.009-.006c1.655-1.16 2.041-2.05 2.041-2.612 0-.974-.211-1.533-.454-1.852l-.02-.027-.019-.027c-.066-.096-.351-.394-1.487-.394-.414 0-.927.155-1.561.646l-.012.01-.013.009c-.519.385-.634.715-.634 1.035 0 .628.05 1.076.12 1.377.042.178.208.566.654 1.21L42.36 20.81c-1.313-.684-2.421-1.423-3.06-2.262l-.025-.031-.022-.033c-.616-.903-.86-1.984-.86-3.125 0-1.822 1.213-3.109 2.782-3.957 1.621-.89 3.491-1.303 5.557-1.303 2.219 0 4.164.465 5.676 1.562 1.702 1.214 2.424 3.116 2.424 5.338 0 1.338-.847 2.483-1.836 3.406-1.037.969-2.52 1.962-4.38 2.988l-.002.002c-.612.335-1.175.648-1.691.938a65.715 65.715 0 0 0 3.968-.149zm23.85-12.543c1.535.126 2.783.539 3.745 1.238 1.2.853 1.8 2.227 1.8 4.12 0 1.387-1.814 3.08-5.44 5.08a108.286 108.286 0 0 0-4.16 2.38c-1.037.636-1.664 1.083-1.88 1.34.613 0 1.24.013 1.88.04h2.04c2.026 0 3.773-.053 5.24-.16.438-.039.845-.088 1.221-.148.906-.144 1.632-.348 2.179-.612a425.974 425.974 0 0 0-1.72 2.68c-.88.987-2.027 1.48-3.44 1.48l-10.6-.08v-.08a5.102 5.102 0 0 1 .288-1.62 5.61 5.61 0 0 1 .34-.775c.453-.855 1.15-1.67 2.092-2.445a316.74 316.74 0 0 0 5.16-3.6c1.786-1.253 2.68-2.533 2.68-3.84 0-1.173-.254-2.093-.76-2.76-.23-.332-.558-.585-.984-.758a3.563 3.563 0 0 0-.736-.204 5.89 5.89 0 0 0-1-.078c-.757 0-1.513.268-2.269.803a6.27 6.27 0 0 0-.211.157c-.827.613-1.24 1.36-1.24 2.24 0 .392.017.745.05 1.06.027.243.063.463.11.66.106.453.4 1.027.88 1.72-.966-.503-1.688-.975-2.168-1.417a3.835 3.835 0 0 1-.23-.229 2.822 2.822 0 0 1-.162-.194c-.4-.587-.6-1.347-.6-2.28 0-1.04.666-1.92 2-2.64.277-.152.565-.289.863-.41.897-.364 1.89-.588 2.977-.672a12.979 12.979 0 0 1 2.056.004zm-6.613-.24c1.62-.888 3.491-1.302 5.558-1.302 2.218 0 4.163.465 5.675 1.562 1.702 1.214 2.425 3.116 2.425 5.338 0 .223-.024.441-.068.653.494-1.525 1.35-2.93 2.55-4.202 2.006-2.128 4.413-3.27 7.17-3.27 2.596 0 4.759.959 6.299 2.93 1.493 1.878 2.202 4.167 2.202 6.77 0 2.837-1.06 5.367-3.082 7.54-1.996 2.148-4.376 3.32-7.098 3.32-2.558 0-4.703-.97-6.284-2.914l-.008-.01a9.75 9.75 0 0 1-1.091-1.697c-.498.772-.986 1.534-1.465 2.285l-.065.103-.081.09c-1.186 1.33-2.752 1.982-4.56 1.982h-.01l-12.09-.091V29c0-2.367 1.224-4.396 3.267-6.078l.052-.043.056-.038a315.208 315.208 0 0 0 5.136-3.583l.008-.006c1.655-1.16 2.042-2.05 2.042-2.612 0-.974-.212-1.533-.455-1.852l-.02-.027-.019-.027c-.066-.096-.351-.394-1.486-.394-.415 0-.928.155-1.562.646l-.012.01-.013.009c-.518.385-.633.715-.633 1.035 0 .628.049 1.076.12 1.377.042.178.207.566.653 1.21l-1.926 2.184c-1.313-.684-2.421-1.423-3.06-2.262l-.025-.031-.022-.033c-.616-.903-.86-1.984-.86-3.125 0-1.822 1.213-3.108 2.782-3.957zM82.83 22.548c.103.733.276 1.422.52 2.067a8.304 8.304 0 0 0 1.289 2.266c1.28 1.573 2.986 2.36 5.12 2.36 2.24 0 4.24-.947 6-2.84 1.786-1.92 2.68-4.093 2.68-6.52 0-2.32-.627-4.267-1.88-5.84-1.227-1.573-2.934-2.36-5.12-2.36-2.294 0-4.32.933-6.08 2.8-1.76 1.867-2.64 4-2.64 6.4 0 .58.037 1.135.111 1.667zm-1.41.68-.707.342c-.53.257-1.449.488-2.869.616a65.712 65.712 0 0 1-3.968.149c.516-.29 1.079-.603 1.69-.939l.004-.001c1.86-1.026 3.342-2.019 4.38-2.988.679-.634 1.292-1.374 1.609-2.209-.226.858-.34 1.754-.34 2.683 0 .814.066 1.598.202 2.348zm10.947-6.386-.002-.007c-.286-.718-.625-1.141-.958-1.388-.32-.237-.737-.386-1.328-.386-.704 0-1.189.246-1.596.795-.46.618-.744 1.47-.744 2.665 0 1.93.284 3.76.847 5.498.232.716.552 1.13.893 1.377.341.248.839.425 1.6.425.606 0 1.073-.222 1.504-.818.465-.645.756-1.54.756-2.802 0-1.991-.332-3.771-.972-5.36zm16.08 3.64c1.786-1.254 2.68-2.534 2.68-3.84 0-1.174-.254-2.094-.76-2.76-.23-.333-.558-.585-.984-.758a3.556 3.556 0 0 0-.736-.205 5.899 5.899 0 0 0-1-.078c-.757 0-1.513.268-2.269.803-.07.05-.141.102-.211.157-.827.613-1.24 1.36-1.24 2.24 0 .392.017.745.051 1.06.026.243.062.463.109.66.106.453.4 1.027.88 1.72-.966-.503-1.688-.975-2.168-1.417a3.771 3.771 0 0 1-.229-.229 2.585 2.585 0 0 1-.163-.194c-.4-.587-.6-1.347-.6-2.28 0-1.04.666-1.92 2-2.64.277-.152.565-.289.863-.41.897-.364 1.889-.588 2.977-.672a12.962 12.962 0 0 1 2.056.004c1.534.126 2.782.539 3.744 1.238 1.2.853 1.8 2.227 1.8 4.12 0 1.387-1.814 3.08-5.44 5.08-1.659.909-2.98 1.662-3.965 2.26l-.136.083-.059.036c-1.037.637-1.664 1.084-1.88 1.341.613 0 1.24.013 1.88.04h2.04c2.026 0 3.773-.053 5.24-.16.438-.039.845-.088 1.221-.148.906-.144 1.632-.348 2.179-.612a374.723 374.723 0 0 0-1.72 2.68c-.88.987-2.027 1.48-3.44 1.48l-10.6-.08v-.08a5.124 5.124 0 0 1 .288-1.62 5.67 5.67 0 0 1 .34-.775c.453-.855 1.15-1.67 2.092-2.445a316.74 316.74 0 0 0 5.16-3.6zm7.637 7.592-.212.332-.065.103-.081.09c-1.186 1.33-2.752 1.982-4.559 1.982h-.012l-12.089-.091V29c0-2.367 1.224-4.396 3.267-6.078l.052-.043.056-.038a314.343 314.343 0 0 0 5.135-3.583l.009-.006c1.655-1.16 2.042-2.05 2.042-2.612 0-.974-.212-1.533-.455-1.852l-.02-.027-.019-.027c-.066-.096-.351-.394-1.486-.394-.415 0-.928.155-1.562.646l-.012.01-.013.009c-.519.385-.633.715-.633 1.035 0 .628.049 1.076.12 1.377.042.178.207.566.653 1.21l-1.926 2.184c-1.313-.684-2.421-1.423-3.061-2.262l-.024-.031-.022-.033c-.616-.903-.86-1.984-.86-3.125 0-1.822 1.213-3.108 2.782-3.957 1.621-.889 3.491-1.303 5.558-1.303 2.218 0 4.163.465 5.675 1.562 1.702 1.214 2.425 3.116 2.425 5.338 0 1.338-.848 2.483-1.837 3.406-1.037.969-2.519 1.962-4.379 2.988l-.003.002c-.612.335-1.175.648-1.691.938a65.71 65.71 0 0 0 3.968-.149c1.42-.128 2.339-.36 2.869-.616L120 21.5h.5l.541 1M87.16 24.48a19.22 19.22 0 0 1-.92-5.96c0-1.44.346-2.627 1.04-3.56.693-.933 1.626-1.4 2.8-1.4 1.733 0 2.96.907 3.68 2.72.72 1.787 1.08 3.76 1.08 5.92 0 1.493-.347 2.72-1.04 3.68-.694.96-1.6 1.44-2.72 1.44-2 0-3.307-.947-3.92-2.84z" fill="#764E01"/>
    <path fill-rule="evenodd" clip-rule="evenodd" d="M125.38 20.38c1.787-1.253 2.68-2.533 2.68-3.84 0-1.173-.253-2.093-.76-2.76-.23-.332-.558-.585-.983-.758a3.566 3.566 0 0 0-.737-.204 5.89 5.89 0 0 0-1-.078c-.756 0-1.512.268-2.268.803-.071.05-.141.102-.212.157-.827.613-1.24 1.36-1.24 2.24 0 .392.017.745.051 1.06.026.243.063.463.109.66.107.453.4 1.027.88 1.72-.965-.503-1.688-.975-2.168-1.417a4.05 4.05 0 0 1-.229-.229 2.823 2.823 0 0 1-.163-.194c-.4-.587-.6-1.347-.6-2.28 0-1.04.667-1.92 2-2.64.277-.152.565-.289.863-.41.897-.365 1.89-.589 2.977-.672a12.98 12.98 0 0 1 2.056.004c1.535.126 2.783.539 3.744 1.238 1.2.853 1.8 2.227 1.8 4.12 0 1.387-1.813 3.08-5.44 5.08-1.658.909-2.98 1.662-3.965 2.26l-.136.083-.059.036c-1.036.637-1.663 1.083-1.88 1.341.613 0 1.24.013 1.88.04h2.04c2.027 0 3.773-.053 5.24-.16.438-.04.845-.089 1.222-.148.905-.144 1.632-.348 2.178-.612a446.8 446.8 0 0 0-1.72 2.68c-.88.987-2.027 1.48-3.44 1.48l-10.6-.08.001-.08a5.087 5.087 0 0 1 .288-1.62 5.55 5.55 0 0 1 .34-.775c.452-.855 1.15-1.67 2.091-2.445a316.74 316.74 0 0 0 5.16-3.6zm7.637 7.593-.212.332-.065.103-.081.09c-1.186 1.33-2.751 1.982-4.559 1.982h-.011L116 30.389V28.9c0-2.367 1.224-4.396 3.266-6.078l.053-.043.055-.038a310.071 310.071 0 0 0 5.136-3.583l.009-.006c1.655-1.161 2.041-2.05 2.041-2.612 0-.974-.212-1.533-.454-1.852l-.02-.027-.019-.027c-.066-.096-.352-.394-1.487-.394-.415 0-.927.155-1.562.646l-.012.01-.012.009c-.519.385-.634.715-.634 1.035 0 .628.049 1.076.12 1.376.042.178.208.567.653 1.21l-1.926 2.184c-1.312-.683-2.421-1.422-3.06-2.26l-.024-.032-.022-.033c-.616-.903-.861-1.984-.861-3.125 0-1.822 1.213-3.109 2.782-3.957 1.621-.89 3.492-1.303 5.558-1.303 2.218 0 4.163.465 5.676 1.562 1.702 1.214 2.424 3.116 2.424 5.338 0 1.338-.848 2.483-1.836 3.406-1.037.969-2.52 1.962-4.38 2.988l-.003.001c-.612.336-1.175.648-1.691.939a65.624 65.624 0 0 0 3.969-.15c1.42-.127 2.338-.359 2.869-.615l4.324-2.07h.5l.541 1" fill="#764E01"/>
    <path d="M18.96 2.3c5.307 0 9.36 1.373 12.16 4.12 2.827 2.72 4.24 6.533 4.24 11.44 0 3.6-.667 6.693-2 9.28-1.467 1.92-2.92 3.84-4.36 5.76l1.04 1.92c.96 1.467 2.2 2.747 3.72 3.84 1.547 1.093 3.4 1.64 5.56 1.64 1.387 0 2.413-.187 3.08-.56.667-.373 1.4-1.093 2.2-2.16 0 1.093-.707 2.04-2.12 2.84-1.413.827-3.147 1.24-5.2 1.24-2.773 0-4.987-.693-6.64-2.08-1.627-1.36-3.173-3.133-4.64-5.32-.747.373-1.813.68-3.2.92-1.36.267-2.747.4-4.16.4-5.6 0-9.747-1.413-12.44-4.24-2.667-2.827-4-6.533-4-11.12 0-6 1.533-10.48 4.6-13.44C9.893 3.793 13.947 2.3 18.96 2.3zM7.16 15.5c0 6.08 1.213 10.747 3.64 14s5.373 4.88 8.84 4.88c.827 0 1.76-.093 2.8-.28a12.16 12.16 0 0 0 3-.84c-1.173-2.533-2.627-4.787-4.36-6.76-1.733-2-3.44-3-5.12-3-.907 0-1.613.147-2.12.44-.48.267-.933.653-1.36 1.16.133-1.067.627-1.813 1.48-2.24.853-.427 1.853-.64 3-.64 2.427 0 4.56.907 6.4 2.72 1.867 1.787 3.4 3.947 4.6 6.48.907-.933 1.533-2.2 1.88-3.8.347-1.6.52-3.293.52-5.08 0-2.933-.36-5.813-1.08-8.64-.693-2.853-2-5.28-3.92-7.28-1.893-2.027-4.493-3.04-7.8-3.04-3.36 0-5.933.867-7.72 2.6s-2.68 4.84-2.68 9.32z" fill="url(#gblny27xja)"/>
    <path d="M46.647 11.54c2.027 0 3.627.427 4.8 1.28 1.2.853 1.8 2.227 1.8 4.12 0 1.387-1.813 3.08-5.44 5.08-3.6 1.973-5.613 3.213-6.04 3.72.613 0 1.24.013 1.88.04h2.04c2.027 0 3.774-.053 5.24-.16 1.493-.133 2.627-.387 3.4-.76-.587.907-1.16 1.8-1.72 2.68-.88.987-2.026 1.48-3.44 1.48l-10.6-.08c0-1.787.907-3.427 2.72-4.92 1.68-1.147 3.4-2.347 5.16-3.6 1.787-1.253 2.68-2.533 2.68-3.84 0-1.173-.253-2.093-.76-2.76-.48-.693-1.386-1.04-2.72-1.04-.826 0-1.653.32-2.48.96-.827.613-1.24 1.36-1.24 2.24 0 .693.053 1.267.16 1.72.107.453.4 1.027.88 1.72-1.28-.667-2.133-1.28-2.56-1.84-.4-.587-.6-1.347-.6-2.28 0-1.04.667-1.92 2-2.64 1.36-.747 2.974-1.12 4.84-1.12z" fill="url(#ti3c8hwrjb)"/>
    <path d="M73.6 11.54c2.027 0 3.627.427 4.8 1.28 1.2.853 1.8 2.227 1.8 4.12 0 1.387-1.813 3.08-5.44 5.08-3.6 1.973-5.613 3.213-6.04 3.72.614 0 1.24.013 1.88.04h2.04c2.027 0 3.774-.053 5.24-.16 1.494-.133 2.627-.387 3.4-.76-.586.907-1.16 1.8-1.72 2.68-.88.987-2.026 1.48-3.44 1.48l-10.6-.08c0-1.787.907-3.427 2.72-4.92 1.68-1.147 3.4-2.347 5.16-3.6 1.787-1.253 2.68-2.533 2.68-3.84 0-1.173-.253-2.093-.76-2.76-.48-.693-1.386-1.04-2.72-1.04-.826 0-1.653.32-2.48.96-.826.613-1.24 1.36-1.24 2.24 0 .693.054 1.267.16 1.72.107.453.4 1.027.88 1.72-1.28-.667-2.133-1.28-2.56-1.84-.4-.587-.6-1.347-.6-2.28 0-1.04.667-1.92 2-2.64 1.36-.747 2.974-1.12 4.84-1.12z" fill="url(#6tx3l0xdpc)"/>
    <path d="M91.353 11.62c2.187 0 3.894.787 5.12 2.36 1.254 1.573 1.88 3.52 1.88 5.84 0 2.427-.893 4.6-2.68 6.52-1.76 1.893-3.76 2.84-6 2.84-2.133 0-3.84-.787-5.12-2.36-1.28-1.6-1.92-3.6-1.92-6s.88-4.533 2.64-6.4c1.76-1.867 3.787-2.8 6.08-2.8zm-5.2 6.84c0 2.08.307 4.067.92 5.96.614 1.893 1.92 2.84 3.92 2.84 1.12 0 2.027-.48 2.72-1.44.694-.96 1.04-2.187 1.04-3.68 0-2.16-.36-4.133-1.08-5.92-.72-1.813-1.946-2.72-3.68-2.72-1.173 0-2.106.467-2.8 1.4-.693.933-1.04 2.12-1.04 3.56z" fill="url(#hoshjdkz2d)"/>
    <path d="M108.561 11.54c2.027 0 3.627.427 4.8 1.28 1.2.853 1.8 2.227 1.8 4.12 0 1.387-1.813 3.08-5.44 5.08-3.6 1.973-5.613 3.213-6.04 3.72.614 0 1.24.013 1.88.04h2.04c2.027 0 3.774-.053 5.24-.16 1.494-.133 2.627-.387 3.4-.76-.586.907-1.16 1.8-1.72 2.68-.88.987-2.026 1.48-3.44 1.48l-10.6-.08c0-1.787.907-3.427 2.72-4.92 1.68-1.147 3.4-2.347 5.16-3.6 1.787-1.253 2.68-2.533 2.68-3.84 0-1.173-.253-2.093-.76-2.76-.48-.693-1.386-1.04-2.72-1.04-.826 0-1.653.32-2.48.96-.826.613-1.24 1.36-1.24 2.24 0 .693.054 1.267.16 1.72.107.453.4 1.027.88 1.72-1.28-.667-2.133-1.28-2.56-1.84-.4-.587-.6-1.347-.6-2.28 0-1.04.667-1.92 2-2.64 1.36-.747 2.974-1.12 4.84-1.12z" fill="url(#l2e6c225ce)"/>
    <path d="M125.514 11.54c2.027 0 3.627.427 4.8 1.28 1.2.853 1.8 2.227 1.8 4.12 0 1.387-1.813 3.08-5.44 5.08-3.6 1.973-5.613 3.213-6.04 3.72.614 0 1.24.013 1.88.04h2.04c2.027 0 3.774-.053 5.24-.16 1.494-.133 2.627-.387 3.4-.76-.586.907-1.16 1.8-1.72 2.68-.88.987-2.026 1.48-3.44 1.48l-10.6-.08c0-1.787.907-3.427 2.72-4.92 1.68-1.147 3.4-2.347 5.16-3.6 1.787-1.253 2.68-2.533 2.68-3.84 0-1.173-.253-2.093-.76-2.76-.48-.693-1.386-1.04-2.72-1.04-.826 0-1.653.32-2.48.96-.826.613-1.24 1.36-1.24 2.24 0 .693.054 1.267.16 1.72.107.453.4 1.027.88 1.72-1.28-.667-2.133-1.28-2.56-1.84-.4-.587-.6-1.347-.6-2.28 0-1.04.667-1.92 2-2.64 1.36-.747 2.974-1.12 4.84-1.12z" fill="url(#2ijhjihepf)"/>
    <defs>
        <linearGradient id="gblny27xja" x1="67.827" y1="8.718" x2="67.568" y2="34.826" gradientUnits="userSpaceOnUse">
            <stop stop-color="#FFD600"/>
            <stop offset="1" stop-color="#B9750E"/>
        </linearGradient>
        <linearGradient id="ti3c8hwrjb" x1="67.827" y1="8.718" x2="67.568" y2="34.826" gradientUnits="userSpaceOnUse">
            <stop stop-color="#FFD600"/>
            <stop offset="1" stop-color="#B9750E"/>
        </linearGradient>
        <linearGradient id="6tx3l0xdpc" x1="67.827" y1="8.718" x2="67.568" y2="34.826" gradientUnits="userSpaceOnUse">
            <stop stop-color="#FFD600"/>
            <stop offset="1" stop-color="#B9750E"/>
        </linearGradient>
        <linearGradient id="hoshjdkz2d" x1="67.827" y1="8.718" x2="67.568" y2="34.826" gradientUnits="userSpaceOnUse">
            <stop stop-color="#FFD600"/>
            <stop offset="1" stop-color="#B9750E"/>
        </linearGradient>
        <linearGradient id="l2e6c225ce" x1="67.827" y1="8.718" x2="67.568" y2="34.826" gradientUnits="userSpaceOnUse">
            <stop stop-color="#FFD600"/>
            <stop offset="1" stop-color="#B9750E"/>
        </linearGradient>
        <linearGradient id="2ijhjihepf" x1="67.827" y1="8.718" x2="67.568" y2="34.826" gradientUnits="userSpaceOnUse">
            <stop stop-color="#FFD600"/>
            <stop offset="1" stop-color="#B9750E"/>
        </linearGradient>
    </defs>
</svg>
