<svg width="138" height="44" viewBox="0 0 138 44" fill="none" xmlns="http://www.w3.org/2000/svg">
    <path d="M19.046 2.36c5.307 0 9.36 1.373 12.16 4.12 2.827 2.72 4.24 6.533 4.24 11.44 0 3.6-.666 6.693-2 9.28-1.466 1.92-2.92 3.84-4.36 5.76l1.04 1.92c.96 1.467 2.2 2.747 3.72 3.84 1.547 1.093 3.4 1.64 5.56 1.64 1.387 0 2.414-.187 3.08-.56.667-.373 1.4-1.093 2.2-2.16 0 1.093-.706 2.04-2.12 2.84-1.413.827-3.146 1.24-5.2 1.24-2.773 0-4.986-.693-6.64-2.08-1.626-1.36-3.173-3.133-4.64-5.32-.746.373-1.813.68-3.2.92-1.36.267-2.746.4-4.16.4-5.6 0-9.746-1.413-12.44-4.24-2.666-2.827-4-6.533-4-11.12 0-6 1.534-10.48 4.6-13.44 3.094-2.987 7.147-4.48 12.16-4.48zm-11.8 13.2c0 6.08 1.214 10.747 3.64 14 2.427 3.253 5.374 4.88 8.84 4.88.827 0 1.76-.093 2.8-.28 1.067-.16 2.067-.44 3-.84-1.173-2.533-2.626-4.787-4.36-6.76-1.733-2-3.44-3-5.12-3-.906 0-1.613.147-2.12.44-.48.267-.933.653-1.36 1.16.134-1.067.627-1.813 1.48-2.24.854-.427 1.854-.64 3-.64 2.427 0 4.56.907 6.4 2.72 1.867 1.787 3.4 3.947 4.6 6.48.907-.933 1.534-2.2 1.88-3.8.347-1.6.52-3.293.52-5.08 0-2.933-.36-5.813-1.08-8.64-.693-2.853-2-5.28-3.92-7.28-1.893-2.027-4.493-3.04-7.8-3.04-3.36 0-5.933.867-7.72 2.6-1.786 1.733-2.68 4.84-2.68 9.32z" fill="url(#7mjfyuexga)"/>
    <path d="M46.413 11.88h7.08c-.64 2.16-1.933 4.067-3.88 5.72-1.92 1.653-3.226 2.907-3.92 3.76.72-.16 1.387-.24 2-.24 1.92 0 3.387.747 4.4 2.24 1.014 1.467 1.52 3.32 1.52 5.56 0 1.973-.906 3.96-2.72 5.96-1.813 2-3.973 3-6.48 3-2.373 0-3.986-.493-4.84-1.48-.826-.987-1.24-2.453-1.24-4.4.854 1.147 1.72 2.307 2.6 3.48 1.12.933 2.387 1.4 3.8 1.4 1.787 0 3.08-.693 3.88-2.08.827-1.387 1.24-2.947 1.24-4.68 0-2.213-.36-3.987-1.08-5.32-.693-1.36-1.893-2.04-3.6-2.04-.826 0-1.826.2-3 .6.72-.96 2.054-2.333 4-4.12 1.947-1.787 3.254-3.227 3.92-4.32h-6.04c-1.12 0-1.906.08-2.36.24-.453.16-1.133.453-2.04.88.454-1.413 1.28-2.453 2.48-3.12 1.227-.693 2.654-1.04 4.28-1.04z" fill="url(#hs2bja32nb)"/>
    <path d="M73.687 11.6c2.026 0 3.626.427 4.8 1.28 1.2.853 1.8 2.227 1.8 4.12 0 1.387-1.814 3.08-5.44 5.08-3.6 1.973-5.614 3.213-6.04 3.72.613 0 1.24.013 1.88.04h2.04c2.026 0 3.773-.053 5.24-.16 1.493-.133 2.626-.387 3.4-.76-.587.907-1.16 1.8-1.72 2.68-.88.987-2.027 1.48-3.44 1.48l-10.6-.08c0-1.787.906-3.427 2.72-4.92a316.74 316.74 0 0 0 5.16-3.6c1.786-1.253 2.68-2.533 2.68-3.84 0-1.173-.254-2.093-.76-2.76-.48-.693-1.387-1.04-2.72-1.04-.827 0-1.654.32-2.48.96-.827.613-1.24 1.36-1.24 2.24 0 .693.053 1.267.16 1.72.106.453.4 1.027.88 1.72-1.28-.667-2.134-1.28-2.56-1.84-.4-.587-.6-1.347-.6-2.28 0-1.04.666-1.92 2-2.64 1.36-.747 2.973-1.12 4.84-1.12z" fill="url(#wtsnzog49c)"/>
    <path d="M91.44 11.68c2.186 0 3.893.787 5.12 2.36 1.253 1.573 1.88 3.52 1.88 5.84 0 2.427-.894 4.6-2.68 6.52-1.76 1.893-3.76 2.84-6 2.84-2.134 0-3.84-.787-5.12-2.36-1.28-1.6-1.92-3.6-1.92-6s.88-4.533 2.64-6.4c1.76-1.867 3.786-2.8 6.08-2.8zm-5.2 6.84c0 2.08.306 4.067.92 5.96.613 1.893 1.92 2.84 3.92 2.84 1.12 0 2.026-.48 2.72-1.44.693-.96 1.04-2.187 1.04-3.68 0-2.16-.36-4.133-1.08-5.92-.72-1.813-1.947-2.72-3.68-2.72-1.174 0-2.107.467-2.8 1.4-.694.933-1.04 2.12-1.04 3.56z" fill="url(#ew4cnuct0d)"/>
    <path d="M108.648 11.6c2.026 0 3.626.427 4.8 1.28 1.2.853 1.8 2.227 1.8 4.12 0 1.387-1.814 3.08-5.44 5.08-3.6 1.973-5.614 3.213-6.04 3.72.613 0 1.24.013 1.88.04h2.04c2.026 0 3.773-.053 5.24-.16 1.493-.133 2.626-.387 3.4-.76-.587.907-1.16 1.8-1.72 2.68-.88.987-2.027 1.48-3.44 1.48l-10.6-.08c0-1.787.906-3.427 2.72-4.92a316.74 316.74 0 0 0 5.16-3.6c1.786-1.253 2.68-2.533 2.68-3.84 0-1.173-.254-2.093-.76-2.76-.48-.693-1.387-1.04-2.72-1.04-.827 0-1.654.32-2.48.96-.827.613-1.24 1.36-1.24 2.24 0 .693.053 1.267.16 1.72.106.453.4 1.027.88 1.72-1.28-.667-2.134-1.28-2.56-1.84-.4-.587-.6-1.347-.6-2.28 0-1.04.666-1.92 2-2.64 1.36-.747 2.973-1.12 4.84-1.12z" fill="url(#dc80q8q5le)"/>
    <path d="M125.601 11.6c2.026 0 3.626.427 4.8 1.28 1.2.853 1.8 2.227 1.8 4.12 0 1.387-1.814 3.08-5.44 5.08-3.6 1.973-5.614 3.213-6.04 3.72.613 0 1.24.013 1.88.04h2.04c2.026 0 3.773-.053 5.24-.16 1.493-.133 2.626-.387 3.4-.76-.587.907-1.16 1.8-1.72 2.68-.88.987-2.027 1.48-3.44 1.48l-10.6-.08c0-1.787.906-3.427 2.72-4.92a316.74 316.74 0 0 0 5.16-3.6c1.786-1.253 2.68-2.533 2.68-3.84 0-1.173-.254-2.093-.76-2.76-.48-.693-1.387-1.04-2.72-1.04-.827 0-1.654.32-2.48.96-.827.613-1.24 1.36-1.24 2.24 0 .693.053 1.267.16 1.72.106.453.4 1.027.88 1.72-1.28-.667-2.134-1.28-2.56-1.84-.4-.587-.6-1.347-.6-2.28 0-1.04.666-1.92 2-2.64 1.36-.747 2.973-1.12 4.84-1.12z" fill="url(#wchdbjhepf)"/>
    <path fill-rule="evenodd" clip-rule="evenodd" d="M20.486 2.395c4.606.23 8.18 1.592 10.72 4.085 2.827 2.72 4.24 6.533 4.24 11.44 0 3.6-.666 6.693-2 9.28-1.466 1.92-2.92 3.84-4.36 5.76l1.04 1.92c.96 1.467 2.2 2.747 3.72 3.84 1.092.772 2.337 1.272 3.735 1.498.582.095 1.19.142 1.825.142 1.226 0 2.17-.146 2.834-.438.003 0 .006-.002.008-.003.084-.037.163-.077.238-.119a4.34 4.34 0 0 0 .664-.467c.31-.26.631-.586.965-.977a13.194 13.194 0 0 0 .388-.476h-.09c-.442 0-.858-.017-1.247-.051a10.72 10.72 0 0 1-.54-.061 7.076 7.076 0 0 1-1.622-.404c-.604-.238-1.081-.56-1.43-.964a4.493 4.493 0 0 1-.696-1.161c-.363-.87-.545-1.949-.545-3.239a1157.21 1157.21 0 0 0 2.6 3.48c.237.198.48.374.73.53a5.676 5.676 0 0 0 3.07.87c.528 0 1.012-.06 1.453-.181a3.862 3.862 0 0 0 2.241-1.602c.065-.095.127-.194.186-.297.827-1.387 1.24-2.947 1.24-4.68 0-2.213-.36-3.987-1.08-5.32-.571-1.121-1.487-1.78-2.748-1.977l-.007-.001a5.526 5.526 0 0 0-1.352-.039c-.72.063-1.55.256-2.493.577.404-.537.999-1.204 1.786-2a49.83 49.83 0 0 1 1.426-1.387l.111-.105c.217-.203.443-.413.677-.628 1.059-.971 1.928-1.84 2.608-2.607l.006-.006.18-.207c.35-.405.645-.78.883-1.126.089-.129.17-.254.243-.374h-6.04c-1.042 0-1.796.07-2.261.208-.035.01-.067.021-.099.032-.453.16-1.133.453-2.04.88.28-.874.704-1.606 1.27-2.194a5.11 5.11 0 0 1 1.21-.926c1.227-.693 2.654-1.04 4.28-1.04h7.08a10.803 10.803 0 0 1-.568 1.5 11.656 11.656 0 0 1-1.899 2.85c-.425.474-.896.931-1.413 1.37a64.657 64.657 0 0 0-2.259 2.027c-.154.146-.3.287-.438.422a17.349 17.349 0 0 0-1.223 1.311 12.034 12.034 0 0 1 .517-.102 8.656 8.656 0 0 1 1.751-.133c1.79.067 3.167.812 4.132 2.235 1.014 1.467 1.52 3.32 1.52 5.56 0 1.973-.906 3.96-2.72 5.96-.44.486-.9.912-1.382 1.28a8.175 8.175 0 0 1-4.836 1.716 2.388 2.388 0 0 1-.262.884 3.05 3.05 0 0 1-.423.615c-.301.344-.7.668-1.197.972-.074.045-.15.09-.227.133-.918.537-1.971.9-3.16 1.088a12.958 12.958 0 0 1-2.04.152c-2.773 0-4.986-.693-6.64-2.08-1.55-1.296-3.028-2.968-4.434-5.016-.069-.1-.137-.202-.206-.304a5.531 5.531 0 0 1-.108.053c-.74.35-1.771.639-3.092.867l-.16.031-.032.006a21.45 21.45 0 0 1-3.968.363c-.653 0-1.286-.02-1.9-.057-4.647-.292-8.16-1.686-10.54-4.183-2.666-2.827-4-6.533-4-11.12 0-6 1.534-10.48 4.6-13.44A15.375 15.375 0 0 1 8.91 5.192c2.442-1.663 5.354-2.593 8.737-2.792.458-.026.925-.04 1.4-.04.491 0 .971.012 1.44.035zM9.71 6.462c-1.642 1.771-2.463 4.804-2.463 9.098 0 5.803 1.105 10.318 3.315 13.546.097.14.195.278.295.414l.03.04c1.781 2.388 3.842 3.899 6.183 4.534.538.146 1.09.246 1.657.3.329.03.662.046 1 .046.827 0 1.76-.093 2.8-.28l.144-.022.025-.004a12.65 12.65 0 0 0 1.41-.312c.49-.139.964-.306 1.421-.502a31.663 31.663 0 0 0-.664-1.348 27.515 27.515 0 0 0-3.696-5.412c-1.253-1.446-2.493-2.37-3.718-2.77a4.861 4.861 0 0 0-.402-.113 4.374 4.374 0 0 0-1-.117c-.619 0-1.145.069-1.577.205a2.715 2.715 0 0 0-.543.235c-.48.267-.933.653-1.36 1.16.102-.816.415-1.445.94-1.887l.01-.01c.159-.13.335-.245.53-.343a6.084 6.084 0 0 1 2-.581c.32-.04.654-.059 1-.059a9.4 9.4 0 0 1 .677.024c2.149.155 4.056 1.053 5.723 2.696 1.504 1.44 2.791 3.12 3.862 5.044.259.465.505.943.738 1.436.384-.395.717-.85 1-1.364.387-.7.68-1.513.88-2.436.347-1.6.52-3.293.52-5.08 0-2.933-.36-5.813-1.08-8.64-.693-2.853-2-5.28-3.92-7.28-1.352-1.447-3.065-2.378-5.138-2.792a12.498 12.498 0 0 0-1.262-.183 14.774 14.774 0 0 0-1.4-.065c-3.36 0-5.933.867-7.72 2.6a5.873 5.873 0 0 0-.217.222zm18.43 22.028c.125-.342.232-.717.321-1.127.322-1.487.486-3.073.486-4.763 0-2.81-.344-5.565-1.033-8.27l-.002-.008-.002-.008c-.635-2.611-1.82-4.798-3.545-6.595l-.007-.007-.007-.008C22.795 6.04 20.624 5.14 17.646 5.14c-3.11 0-5.255.799-6.675 2.177-1.335 1.295-2.225 3.871-2.225 8.243 0 4.676.742 8.345 2.12 11.106l.212-1.692c.186-1.49.933-2.713 2.297-3.396 1.1-.55 2.338-.798 3.671-.798 2.845 0 5.346 1.079 7.445 3.144a22.442 22.442 0 0 1 3.648 4.566zm-16.286-.154c.077.111.156.22.236.327 2.198 2.947 4.729 4.277 7.637 4.277.718 0 1.56-.081 2.535-.256l.021-.004.022-.003c.383-.058.755-.133 1.115-.224a25.943 25.943 0 0 0-3.38-4.903l-.006-.008c-1.611-1.858-2.94-2.482-3.987-2.482-.775 0-1.182.13-1.368.238l-.012.007-.011.006c-.292.162-.609.42-.941.815l-1.861 2.21zM5.845 5.761C9.264 2.46 13.714.86 19.046.86c5.555 0 10.038 1.44 13.206 4.543 3.187 3.07 4.694 7.313 4.694 12.516 0 3.783-.7 7.124-2.166 9.967l-.061.118-.08.106a816.822 816.822 0 0 0-3.776 4.98l.552 1.018c.846 1.28 1.942 2.41 3.302 3.39 1.258.887 2.797 1.361 4.69 1.361.453 0 .835-.022 1.154-.06-.84-.313-1.564-.773-2.122-1.419l-.008-.009-.007-.009c-1.144-1.365-1.59-3.237-1.59-5.363v-4.528l2.703 3.633c.816 1.096 1.644 2.205 2.485 3.326.762.597 1.58.902 2.488.944l1.676-2.235v1.971c.493-.222.851-.58 1.128-1.06l.005-.01.006-.009c.678-1.137 1.028-2.428 1.028-3.912 0-2.071-.34-3.57-.9-4.607l-.008-.016-.008-.016c-.228-.447-.506-.726-.823-.906-.327-.185-.785-.315-1.44-.315-.602 0-1.43.15-2.517.52l-4.6 1.568 2.916-3.888c.81-1.08 2.233-2.532 4.186-4.325a42.297 42.297 0 0 0 1.773-1.715h-2.879c-1.116 0-1.672.088-1.86.155-.379.133-1.002.4-1.9.822l-3.121 1.469 1.053-3.284c.559-1.742 1.616-3.103 3.175-3.97 1.484-.838 3.17-1.232 5.013-1.232h9.09l-.571 1.926c-.733 2.474-2.207 4.618-4.343 6.434-.438.377-.84.73-1.206 1.058 1.616.36 2.961 1.263 3.948 2.715 1.224 1.773 1.782 3.943 1.782 6.407s-1.138 4.794-3.108 6.968c-1.736 1.914-3.808 3.07-6.176 3.397-.483 1.046-1.41 1.868-2.515 2.495-1.692.988-3.7 1.44-5.948 1.44-3.023 0-5.61-.76-7.603-2.43-1.495-1.25-2.902-2.802-4.23-4.638-.7.226-1.498.41-2.375.563-1.451.284-2.93.425-4.432.425-5.83 0-10.445-1.472-13.526-4.705l-.005-.006C2.22 29.275.786 25.176.786 20.28c0-6.238 1.596-11.177 5.059-14.52zm68.898 5.88c1.534.127 2.782.54 3.744 1.24 1.2.852 1.8 2.226 1.8 4.12 0 1.386-1.814 3.08-5.44 5.08a108.286 108.286 0 0 0-4.16 2.378c-1.037.637-1.664 1.084-1.88 1.341.613 0 1.24.013 1.88.04h2.04c2.026 0 3.773-.053 5.24-.16.438-.039.845-.088 1.221-.148.906-.144 1.632-.348 2.179-.612a425.974 425.974 0 0 0-1.72 2.68c-.88.987-2.027 1.48-3.44 1.48l-10.6-.08v-.08a5.102 5.102 0 0 1 .288-1.62 5.61 5.61 0 0 1 .34-.775c.453-.855 1.15-1.67 2.092-2.445a316.74 316.74 0 0 0 5.16-3.6c1.786-1.253 2.68-2.533 2.68-3.84 0-1.173-.254-2.093-.76-2.76-.23-.332-.558-.585-.984-.758a3.563 3.563 0 0 0-.736-.204 5.89 5.89 0 0 0-1-.078c-.757 0-1.513.268-2.269.803a6.27 6.27 0 0 0-.211.157c-.827.613-1.24 1.36-1.24 2.24 0 .392.017.745.05 1.06.027.243.063.463.11.66.106.453.4 1.027.88 1.72-.966-.503-1.688-.975-2.168-1.417a3.835 3.835 0 0 1-.23-.229 2.822 2.822 0 0 1-.162-.194c-.4-.587-.6-1.347-.6-2.28 0-1.04.666-1.92 2-2.64.277-.152.565-.289.863-.41.897-.364 1.89-.588 2.977-.672a12.979 12.979 0 0 1 2.056.004zm-6.614-.238c1.62-.889 3.491-1.303 5.558-1.303 2.218 0 4.163.465 5.675 1.562 1.702 1.214 2.425 3.116 2.425 5.338 0 .223-.024.441-.068.653.494-1.525 1.35-2.93 2.55-4.202 2.006-2.128 4.413-3.27 7.17-3.27 2.596 0 4.759.959 6.299 2.93 1.493 1.878 2.202 4.167 2.202 6.77 0 2.837-1.06 5.367-3.082 7.54-1.996 2.148-4.376 3.32-7.098 3.32-2.558 0-4.703-.97-6.284-2.914l-.008-.01a9.75 9.75 0 0 1-1.091-1.697c-.498.772-.986 1.534-1.465 2.285l-.065.103-.081.09c-1.186 1.33-2.752 1.982-4.56 1.982h-.01l-12.09-.091V29c0-2.367 1.224-4.396 3.267-6.078l.052-.043.056-.038a315.208 315.208 0 0 0 5.136-3.583l.008-.006c1.655-1.16 2.042-2.05 2.042-2.612 0-.974-.212-1.533-.455-1.852l-.02-.027-.019-.027c-.066-.096-.351-.394-1.486-.394-.415 0-.928.155-1.562.646l-.012.01-.013.009c-.518.385-.633.715-.633 1.035 0 .628.049 1.076.12 1.377.042.178.207.566.653 1.21l-1.926 2.184c-1.313-.684-2.421-1.423-3.06-2.262l-.025-.031-.022-.033c-.616-.903-.86-1.984-.86-3.125 0-1.822 1.213-3.108 2.782-3.957zM82.83 22.547c.103.733.276 1.422.52 2.067a8.304 8.304 0 0 0 1.289 2.266c1.28 1.573 2.986 2.36 5.12 2.36 2.24 0 4.24-.947 6-2.84 1.786-1.92 2.68-4.093 2.68-6.52 0-2.32-.627-4.267-1.88-5.84-1.227-1.573-2.934-2.36-5.12-2.36-2.294 0-4.32.933-6.08 2.8-1.76 1.867-2.64 4-2.64 6.4 0 .58.037 1.135.111 1.667zm-1.41.68-.707.342c-.53.257-1.449.488-2.869.616a65.712 65.712 0 0 1-3.968.149c.516-.29 1.079-.603 1.69-.939l.004-.001c1.86-1.026 3.342-2.019 4.38-2.988.679-.634 1.292-1.374 1.609-2.209-.226.858-.34 1.754-.34 2.683 0 .814.066 1.598.202 2.348zm10.947-6.386-.002-.007c-.286-.718-.625-1.141-.958-1.388-.32-.237-.737-.386-1.328-.386-.704 0-1.189.246-1.596.795-.46.618-.744 1.47-.744 2.665 0 1.93.284 3.76.847 5.498.232.716.552 1.13.893 1.377.341.248.839.425 1.6.425.606 0 1.073-.222 1.504-.818.465-.645.756-1.54.756-2.802 0-1.991-.332-3.771-.972-5.36zm16.08 3.64c1.786-1.254 2.68-2.534 2.68-3.84 0-1.174-.254-2.094-.76-2.76-.23-.333-.558-.585-.984-.758a3.556 3.556 0 0 0-.736-.205 5.899 5.899 0 0 0-1-.078c-.757 0-1.513.268-2.269.803-.07.05-.141.102-.211.157-.827.613-1.24 1.36-1.24 2.24 0 .392.017.745.051 1.06.026.243.062.463.109.66.106.453.4 1.027.88 1.72-.966-.503-1.688-.975-2.168-1.417a3.771 3.771 0 0 1-.229-.229 2.585 2.585 0 0 1-.163-.194c-.4-.587-.6-1.347-.6-2.28 0-1.04.666-1.92 2-2.64.277-.152.565-.289.863-.41.897-.364 1.889-.588 2.977-.672a12.962 12.962 0 0 1 2.056.004c1.534.126 2.782.539 3.744 1.238 1.2.853 1.8 2.227 1.8 4.12 0 1.387-1.814 3.08-5.44 5.08-1.659.909-2.98 1.662-3.965 2.26l-.136.083-.059.036c-1.037.637-1.664 1.084-1.88 1.341.613 0 1.24.013 1.88.04h2.04c2.026 0 3.773-.053 5.24-.16.438-.039.845-.088 1.221-.148.906-.144 1.632-.348 2.179-.612a374.723 374.723 0 0 0-1.72 2.68c-.88.987-2.027 1.48-3.44 1.48l-10.6-.08v-.08a5.124 5.124 0 0 1 .288-1.62 5.67 5.67 0 0 1 .34-.775c.453-.855 1.15-1.67 2.092-2.445a316.74 316.74 0 0 0 5.16-3.6zm7.637 7.592-.212.332-.065.103-.081.09c-1.186 1.33-2.752 1.982-4.559 1.982h-.012l-12.089-.091V29c0-2.367 1.224-4.396 3.267-6.078l.052-.043.056-.038a314.343 314.343 0 0 0 5.135-3.583l.009-.006c1.655-1.16 2.042-2.05 2.042-2.612 0-.974-.212-1.533-.455-1.852l-.02-.027-.019-.027c-.066-.096-.351-.394-1.486-.394-.415 0-.928.155-1.562.646l-.012.01-.013.009c-.519.385-.633.715-.633 1.035 0 .628.049 1.076.12 1.377.042.178.207.566.653 1.21l-1.926 2.184c-1.313-.684-2.421-1.423-3.061-2.262l-.024-.031-.022-.033c-.616-.903-.86-1.984-.86-3.125 0-1.822 1.213-3.108 2.782-3.957 1.621-.889 3.491-1.303 5.558-1.303 2.218 0 4.163.465 5.675 1.562 1.702 1.214 2.425 3.116 2.425 5.338 0 1.338-.848 2.483-1.837 3.406-1.037.969-2.519 1.962-4.379 2.988l-.003.002c-.612.335-1.175.648-1.691.938a65.71 65.71 0 0 0 3.968-.149c1.42-.128 2.339-.36 2.869-.616l4.818-2.325-.983 1.518a318.325 318.325 0 0 0 5.021-3.504l.008-.006c1.655-1.16 2.042-2.05 2.042-2.612 0-.974-.212-1.533-.455-1.852l-.02-.027-.019-.027c-.066-.096-.351-.394-1.486-.394-.415 0-.928.155-1.562.646l-.012.01-.013.009c-.518.385-.633.715-.633 1.035 0 .628.049 1.076.12 1.377.042.178.207.566.653 1.21l-1.926 2.184c-1.313-.684-2.421-1.423-3.061-2.262l-.023-.031-.023-.033c-.616-.903-.86-1.984-.86-3.125 0-1.822 1.213-3.108 2.782-3.957 1.621-.889 3.491-1.303 5.558-1.303 2.218 0 4.163.465 5.675 1.562 1.702 1.214 2.425 3.116 2.425 5.338 0 1.338-.848 2.483-1.837 3.406-1.037.969-2.519 1.962-4.379 2.988l-.003.002c-.612.335-1.175.648-1.691.938a65.71 65.71 0 0 0 3.968-.149c1.42-.128 2.339-.36 2.869-.616l4.818-2.325-2.906 4.491c-.585.904-1.156 1.794-1.714 2.67l-.065.103-.081.09c-1.186 1.33-2.752 1.982-4.559 1.982h-.012l-12.088-.091V29c0-.315.021-.624.064-.927zm13.796-2.393c-1.467.107-3.214.16-5.24.16h-2.04c-.64-.027-1.267-.04-1.88-.04.216-.257.843-.704 1.88-1.34l.059-.037.136-.083c.985-.598 2.306-1.351 3.965-2.26 3.626-2 5.44-3.693 5.44-5.08 0-1.893-.6-3.267-1.8-4.12-.962-.7-2.21-1.112-3.744-1.238a12.962 12.962 0 0 0-2.056-.004c-1.088.084-2.08.308-2.977.672a8.229 8.229 0 0 0-.863.41c-1.334.72-2 1.6-2 2.64 0 .933.2 1.693.6 2.28.048.064.103.129.163.194.069.076.145.152.229.23.48.441 1.203.913 2.168 1.416-.48-.693-.774-1.267-.88-1.72a5.288 5.288 0 0 1-.109-.66 9.963 9.963 0 0 1-.051-1.06c0-.88.413-1.627 1.24-2.24.07-.055.141-.107.211-.157.756-.535 1.513-.803 2.269-.803.365 0 .698.026 1 .078.271.047.517.115.736.205.426.173.754.425.984.757.506.667.76 1.587.76 2.76 0 1.307-.894 2.587-2.68 3.84a316.74 316.74 0 0 1-5.16 3.6c-.942.775-1.639 1.59-2.092 2.445a5.67 5.67 0 0 0-.405.977 5.125 5.125 0 0 0-.223 1.418V29l10.6.08c1.413 0 2.56-.493 3.44-1.48a355.907 355.907 0 0 1 1.72-2.68c-.547.264-1.273.468-2.179.612-.376.06-.783.109-1.221.148zm-42.721-1.2a19.22 19.22 0 0 1-.92-5.96c0-1.44.346-2.627 1.04-3.56.693-.933 1.626-1.4 2.8-1.4 1.733 0 2.96.907 3.68 2.72.72 1.787 1.08 3.76 1.08 5.92 0 1.493-.347 2.72-1.04 3.68-.694.96-1.6 1.44-2.72 1.44-2 0-3.307-.947-3.92-2.84z" fill="#764E01"/>
    <defs>
        <linearGradient id="7mjfyuexga" x1="67.913" y1="8.778" x2="67.268" y2="34.883" gradientUnits="userSpaceOnUse">
            <stop stop-color="#FFD600"/>
            <stop offset="1" stop-color="#B9750E"/>
        </linearGradient>
        <linearGradient id="hs2bja32nb" x1="67.913" y1="8.778" x2="67.268" y2="34.883" gradientUnits="userSpaceOnUse">
            <stop stop-color="#FFD600"/>
            <stop offset="1" stop-color="#B9750E"/>
        </linearGradient>
        <linearGradient id="wtsnzog49c" x1="67.913" y1="8.778" x2="67.268" y2="34.883" gradientUnits="userSpaceOnUse">
            <stop stop-color="#FFD600"/>
            <stop offset="1" stop-color="#B9750E"/>
        </linearGradient>
        <linearGradient id="ew4cnuct0d" x1="67.913" y1="8.778" x2="67.268" y2="34.883" gradientUnits="userSpaceOnUse">
            <stop stop-color="#FFD600"/>
            <stop offset="1" stop-color="#B9750E"/>
        </linearGradient>
        <linearGradient id="dc80q8q5le" x1="67.913" y1="8.778" x2="67.268" y2="34.883" gradientUnits="userSpaceOnUse">
            <stop stop-color="#FFD600"/>
            <stop offset="1" stop-color="#B9750E"/>
        </linearGradient>
        <linearGradient id="wchdbjhepf" x1="67.913" y1="8.778" x2="67.268" y2="34.883" gradientUnits="userSpaceOnUse">
            <stop stop-color="#FFD600"/>
            <stop offset="1" stop-color="#B9750E"/>
        </linearGradient>
    </defs>
</svg>
