<svg width="134" height="44" viewBox="0 0 134 44" fill="none" xmlns="http://www.w3.org/2000/svg">
    <path d="M18.785 2.36c5.306 0 9.36 1.373 12.16 4.12 2.826 2.72 4.24 6.533 4.24 11.44 0 3.6-.667 6.693-2 9.28-1.467 1.92-2.92 3.84-4.36 5.76l1.04 1.92c.96 1.467 2.2 2.747 3.72 3.84 1.546 1.093 3.4 1.64 5.56 1.64 1.386 0 2.413-.187 3.08-.56.666-.373 1.4-1.093 2.2-2.16 0 1.093-.707 2.04-2.12 2.84-1.414.827-3.147 1.24-5.2 1.24-2.774 0-4.987-.693-6.64-2.08-1.627-1.36-3.174-3.133-4.64-5.32-.747.373-1.814.68-3.2.92-1.36.267-2.747.4-4.16.4-5.6 0-9.747-1.413-12.44-4.24-2.667-2.827-4-6.533-4-11.12 0-6 1.533-10.48 4.6-13.44 3.093-2.987 7.146-4.48 12.16-4.48zm-11.8 13.2c0 6.08 1.213 10.747 3.64 14 2.426 3.253 5.373 4.88 8.84 4.88.826 0 1.76-.093 2.8-.28a12.16 12.16 0 0 0 3-.84c-1.174-2.533-2.627-4.787-4.36-6.76-1.734-2-3.44-3-5.12-3-.907 0-1.614.147-2.12.44-.48.267-.934.653-1.36 1.16.133-1.067.626-1.813 1.48-2.24.853-.427 1.853-.64 3-.64 2.426 0 4.56.907 6.4 2.72 1.866 1.787 3.4 3.947 4.6 6.48.906-.933 1.533-2.2 1.88-3.8.346-1.6.52-3.293.52-5.08 0-2.933-.36-5.813-1.08-8.64-.694-2.853-2-5.28-3.92-7.28-1.894-2.027-4.494-3.04-7.8-3.04-3.36 0-5.934.867-7.72 2.6-1.787 1.733-2.68 4.84-2.68 9.32z" fill="url(#50hpykhe5a)"/>
    <path d="M51.992 11.88v16.4c.373 0 .973-.013 1.8-.04a6.67 6.67 0 0 0 2.32-.48c-.08.747-.387 1.36-.92 1.84-.507.48-1.574.72-3.2.72v4.84c0 .667.186 1.187.56 1.56.4.4.8.733 1.2 1h-7.12c.373-.267.746-.6 1.12-1 .4-.4.6-.92.6-1.56v-4.84h-10.2c1.066-1.467 2.466-4.027 4.2-7.68 1.733-3.68 3.08-6.32 4.04-7.92.96-1.6 2.066-2.467 3.32-2.6l2.28-.24zm-3.68 2.44c-1.147 1.387-2.574 3.907-4.28 7.56-1.68 3.627-2.734 5.76-3.16 6.4h7.44V14.32z" fill="url(#bbgux70pnb)"/>
    <path d="M75.69 11.6c2.027 0 3.627.427 4.8 1.28 1.2.853 1.8 2.227 1.8 4.12 0 1.387-1.813 3.08-5.44 5.08-3.6 1.973-5.613 3.213-6.04 3.72.614 0 1.24.013 1.88.04h2.04c2.027 0 3.774-.053 5.24-.16 1.494-.133 2.627-.387 3.4-.76-.586.907-1.16 1.8-1.72 2.68-.88.987-2.026 1.48-3.44 1.48L67.61 29c0-1.787.907-3.427 2.72-4.92a316.74 316.74 0 0 0 5.16-3.6c1.787-1.253 2.68-2.533 2.68-3.84 0-1.173-.253-2.093-.76-2.76-.48-.693-1.386-1.04-2.72-1.04-.826 0-1.653.32-2.48.96-.826.613-1.24 1.36-1.24 2.24 0 .693.054 1.267.16 1.72.107.453.4 1.027.88 1.72-1.28-.667-2.133-1.28-2.56-1.84-.4-.587-.6-1.347-.6-2.28 0-1.04.667-1.92 2-2.64 1.36-.747 2.974-1.12 4.84-1.12z" fill="url(#jvd5o2xw2c)"/>
    <path d="M93.444 11.68c2.186 0 3.893.787 5.12 2.36 1.253 1.573 1.88 3.52 1.88 5.84 0 2.427-.894 4.6-2.68 6.52-1.76 1.893-3.76 2.84-6 2.84-2.134 0-3.84-.787-5.12-2.36-1.28-1.6-1.92-3.6-1.92-6s.88-4.533 2.64-6.4c1.76-1.867 3.786-2.8 6.08-2.8zm-5.2 6.84c0 2.08.306 4.067.92 5.96.613 1.893 1.92 2.84 3.92 2.84 1.12 0 2.026-.48 2.72-1.44.693-.96 1.04-2.187 1.04-3.68 0-2.16-.36-4.133-1.08-5.92-.72-1.813-1.947-2.72-3.68-2.72-1.174 0-2.107.467-2.8 1.4-.694.933-1.04 2.12-1.04 3.56z" fill="url(#tgzz3p3ird)"/>
    <path d="M110.651 11.6c2.027 0 3.627.427 4.8 1.28 1.2.853 1.8 2.227 1.8 4.12 0 1.387-1.813 3.08-5.44 5.08-3.6 1.973-5.613 3.213-6.04 3.72.614 0 1.24.013 1.88.04h2.04c2.027 0 3.774-.053 5.24-.16 1.494-.133 2.627-.387 3.4-.76-.586.907-1.16 1.8-1.72 2.68-.88.987-2.026 1.48-3.44 1.48l-10.6-.08c0-1.787.907-3.427 2.72-4.92a316.74 316.74 0 0 0 5.16-3.6c1.787-1.253 2.68-2.533 2.68-3.84 0-1.173-.253-2.093-.76-2.76-.48-.693-1.386-1.04-2.72-1.04-.826 0-1.653.32-2.48.96-.826.613-1.24 1.36-1.24 2.24 0 .693.054 1.267.16 1.72.107.453.4 1.027.88 1.72-1.28-.667-2.133-1.28-2.56-1.84-.4-.587-.6-1.347-.6-2.28 0-1.04.667-1.92 2-2.64 1.36-.747 2.974-1.12 4.84-1.12z" fill="url(#1d8e15jn8e)"/>
    <path d="M126.805 11.76v14.68c0 .72.093 1.227.28 1.52.186.267.6.613 1.24 1.04h-6.84c.373-.293.746-.6 1.12-.92.346-.4.52-.947.52-1.64V15.92c0-.747-.347-1.12-1.04-1.12-.507 0-1.12.24-1.84.72.933-1.067 1.813-1.96 2.64-2.68.853-.72 2.16-1.08 3.92-1.08z" fill="url(#407k5ddn4f)"/>
    <path fill-rule="evenodd" clip-rule="evenodd" d="M20.225 2.395c4.605.23 8.178 1.592 10.72 4.085 2.826 2.72 4.24 6.533 4.24 11.44 0 3.6-.667 6.693-2 9.28-1.467 1.92-2.92 3.84-4.36 5.76l1.04 1.92c.96 1.467 2.2 2.747 3.72 3.84 1.092.772 2.337 1.271 3.734 1.498.582.095 1.19.142 1.825.142 1.227 0 2.171-.146 2.834-.438l.009-.003c.084-.038.163-.077.237-.119.255-.143.52-.336.794-.58.444-.394.912-.921 1.407-1.58 0 .566-.19 1.093-.569 1.58-.312.402-.754.778-1.325 1.127-.073.045-.149.09-.227.133-.918.537-1.971.9-3.16 1.088a12.942 12.942 0 0 1-2.04.152c-2.773 0-4.986-.693-6.64-2.08-1.55-1.297-3.028-2.969-4.433-5.016-.07-.1-.138-.202-.206-.304a5.01 5.01 0 0 1-.11.053c-.74.35-1.77.638-3.09.867l-.161.03-.032.007a21.434 21.434 0 0 1-3.967.363c-.653 0-1.287-.02-1.9-.058-4.648-.29-8.161-1.685-10.54-4.182-2.667-2.827-4-6.533-4-11.12 0-6 1.533-10.48 4.6-13.44a15.376 15.376 0 0 1 2.023-1.648c2.441-1.663 5.354-2.593 8.736-2.792.459-.027.925-.04 1.4-.04.491 0 .971.012 1.44.035zM9.447 6.462c-1.642 1.77-2.462 4.803-2.462 9.098 0 5.802 1.105 10.318 3.315 13.545.096.14.194.279.294.415l.03.04c1.781 2.387 3.842 3.899 6.183 4.534a9.84 9.84 0 0 0 1.658.3c.328.03.661.046 1 .046.826 0 1.76-.093 2.8-.28l.143-.022.025-.004c.484-.08.954-.183 1.41-.312.49-.139.964-.306 1.422-.502a30.677 30.677 0 0 0-.665-1.348 27.516 27.516 0 0 0-3.696-5.412c-1.253-1.446-2.492-2.37-3.718-2.77a4.854 4.854 0 0 0-.401-.113 4.378 4.378 0 0 0-1-.117c-.62 0-1.145.068-1.578.205a2.707 2.707 0 0 0-.543.235c-.48.267-.933.653-1.36 1.16.103-.817.416-1.446.94-1.887l.011-.01c.158-.131.334-.245.53-.343a6.083 6.083 0 0 1 2-.582c.32-.039.653-.058 1-.058a9.4 9.4 0 0 1 .677.024c2.148.155 4.056 1.053 5.723 2.696 1.503 1.44 2.79 3.12 3.861 5.044.26.465.505.943.739 1.436.383-.395.717-.85 1-1.364.386-.7.68-1.513.88-2.436.346-1.6.52-3.293.52-5.08 0-2.933-.36-5.813-1.08-8.64-.694-2.853-2-5.28-3.92-7.28-1.353-1.447-3.065-2.378-5.138-2.792a12.5 12.5 0 0 0-1.262-.184 14.771 14.771 0 0 0-1.4-.064c-3.36 0-5.934.867-7.72 2.6a5.873 5.873 0 0 0-.218.222zm18.43 22.028a8.65 8.65 0 0 0 .322-1.128c.322-1.486.485-3.072.485-4.762 0-2.81-.344-5.565-1.033-8.27l-.002-.008-.002-.008c-.635-2.612-1.819-4.798-3.544-6.595l-.008-.008-.007-.007c-1.555-1.665-3.726-2.564-6.704-2.564-3.11 0-5.255.799-6.675 2.177-1.335 1.295-2.224 3.871-2.224 8.243 0 4.676.74 8.344 2.12 11.106l.211-1.692c.186-1.49.933-2.713 2.298-3.396 1.1-.55 2.337-.798 3.67-.798 2.845 0 5.347 1.079 7.446 3.144a22.441 22.441 0 0 1 3.647 4.566zm-16.286-.154c.077.11.156.22.236.327 2.198 2.947 4.73 4.277 7.638 4.277.717 0 1.56-.081 2.535-.256l.02-.004.022-.003c.383-.058.755-.133 1.115-.224a25.94 25.94 0 0 0-3.38-4.903l-.006-.008c-1.61-1.858-2.94-2.482-3.987-2.482-.775 0-1.182.13-1.368.238l-.011.007-.012.006c-.291.162-.608.42-.941.815l-1.86 2.21zM5.583 5.76C9.002 2.46 13.452.86 18.785.86c5.554 0 10.038 1.44 13.205 4.544 3.187 3.07 4.695 7.313 4.695 12.516 0 3.783-.701 7.123-2.167 9.967l-.06.118-.081.105a818.91 818.91 0 0 0-3.775 4.981l.55 1.018c.848 1.28 1.943 2.41 3.303 3.39 1.259.887 2.797 1.361 4.69 1.361 1.308 0 2.02-.186 2.347-.369.396-.221.978-.745 1.733-1.751l2.7-3.6v3.236c.23-.18.474-.405.73-.68l.018-.018.018-.019c.08-.08.16-.2.16-.499v-3.34H35.207l1.733-2.382c.977-1.345 2.327-3.794 4.056-7.438 1.736-3.685 3.11-6.383 4.11-8.052 1.053-1.754 2.458-3.046 4.298-3.301l.409-.495v.45l3.68-.388v16.535l.251-.008a5.17 5.17 0 0 0 1.803-.37l2.325-.947-.268 2.496c-.117 1.09-.581 2.045-1.395 2.783-.529.494-1.213.753-1.867.9-.266.06-.55.106-.85.14v3.417c0 .379.099.477.121.5.342.341.667.609.972.812l4.122 2.748h-13.11c-.474 1.077-1.416 1.92-2.543 2.56-1.693.988-3.7 1.44-5.948 1.44-3.024 0-5.611-.76-7.604-2.43-1.495-1.25-2.902-2.802-4.229-4.638-.7.226-1.498.41-2.375.563-1.452.284-2.93.425-4.432.425-5.83 0-10.446-1.472-13.526-4.705l-.006-.006C1.958 29.275.525 25.176.525 20.28c0-6.238 1.596-11.178 5.058-14.52zM51.992 30.32c1.626 0 2.693-.24 3.2-.72l.014-.013c.525-.478.826-1.087.906-1.827-.53.216-1.09.36-1.677.431a7.3 7.3 0 0 1-.643.049l-.3.01c-.674.02-1.174.03-1.5.03v-16.4l-2.28.24c-.878.093-1.684.546-2.418 1.359a7.95 7.95 0 0 0-.902 1.241c-.847 1.41-1.993 3.629-3.44 6.655l-.002.004c-.194.406-.393.826-.598 1.261-.934 1.968-1.771 3.619-2.511 4.953-.247.444-.483.853-.708 1.227-.212.351-.414.671-.606.96-.13.194-.255.374-.375.54h10.2v4.84c0 .4-.078.754-.235 1.06a1.97 1.97 0 0 1-.365.5c-.374.4-.747.733-1.12 1h7.12c-.4-.267-.8-.6-1.2-1a1.76 1.76 0 0 1-.35-.5c-.14-.298-.21-.652-.21-1.06v-4.84zm-5.18-13.81c.244-.407.479-.779.705-1.115.278-.413.543-.771.795-1.075v13.96h-7.44c.172-.258.445-.758.82-1.5a141.521 141.521 0 0 0 1.747-3.628c.188-.401.386-.825.593-1.272 1.028-2.201 1.955-3.991 2.78-5.37zm-1.42 6.003c-.82 1.77-1.495 3.194-2.024 4.267h3.444v-7.168a81.305 81.305 0 0 0-1.42 2.901zm31.355-10.871c1.534.126 2.782.539 3.743 1.238 1.2.853 1.8 2.227 1.8 4.12 0 1.387-1.813 3.08-5.44 5.08a108.286 108.286 0 0 0-4.1 2.343l-.06.036c-1.036.637-1.663 1.084-1.88 1.341.614 0 1.24.013 1.88.04h2.04c2.027 0 3.774-.053 5.24-.16.439-.04.846-.089 1.222-.148.906-.144 1.632-.348 2.179-.612a425.899 425.899 0 0 0-1.72 2.68c-.88.987-2.027 1.48-3.44 1.48L67.61 29v-.08a5.102 5.102 0 0 1 .288-1.62c.092-.262.205-.52.34-.775.453-.855 1.15-1.67 2.091-2.445a316.74 316.74 0 0 0 5.16-3.6c1.787-1.253 2.68-2.533 2.68-3.84 0-1.173-.253-2.093-.76-2.76-.23-.332-.557-.585-.983-.758a3.57 3.57 0 0 0-.737-.204 5.89 5.89 0 0 0-1-.078c-.756 0-1.512.268-2.268.803-.07.05-.14.102-.212.157-.826.613-1.24 1.36-1.24 2.24 0 .392.017.745.052 1.06.026.243.062.463.108.66.107.453.4 1.027.88 1.72-.965-.503-1.687-.975-2.167-1.417a3.836 3.836 0 0 1-.23-.229 2.82 2.82 0 0 1-.162-.194c-.4-.587-.6-1.347-.6-2.28 0-1.04.666-1.92 2-2.64.277-.152.565-.289.863-.41.897-.365 1.89-.589 2.977-.673a13.03 13.03 0 0 1 2.056.005zm-6.614-.24c1.62-.888 3.491-1.302 5.558-1.302 2.218 0 4.163.465 5.675 1.562 1.702 1.214 2.424 3.116 2.424 5.338 0 .223-.023.44-.067.653.494-1.526 1.35-2.93 2.55-4.202 2.005-2.128 4.413-3.271 7.17-3.271 2.596 0 4.758.96 6.299 2.932 1.493 1.877 2.202 4.166 2.202 6.768 0 2.838-1.06 5.368-3.082 7.541-1.996 2.147-4.376 3.319-7.098 3.319-2.558 0-4.703-.97-6.284-2.913l-.008-.01a9.758 9.758 0 0 1-1.091-1.697 416.22 416.22 0 0 0-1.465 2.285l-.065.103-.081.09c-1.186 1.33-2.752 1.982-4.56 1.982h-.01l-12.09-.091V29c0-2.367 1.224-4.396 3.267-6.078l.052-.043.056-.038a314.792 314.792 0 0 0 5.135-3.583l.009-.006c1.655-1.161 2.041-2.05 2.041-2.612 0-.974-.211-1.533-.454-1.852l-.02-.027-.019-.027c-.066-.096-.351-.394-1.487-.394-.414 0-.927.155-1.561.646l-.012.01-.013.009c-.519.384-.633.714-.633 1.035 0 .628.049 1.076.12 1.376.041.178.207.567.653 1.21l-1.926 2.184c-1.313-.683-2.421-1.422-3.06-2.261l-.025-.031-.022-.033c-.616-.903-.86-1.984-.86-3.125 0-1.822 1.213-3.109 2.782-3.957zm14.702 11.145c.103.733.276 1.422.52 2.067a8.306 8.306 0 0 0 1.289 2.266c1.28 1.573 2.986 2.36 5.12 2.36 2.24 0 4.24-.947 6-2.84 1.786-1.92 2.68-4.093 2.68-6.52 0-2.32-.627-4.267-1.88-5.84-1.227-1.573-2.934-2.36-5.12-2.36-2.294 0-4.32.933-6.08 2.8-1.76 1.867-2.64 4-2.64 6.4 0 .579.037 1.135.111 1.667zm-1.41.68-.707.342c-.53.256-1.449.488-2.869.616a65.547 65.547 0 0 1-3.968.149c.516-.29 1.079-.603 1.69-.939l.004-.002c1.86-1.025 3.342-2.018 4.38-2.987.679-.634 1.292-1.374 1.609-2.21-.226.86-.34 1.754-.34 2.684 0 .814.066 1.598.202 2.348zm10.947-6.386-.002-.008c-.286-.718-.625-1.14-.958-1.387-.32-.237-.737-.386-1.328-.386-.704 0-1.189.246-1.596.794-.46.619-.744 1.47-.744 2.666 0 1.93.284 3.76.847 5.498.232.716.552 1.13.893 1.377.341.248.839.425 1.6.425.606 0 1.073-.222 1.504-.818.465-.645.756-1.541.756-2.802 0-1.991-.332-3.771-.972-5.36zm16.079 3.639c1.787-1.253 2.68-2.533 2.68-3.84 0-1.173-.253-2.093-.76-2.76-.229-.332-.557-.585-.983-.758a3.555 3.555 0 0 0-.737-.204 5.882 5.882 0 0 0-1-.078c-.756 0-1.512.268-2.268.803a7.29 7.29 0 0 0-.212.157c-.826.613-1.24 1.36-1.24 2.24 0 .392.017.745.052 1.06.026.243.062.463.108.66.107.453.4 1.027.88 1.72-.965-.503-1.687-.975-2.167-1.417a3.772 3.772 0 0 1-.393-.423c-.4-.587-.6-1.347-.6-2.28 0-1.04.667-1.92 2-2.64.278-.152.566-.289.864-.41.897-.365 1.889-.589 2.976-.673a13.051 13.051 0 0 1 2.057.005c1.534.126 2.782.539 3.743 1.238 1.2.853 1.8 2.227 1.8 4.12 0 1.387-1.813 3.08-5.44 5.08a108.434 108.434 0 0 0-3.964 2.26l-.137.083a2.303 2.303 0 0 1-.059.036c-1.036.637-1.663 1.084-1.88 1.341.614 0 1.24.013 1.88.04h2.04c2.027 0 3.774-.053 5.24-.16.439-.04.846-.089 1.222-.148.906-.144 1.632-.348 2.178-.612-.429.664-.851 1.32-1.266 1.97l-.454.71c-.88.987-2.026 1.48-3.44 1.48l-10.6-.08.001-.08a5.087 5.087 0 0 1 .288-1.62c.092-.262.205-.52.34-.775.453-.855 1.15-1.67 2.091-2.445a316.74 316.74 0 0 0 5.16-3.6zm4.359 3.705c1.42-.128 2.339-.36 2.869-.616l3.946-1.904V16.45c-.146.07-.328.171-.548.318l-1.961-2.236c.965-1.104 1.893-2.048 2.783-2.823l.009-.008.009-.008c1.242-1.047 2.966-1.433 4.888-1.433h1.5v16.18a3.735 3.735 0 0 0 .057.709c.03.029.074.07.136.122.151.126.367.286.659.48l4.122 2.749h-16.131l3.41-2.68c.317-.248.634-.508.953-.779.05-.085.114-.259.114-.601v-3.848l-2.034 3.143c-.585.904-1.156 1.794-1.714 2.67l-.065.103-.081.09c-1.186 1.33-2.752 1.982-4.56 1.982h-.011l-12.089-.091V29c0-2.367 1.224-4.396 3.267-6.078l.052-.043.056-.038a314.362 314.362 0 0 0 5.135-3.583l.009-.006c1.655-1.161 2.041-2.05 2.041-2.612 0-.974-.211-1.533-.454-1.852l-.02-.027-.019-.027c-.066-.096-.351-.394-1.487-.394-.414 0-.927.155-1.561.646l-.012.01-.013.009c-.519.384-.634.714-.634 1.035 0 .628.05 1.076.121 1.376.041.178.207.567.653 1.21l-1.926 2.184c-1.313-.683-2.421-1.422-3.061-2.261l-.024-.031-.022-.033c-.616-.903-.861-1.984-.861-3.125 0-1.822 1.214-3.109 2.783-3.957 1.621-.89 3.491-1.303 5.557-1.303 2.218 0 4.163.465 5.676 1.562 1.702 1.214 2.424 3.116 2.424 5.338 0 1.337-.847 2.483-1.836 3.406-1.037.969-2.519 1.962-4.379 2.988l-.004.001c-.611.336-1.175.648-1.69.939a65.546 65.546 0 0 0 3.968-.15zM121.485 29c.373-.293.746-.6 1.12-.92.145-.168.26-.36.344-.58a2.94 2.94 0 0 0 .176-1.06V15.92c0-.432-.117-.74-.349-.921-.169-.133-.399-.199-.691-.199-.507 0-1.12.24-1.84.72a31.458 31.458 0 0 1 2.117-2.208c.176-.165.351-.322.523-.472.59-.498 1.396-.823 2.42-.977.456-.069.956-.103 1.5-.103v14.68c0 .43.033.782.099 1.06a1.5 1.5 0 0 0 .181.46c.186.267.6.613 1.24 1.04h-6.84zm-32.321-4.52a19.22 19.22 0 0 1-.92-5.96c0-1.44.346-2.627 1.04-3.56.693-.933 1.626-1.4 2.8-1.4 1.733 0 2.96.907 3.68 2.72.72 1.787 1.08 3.76 1.08 5.92 0 1.493-.347 2.72-1.04 3.68-.694.96-1.6 1.44-2.72 1.44-2 0-3.307-.947-3.92-2.84z" fill="#764E01"/>
    <defs>
        <linearGradient id="50hpykhe5a" x1="65.901" y1="8.778" x2="65.634" y2="34.886" gradientUnits="userSpaceOnUse">
            <stop stop-color="#FFD600"/>
            <stop offset="1" stop-color="#B9750E"/>
        </linearGradient>
        <linearGradient id="bbgux70pnb" x1="65.901" y1="8.778" x2="65.634" y2="34.886" gradientUnits="userSpaceOnUse">
            <stop stop-color="#FFD600"/>
            <stop offset="1" stop-color="#B9750E"/>
        </linearGradient>
        <linearGradient id="jvd5o2xw2c" x1="65.901" y1="8.778" x2="65.634" y2="34.886" gradientUnits="userSpaceOnUse">
            <stop stop-color="#FFD600"/>
            <stop offset="1" stop-color="#B9750E"/>
        </linearGradient>
        <linearGradient id="tgzz3p3ird" x1="65.901" y1="8.778" x2="65.634" y2="34.886" gradientUnits="userSpaceOnUse">
            <stop stop-color="#FFD600"/>
            <stop offset="1" stop-color="#B9750E"/>
        </linearGradient>
        <linearGradient id="1d8e15jn8e" x1="65.901" y1="8.778" x2="65.634" y2="34.886" gradientUnits="userSpaceOnUse">
            <stop stop-color="#FFD600"/>
            <stop offset="1" stop-color="#B9750E"/>
        </linearGradient>
        <linearGradient id="407k5ddn4f" x1="65.901" y1="8.778" x2="65.634" y2="34.886" gradientUnits="userSpaceOnUse">
            <stop stop-color="#FFD600"/>
            <stop offset="1" stop-color="#B9750E"/>
        </linearGradient>
    </defs>
</svg>
