<svg width="140" height="44" viewBox="0 0 140 44" fill="none" xmlns="http://www.w3.org/2000/svg">
    <path d="M18.913 2.36c5.307 0 9.36 1.373 12.16 4.12 2.827 2.72 4.24 6.533 4.24 11.44 0 3.6-.666 6.693-2 9.28-1.466 1.92-2.92 3.84-4.36 5.76l1.04 1.92c.96 1.467 2.2 2.747 3.72 3.84 1.547 1.093 3.4 1.64 5.56 1.64 1.387 0 2.414-.187 3.08-.56.667-.373 1.4-1.093 2.2-2.16 0 1.093-.706 2.04-2.12 2.84-1.413.827-3.146 1.24-5.2 1.24-2.773 0-4.986-.693-6.64-2.08-1.626-1.36-3.173-3.133-4.64-5.32-.746.373-1.813.68-3.2.92-1.36.267-2.746.4-4.16.4-5.6 0-9.746-1.413-12.44-4.24-2.666-2.827-4-6.533-4-11.12 0-6 1.534-10.48 4.6-13.44 3.094-2.987 7.147-4.48 12.16-4.48zm-11.8 13.2c0 6.08 1.214 10.747 3.64 14 2.427 3.253 5.374 4.88 8.84 4.88.827 0 1.76-.093 2.8-.28a12.16 12.16 0 0 0 3-.84c-1.173-2.533-2.626-4.787-4.36-6.76-1.733-2-3.44-3-5.12-3-.906 0-1.613.147-2.12.44-.48.267-.933.653-1.36 1.16.134-1.067.627-1.813 1.48-2.24.854-.427 1.854-.64 3-.64 2.427 0 4.56.907 6.4 2.72 1.867 1.787 3.4 3.947 4.6 6.48.907-.933 1.534-2.2 1.88-3.8.347-1.6.52-3.293.52-5.08 0-2.933-.36-5.813-1.08-8.64-.693-2.853-2-5.28-3.92-7.28-1.893-2.027-4.493-3.04-7.8-3.04-3.36 0-5.933.867-7.72 2.6-1.786 1.733-2.68 4.84-2.68 9.32z" fill="url(#mf7yyr3dza)"/>
    <path d="M52.12 11.88v16.4c.374 0 .974-.013 1.8-.04a6.67 6.67 0 0 0 2.32-.48c-.08.747-.386 1.36-.92 1.84-.506.48-1.573.72-3.2.72v4.84c0 .667.187 1.187.56 1.56.4.4.8.733 1.2 1h-7.12c.374-.267.747-.6 1.12-1 .4-.4.6-.92.6-1.56v-4.84h-10.2c1.067-1.467 2.467-4.027 4.2-7.68 1.734-3.68 3.08-6.32 4.04-7.92.96-1.6 2.067-2.467 3.32-2.6l2.28-.24zm-3.68 2.44c-1.146 1.387-2.573 3.907-4.28 7.56-1.68 3.627-2.733 5.76-3.16 6.4h7.44V14.32z" fill="url(#saizvo6j8b)"/>
    <path d="M75.82 11.6c2.026 0 3.626.427 4.8 1.28 1.2.853 1.8 2.227 1.8 4.12 0 1.387-1.814 3.08-5.44 5.08-3.6 1.973-5.614 3.213-6.04 3.72.613 0 1.24.013 1.88.04h2.04c2.026 0 3.773-.053 5.24-.16 1.493-.133 2.626-.387 3.4-.76-.587.907-1.16 1.8-1.72 2.68-.88.987-2.027 1.48-3.44 1.48L67.74 29c0-1.787.906-3.427 2.72-4.92a316.74 316.74 0 0 0 5.16-3.6c1.786-1.253 2.68-2.533 2.68-3.84 0-1.173-.254-2.093-.76-2.76-.48-.693-1.387-1.04-2.72-1.04-.827 0-1.654.32-2.48.96-.827.613-1.24 1.36-1.24 2.24 0 .693.053 1.267.16 1.72.106.453.4 1.027.88 1.72-1.28-.667-2.134-1.28-2.56-1.84-.4-.587-.6-1.347-.6-2.28 0-1.04.666-1.92 2-2.64 1.36-.747 2.973-1.12 4.84-1.12z" fill="url(#s2u12udiec)"/>
    <path d="M93.573 11.68c2.186 0 3.893.787 5.12 2.36 1.253 1.573 1.88 3.52 1.88 5.84 0 2.427-.894 4.6-2.68 6.52-1.76 1.893-3.76 2.84-6 2.84-2.134 0-3.84-.787-5.12-2.36-1.28-1.6-1.92-3.6-1.92-6s.88-4.533 2.64-6.4c1.76-1.867 3.786-2.8 6.08-2.8zm-5.2 6.84c0 2.08.306 4.067.92 5.96.613 1.893 1.92 2.84 3.92 2.84 1.12 0 2.026-.48 2.72-1.44.693-.96 1.04-2.187 1.04-3.68 0-2.16-.36-4.133-1.08-5.92-.72-1.813-1.947-2.72-3.68-2.72-1.174 0-2.107.467-2.8 1.4-.694.933-1.04 2.12-1.04 3.56z" fill="url(#p9kavspmpd)"/>
    <path d="M110.78 11.6c2.027 0 3.627.427 4.8 1.28 1.2.853 1.8 2.227 1.8 4.12 0 1.387-1.813 3.08-5.44 5.08-3.6 1.973-5.613 3.213-6.04 3.72.614 0 1.24.013 1.88.04h2.04c2.027 0 3.774-.053 5.24-.16 1.494-.133 2.627-.387 3.4-.76-.586.907-1.16 1.8-1.72 2.68-.88.987-2.026 1.48-3.44 1.48L102.7 29c0-1.787.907-3.427 2.72-4.92a316.74 316.74 0 0 0 5.16-3.6c1.787-1.253 2.68-2.533 2.68-3.84 0-1.173-.253-2.093-.76-2.76-.48-.693-1.386-1.04-2.72-1.04-.826 0-1.653.32-2.48.96-.826.613-1.24 1.36-1.24 2.24 0 .693.054 1.267.16 1.72.107.453.4 1.027.88 1.72-1.28-.667-2.133-1.28-2.56-1.84-.4-.587-.6-1.347-.6-2.28 0-1.04.667-1.92 2-2.64 1.36-.747 2.974-1.12 4.84-1.12z" fill="url(#k1s8uk26se)"/>
    <path d="M127.733 11.6c2.027 0 3.627.427 4.8 1.28 1.2.853 1.8 2.227 1.8 4.12 0 1.387-1.813 3.08-5.44 5.08-3.6 1.973-5.613 3.213-6.04 3.72.614 0 1.24.013 1.88.04h2.04c2.027 0 3.774-.053 5.24-.16 1.494-.133 2.627-.387 3.4-.76-.586.907-1.16 1.8-1.72 2.68-.88.987-2.026 1.48-3.44 1.48l-10.6-.08c0-1.787.907-3.427 2.72-4.92a316.74 316.74 0 0 0 5.16-3.6c1.787-1.253 2.68-2.533 2.68-3.84 0-1.173-.253-2.093-.76-2.76-.48-.693-1.386-1.04-2.72-1.04-.826 0-1.653.32-2.48.96-.826.613-1.24 1.36-1.24 2.24 0 .693.054 1.267.16 1.72.107.453.4 1.027.88 1.72-1.28-.667-2.133-1.28-2.56-1.84-.4-.587-.6-1.347-.6-2.28 0-1.04.667-1.92 2-2.64 1.36-.747 2.974-1.12 4.84-1.12z" fill="url(#7e2s51tdmf)"/>
    <path fill-rule="evenodd" clip-rule="evenodd" d="M20.354 2.395c4.605.23 8.178 1.592 10.72 4.085 2.826 2.72 4.24 6.533 4.24 11.44 0 3.6-.667 6.693-2 9.28-1.467 1.92-2.92 3.84-4.36 5.76l1.04 1.92c.96 1.467 2.2 2.747 3.72 3.84 1.092.772 2.336 1.272 3.734 1.498.582.095 1.19.142 1.825.142 1.226 0 2.171-.146 2.834-.438l.009-.003c.083-.037.163-.077.237-.119.255-.143.52-.336.794-.58.443-.394.912-.92 1.406-1.58 0 .566-.189 1.093-.568 1.58-.312.403-.754.778-1.325 1.127-.074.045-.149.09-.227.133-.918.537-1.971.9-3.16 1.088a12.956 12.956 0 0 1-2.04.152c-2.773 0-4.986-.693-6.64-2.08-1.55-1.296-3.028-2.968-4.433-5.016-.07-.1-.138-.202-.207-.304a5.26 5.26 0 0 1-.108.053c-.74.35-1.77.639-3.092.867l-.16.031-.032.006a21.449 21.449 0 0 1-3.968.363c-.652 0-1.286-.02-1.899-.057-4.648-.292-8.161-1.686-10.54-4.183-2.667-2.827-4-6.533-4-11.12 0-6 1.533-10.48 4.6-13.44a15.376 15.376 0 0 1 2.022-1.648c2.442-1.663 5.354-2.593 8.737-2.792.458-.026.925-.04 1.4-.04.491 0 .971.012 1.44.035zM9.576 6.462c-1.642 1.771-2.463 4.804-2.463 9.098 0 5.803 1.105 10.318 3.316 13.546.096.14.194.278.294.414l.03.04c1.781 2.388 3.842 3.899 6.183 4.534a9.84 9.84 0 0 0 1.657.3c.329.03.662.046 1 .046.827 0 1.76-.093 2.8-.28a13.087 13.087 0 0 0 1.58-.338c.49-.139.963-.306 1.42-.502a31.658 31.658 0 0 0-.664-1.348 27.516 27.516 0 0 0-3.696-5.412c-1.253-1.446-2.492-2.37-3.718-2.77a4.853 4.853 0 0 0-.402-.113 4.373 4.373 0 0 0-1-.117c-.619 0-1.144.069-1.577.205a2.718 2.718 0 0 0-.543.235c-.48.267-.933.653-1.36 1.16.103-.816.415-1.445.94-1.887l.011-.01c.158-.13.334-.245.53-.343a6.086 6.086 0 0 1 2-.581c.32-.04.653-.059 1-.059a9.4 9.4 0 0 1 .676.024c2.149.155 4.056 1.053 5.723 2.696 1.504 1.44 2.791 3.12 3.862 5.044.259.465.505.943.738 1.436.384-.395.718-.85 1-1.364.387-.7.68-1.513.88-2.436.347-1.6.52-3.293.52-5.08 0-2.933-.36-5.813-1.08-8.64-.693-2.853-2-5.28-3.92-7.28-1.352-1.447-3.064-2.378-5.138-2.792a12.5 12.5 0 0 0-1.262-.183 14.771 14.771 0 0 0-1.4-.065c-3.36 0-5.933.867-7.72 2.6a5.88 5.88 0 0 0-.217.222zm18.43 22.028c.125-.342.233-.717.322-1.127.322-1.487.485-3.073.485-4.763 0-2.81-.344-5.565-1.033-8.27l-.002-.008-.002-.008c-.635-2.611-1.819-4.798-3.545-6.595l-.007-.007-.007-.008C22.662 6.04 20.491 5.14 17.513 5.14c-3.11 0-5.255.799-6.675 2.177-1.335 1.295-2.225 3.871-2.225 8.243 0 4.676.742 8.345 2.12 11.106l.212-1.692c.186-1.49.933-2.713 2.298-3.396 1.1-.55 2.337-.798 3.67-.798 2.845 0 5.346 1.079 7.445 3.144a22.442 22.442 0 0 1 3.648 4.566zm-16.286-.154c.077.111.156.22.236.327 2.198 2.947 4.73 4.277 7.637 4.277.718 0 1.56-.081 2.535-.256l.022-.004.02-.003c.384-.058.756-.133 1.116-.224a25.943 25.943 0 0 0-3.38-4.903l-.006-.008c-1.611-1.858-2.94-2.482-3.987-2.482-.775 0-1.182.13-1.368.238l-.011.007-.012.006c-.292.162-.608.42-.941.815l-1.861 2.21zM5.712 5.761C9.13 2.46 13.58.86 18.913.86c5.555 0 10.038 1.44 13.206 4.543 3.187 3.07 4.694 7.313 4.694 12.516 0 3.783-.7 7.124-2.166 9.967l-.061.118-.08.106a812.758 812.758 0 0 0-3.775 4.98l.55 1.018c.848 1.28 1.943 2.41 3.303 3.39 1.258.887 2.797 1.361 4.69 1.361 1.308 0 2.02-.186 2.346-.369.396-.221.98-.745 1.733-1.75l2.7-3.6v3.235c.231-.18.475-.405.731-.68l.018-.018.018-.019c.08-.08.16-.2.16-.499v-3.34H35.336l1.733-2.382c.977-1.345 2.327-3.794 4.056-7.438 1.736-3.685 3.11-6.383 4.11-8.052 1.053-1.754 2.458-3.046 4.298-3.301l.409-.495v.45l3.68-.388v16.535l.251-.008a5.171 5.171 0 0 0 1.803-.37L58 25.424l-.268 2.496c-.117 1.09-.581 2.045-1.395 2.783-.529.494-1.213.753-1.867.9-.266.06-.55.107-.85.14v3.417c0 .379.098.477.121.5.342.342.667.609.972.812l4.122 2.748h-13.11c-.474 1.077-1.416 1.92-2.543 2.56-1.693.988-3.7 1.44-5.949 1.44-3.023 0-5.61-.76-7.603-2.43-1.495-1.25-2.902-2.802-4.229-4.638-.7.226-1.498.41-2.375.563-1.452.284-2.93.425-4.433.425-5.83 0-10.445-1.472-13.526-4.705l-.005-.006C2.087 29.275.653 25.176.653 20.28c0-6.238 1.597-11.177 5.059-14.52zM52.12 30.32c1.626 0 2.693-.24 3.2-.72l.014-.014c.524-.478.826-1.087.906-1.827-.53.216-1.09.36-1.677.431-.21.026-.425.042-.643.05l-.3.009c-.674.02-1.174.03-1.5.03v-16.4l-2.28.24c-.878.094-1.684.546-2.418 1.359a7.95 7.95 0 0 0-.902 1.241c-.847 1.41-1.993 3.629-3.44 6.656l-.002.003c-.194.406-.394.826-.598 1.261-.934 1.968-1.771 3.62-2.512 4.953-.246.444-.482.853-.707 1.227-.212.351-.414.671-.606.96-.13.194-.255.374-.375.54h10.2v4.84c0 .4-.079.754-.235 1.06a1.97 1.97 0 0 1-.365.5c-.374.4-.747.733-1.12 1h7.12c-.4-.267-.8-.6-1.2-1a1.76 1.76 0 0 1-.35-.5c-.14-.298-.21-.651-.21-1.06v-4.84zm-5.18-13.81c.244-.408.479-.78.705-1.116.278-.412.543-.77.795-1.075v13.96H41c.172-.258.445-.758.82-1.5a141.65 141.65 0 0 0 1.747-3.628c.188-.401.386-.825.593-1.272 1.028-2.201 1.955-3.99 2.78-5.37zm-1.42 6.002c-.82 1.77-1.496 3.194-2.024 4.267h3.444v-7.168a81.305 81.305 0 0 0-1.42 2.901zm31.355-10.871c1.534.126 2.782.539 3.743 1.238 1.2.853 1.8 2.227 1.8 4.12 0 1.387-1.813 3.08-5.44 5.08a108.286 108.286 0 0 0-4.16 2.38c-1.036.636-1.663 1.083-1.88 1.34.614 0 1.24.013 1.88.04h2.04c2.027 0 3.774-.053 5.24-.16.439-.039.846-.088 1.222-.148.906-.144 1.632-.348 2.178-.612a425.884 425.884 0 0 0-1.72 2.68c-.88.987-2.026 1.48-3.44 1.48L67.74 29l.001-.08a5.102 5.102 0 0 1 .288-1.62 5.61 5.61 0 0 1 .34-.775c.453-.855 1.15-1.67 2.091-2.445a316.74 316.74 0 0 0 5.16-3.6c1.787-1.253 2.68-2.533 2.68-3.84 0-1.173-.253-2.093-.76-2.76-.23-.332-.557-.585-.983-.758a3.563 3.563 0 0 0-.737-.204 5.89 5.89 0 0 0-1-.078c-.756 0-1.512.268-2.268.803a6.27 6.27 0 0 0-.212.157c-.826.613-1.24 1.36-1.24 2.24 0 .392.017.745.051 1.06.027.243.063.463.11.66.106.453.4 1.027.88 1.72-.966-.503-1.688-.975-2.168-1.417a3.835 3.835 0 0 1-.23-.229 2.822 2.822 0 0 1-.163-.194c-.4-.587-.6-1.347-.6-2.28 0-1.04.667-1.92 2-2.64.278-.152.566-.289.864-.41.897-.364 1.889-.588 2.976-.672a12.98 12.98 0 0 1 2.057.004zm-6.614-.24c1.62-.888 3.491-1.302 5.557-1.302 2.218 0 4.163.465 5.676 1.562 1.702 1.214 2.424 3.116 2.424 5.338 0 .223-.023.441-.067.653.494-1.525 1.35-2.93 2.55-4.202 2.005-2.128 4.413-3.27 7.17-3.27 2.596 0 4.758.959 6.299 2.93 1.493 1.878 2.202 4.167 2.202 6.77 0 2.837-1.06 5.367-3.082 7.54-1.996 2.148-4.376 3.32-7.099 3.32-2.557 0-4.702-.97-6.283-2.914l-.008-.01a9.756 9.756 0 0 1-1.091-1.697c-.498.772-.987 1.534-1.465 2.285l-.065.103-.081.09c-1.186 1.33-2.752 1.982-4.56 1.982h-.01l-12.09-.091V29c0-2.367 1.224-4.396 3.267-6.078l.052-.043.056-.038a314.773 314.773 0 0 0 5.135-3.583l.009-.006c1.655-1.16 2.041-2.05 2.041-2.612 0-.974-.211-1.533-.454-1.852l-.02-.027-.019-.027c-.066-.096-.351-.394-1.487-.394-.414 0-.927.155-1.561.646l-.012.01-.013.009c-.519.385-.634.715-.634 1.035 0 .628.05 1.076.12 1.377.042.178.208.566.654 1.21l-1.927 2.184c-1.312-.684-2.42-1.423-3.06-2.262l-.024-.031-.022-.033c-.616-.903-.86-1.984-.86-3.125 0-1.822 1.213-3.108 2.782-3.957zm14.702 11.145c.103.733.276 1.422.52 2.067a8.304 8.304 0 0 0 1.288 2.266c1.28 1.573 2.987 2.36 5.12 2.36 2.24 0 4.24-.947 6-2.84 1.787-1.92 2.681-4.093 2.681-6.52 0-2.32-.627-4.267-1.88-5.84-1.227-1.573-2.934-2.36-5.12-2.36-2.294 0-4.32.933-6.08 2.8-1.76 1.867-2.64 4-2.64 6.4 0 .58.037 1.135.111 1.667zm-1.41.68-.707.342c-.53.257-1.449.488-2.869.616a65.712 65.712 0 0 1-3.968.149c.515-.29 1.079-.603 1.69-.939l.004-.001c1.86-1.026 3.342-2.019 4.38-2.988.679-.634 1.292-1.374 1.609-2.209-.226.858-.34 1.754-.34 2.683 0 .814.066 1.598.202 2.348zm10.947-6.386-.003-.007c-.285-.718-.624-1.141-.957-1.388-.32-.237-.737-.386-1.328-.386-.704 0-1.19.246-1.596.795-.46.618-.745 1.47-.745 2.665 0 1.93.285 3.76.847 5.498.232.716.553 1.13.894 1.377.341.248.839.425 1.6.425.606 0 1.073-.222 1.504-.818.465-.645.755-1.54.755-2.802 0-1.991-.33-3.771-.97-5.36zm16.079 3.64c1.787-1.254 2.68-2.534 2.68-3.84 0-1.174-.253-2.094-.76-2.76-.23-.333-.557-.585-.983-.758a3.566 3.566 0 0 0-.737-.205 5.882 5.882 0 0 0-1-.078c-.756 0-1.512.268-2.268.803a7.48 7.48 0 0 0-.212.157c-.826.613-1.24 1.36-1.24 2.24 0 .392.017.745.051 1.06.027.243.063.463.109.66.107.453.4 1.027.88 1.72-.965-.503-1.687-.975-2.167-1.417a3.17 3.17 0 0 1-.393-.423c-.4-.587-.6-1.347-.6-2.28 0-1.04.667-1.92 2-2.64.278-.152.565-.289.864-.41.897-.364 1.889-.588 2.976-.672a12.98 12.98 0 0 1 2.057.004c1.534.126 2.782.539 3.743 1.238 1.2.853 1.8 2.227 1.8 4.12 0 1.387-1.813 3.08-5.44 5.08a108.434 108.434 0 0 0-3.964 2.26l-.137.083a2.626 2.626 0 0 1-.059.036c-1.036.637-1.663 1.084-1.88 1.341.614 0 1.24.013 1.88.04h2.04c2.027 0 3.774-.053 5.24-.16.438-.039.846-.088 1.222-.148.906-.144 1.632-.348 2.178-.612-.429.664-.851 1.32-1.266 1.97l-.454.71c-.88.987-2.026 1.48-3.44 1.48L102.7 29l.001-.08a5.087 5.087 0 0 1 .288-1.62 5.67 5.67 0 0 1 .34-.775c.453-.855 1.15-1.67 2.091-2.445a316.74 316.74 0 0 0 5.16-3.6zm7.638 7.592-.212.332-.065.103-.081.09c-1.186 1.33-2.752 1.982-4.56 1.982h-.011L101.2 30.49V29c0-2.367 1.224-4.396 3.267-6.078l.052-.043.056-.038a314.343 314.343 0 0 0 5.135-3.583l.009-.006c1.655-1.16 2.041-2.05 2.041-2.612 0-.974-.211-1.533-.454-1.852l-.02-.027-.019-.027c-.066-.096-.351-.394-1.487-.394-.414 0-.927.155-1.561.646l-.013.01-.012.009c-.519.385-.634.715-.634 1.035 0 .628.05 1.076.12 1.377.042.178.208.566.654 1.21l-1.927 2.184c-1.312-.684-2.421-1.423-3.06-2.262l-.024-.031-.022-.033c-.616-.903-.861-1.984-.861-3.125 0-1.822 1.214-3.108 2.783-3.957 1.621-.889 3.491-1.303 5.557-1.303 2.218 0 4.163.465 5.676 1.562 1.702 1.214 2.424 3.116 2.424 5.338 0 1.338-.847 2.483-1.836 3.406-1.037.969-2.519 1.962-4.379 2.988l-.004.002c-.611.335-1.175.648-1.69.938a65.71 65.71 0 0 0 3.968-.149c1.42-.128 2.339-.36 2.869-.616l4.818-2.325-.983 1.518a313.757 313.757 0 0 0 5.02-3.504l.009-.006c1.655-1.16 2.041-2.05 2.041-2.612 0-.974-.211-1.533-.454-1.852l-.02-.027-.019-.027c-.066-.096-.351-.394-1.487-.394-.414 0-.927.155-1.561.646l-.012.01-.013.009c-.519.385-.634.715-.634 1.035 0 .628.05 1.076.121 1.377.041.178.207.566.653 1.21l-1.926 2.184c-1.313-.684-2.421-1.423-3.061-2.262l-.024-.031-.022-.033c-.616-.903-.861-1.984-.861-3.125 0-1.822 1.214-3.108 2.783-3.957 1.621-.889 3.491-1.303 5.557-1.303 2.219 0 4.164.465 5.676 1.562 1.702 1.214 2.424 3.116 2.424 5.338 0 1.338-.847 2.483-1.836 3.406-1.037.969-2.519 1.962-4.379 2.988l-.004.002c-.611.335-1.175.648-1.69.938a65.71 65.71 0 0 0 3.968-.149c1.42-.128 2.339-.36 2.869-.616l4.818-2.325-2.906 4.491c-.585.904-1.156 1.794-1.714 2.67l-.065.103-.081.09c-1.186 1.33-2.752 1.982-4.56 1.982h-.011l-12.089-.091V29c0-.315.022-.624.065-.927zm13.795-2.393c-1.466.107-3.213.16-5.24.16h-2.04c-.64-.027-1.266-.04-1.88-.04.217-.257.844-.704 1.88-1.34l.059-.037.137-.083c.985-.598 2.306-1.351 3.964-2.26 3.627-2 5.44-3.693 5.44-5.08 0-1.893-.6-3.267-1.8-4.12-.961-.7-2.209-1.112-3.743-1.238a13 13 0 0 0-2.057-.004c-1.087.084-2.079.308-2.976.672a8.341 8.341 0 0 0-.864.41c-1.333.72-2 1.6-2 2.64 0 .933.2 1.693.6 2.28a3.771 3.771 0 0 0 .393.423c.48.442 1.202.914 2.167 1.417-.48-.693-.773-1.267-.88-1.72a5.49 5.49 0 0 1-.108-.66 9.689 9.689 0 0 1-.052-1.06c0-.88.414-1.627 1.24-2.24a7.48 7.48 0 0 1 .212-.157c.756-.535 1.512-.803 2.268-.803.366 0 .699.026 1 .078.272.047.518.115.737.205.426.173.754.425.983.757.507.667.76 1.587.76 2.76 0 1.307-.893 2.587-2.68 3.84a316.74 316.74 0 0 1-5.16 3.6c-.941.775-1.638 1.59-2.091 2.445a5.67 5.67 0 0 0-.406.977c-.14.462-.215.934-.222 1.418l-.001.08 10.6.08c1.414 0 2.56-.493 3.44-1.48l.454-.71c.415-.65.837-1.306 1.266-1.97-.546.264-1.272.468-2.178.612-.376.06-.783.109-1.222.148zm-42.72-1.2a19.22 19.22 0 0 1-.92-5.96c0-1.44.346-2.627 1.04-3.56.693-.933 1.626-1.4 2.8-1.4 1.733 0 2.96.907 3.68 2.72.72 1.787 1.08 3.76 1.08 5.92 0 1.493-.347 2.72-1.04 3.68-.694.96-1.6 1.44-2.72 1.44-2 0-3.307-.947-3.92-2.84z" fill="#764E01"/>
    <defs>
        <linearGradient id="mf7yyr3dza" x1="68.919" y1="8.778" x2="68.284" y2="34.884" gradientUnits="userSpaceOnUse">
            <stop stop-color="#FFD600"/>
            <stop offset="1" stop-color="#B9750E"/>
        </linearGradient>
        <linearGradient id="saizvo6j8b" x1="68.919" y1="8.778" x2="68.284" y2="34.884" gradientUnits="userSpaceOnUse">
            <stop stop-color="#FFD600"/>
            <stop offset="1" stop-color="#B9750E"/>
        </linearGradient>
        <linearGradient id="s2u12udiec" x1="68.919" y1="8.778" x2="68.284" y2="34.884" gradientUnits="userSpaceOnUse">
            <stop stop-color="#FFD600"/>
            <stop offset="1" stop-color="#B9750E"/>
        </linearGradient>
        <linearGradient id="p9kavspmpd" x1="68.919" y1="8.778" x2="68.284" y2="34.884" gradientUnits="userSpaceOnUse">
            <stop stop-color="#FFD600"/>
            <stop offset="1" stop-color="#B9750E"/>
        </linearGradient>
        <linearGradient id="k1s8uk26se" x1="68.919" y1="8.778" x2="68.284" y2="34.884" gradientUnits="userSpaceOnUse">
            <stop stop-color="#FFD600"/>
            <stop offset="1" stop-color="#B9750E"/>
        </linearGradient>
        <linearGradient id="7e2s51tdmf" x1="68.919" y1="8.778" x2="68.284" y2="34.884" gradientUnits="userSpaceOnUse">
            <stop stop-color="#FFD600"/>
            <stop offset="1" stop-color="#B9750E"/>
        </linearGradient>
    </defs>
</svg>
