<svg width="134" height="40" viewBox="0 0 134 40" fill="none" xmlns="http://www.w3.org/2000/svg">
    <path d="M16.913.36c5.307 0 9.36 1.373 12.16 4.12 2.827 2.72 4.24 6.533 4.24 11.44 0 3.6-.666 6.693-2 9.28-1.466 1.92-2.92 3.84-4.36 5.76l1.04 1.92c.96 1.467 2.2 2.747 3.72 3.84 1.547 1.093 3.4 1.64 5.56 1.64 1.387 0 2.414-.187 3.08-.56.667-.373 1.4-1.093 2.2-2.16 0 1.093-.706 2.04-2.12 2.84-1.413.827-3.146 1.24-5.2 1.24-2.773 0-4.986-.693-6.64-2.08-1.626-1.36-3.173-3.133-4.64-5.32-.746.373-1.813.68-3.2.92-1.36.267-2.746.4-4.16.4-5.6 0-9.746-1.413-12.44-4.24-2.666-2.827-4-6.533-4-11.12 0-6 1.534-10.48 4.6-13.44C7.847 1.853 11.9.36 16.913.36zm-11.8 13.2c0 6.08 1.214 10.747 3.64 14 2.427 3.253 5.374 4.88 8.84 4.88.827 0 1.76-.093 2.8-.28a12.16 12.16 0 0 0 3-.84c-1.173-2.533-2.626-4.787-4.36-6.76-1.733-2-3.44-3-5.12-3-.906 0-1.613.147-2.12.44-.48.267-.933.653-1.36 1.16.134-1.067.627-1.813 1.48-2.24.854-.427 1.854-.64 3-.64 2.427 0 4.56.907 6.4 2.72 1.867 1.787 3.4 3.947 4.6 6.48.907-.933 1.534-2.2 1.88-3.8.347-1.6.52-3.293.52-5.08 0-2.933-.36-5.813-1.08-8.64-.693-2.853-2-5.28-3.92-7.28-1.893-2.027-4.493-3.04-7.8-3.04-3.36 0-5.933.867-7.72 2.6-1.786 1.733-2.68 4.84-2.68 9.32zm45.008-3.68v16.4c.373 0 .973-.013 1.8-.04a6.67 6.67 0 0 0 2.32-.48c-.08.747-.387 1.36-.92 1.84-.507.48-1.574.72-3.2.72v4.84c0 .667.186 1.187.56 1.56.4.4.8.733 1.2 1h-7.12c.373-.267.746-.6 1.12-1 .4-.4.6-.92.6-1.56v-4.84h-10.2c1.066-1.467 2.466-4.027 4.2-7.68 1.733-3.68 3.08-6.32 4.04-7.92.96-1.6 2.066-2.467 3.32-2.6l2.28-.24zm-3.68 2.44c-1.147 1.387-2.574 3.907-4.28 7.56-1.68 3.627-2.734 5.76-3.16 6.4h7.44V12.32zM73.819 9.6c2.027 0 3.627.427 4.8 1.28 1.2.853 1.8 2.227 1.8 4.12 0 1.387-1.813 3.08-5.44 5.08-3.6 1.973-5.613 3.213-6.04 3.72.614 0 1.24.013 1.88.04h2.04c2.027 0 3.774-.053 5.24-.16 1.494-.133 2.627-.387 3.4-.76-.586.907-1.16 1.8-1.72 2.68-.88.987-2.026 1.48-3.44 1.48L65.74 27c0-1.787.907-3.427 2.72-4.92a316.74 316.74 0 0 0 5.16-3.6c1.787-1.253 2.68-2.533 2.68-3.84 0-1.173-.253-2.093-.76-2.76-.48-.693-1.386-1.04-2.72-1.04-.826 0-1.653.32-2.48.96-.826.613-1.24 1.36-1.24 2.24 0 .693.054 1.267.16 1.72.107.453.4 1.027.88 1.72-1.28-.667-2.133-1.28-2.56-1.84-.4-.587-.6-1.347-.6-2.28 0-1.04.667-1.92 2-2.64 1.36-.747 2.974-1.12 4.84-1.12zm17.754.08c2.186 0 3.893.787 5.12 2.36 1.253 1.573 1.88 3.52 1.88 5.84 0 2.427-.894 4.6-2.68 6.52-1.76 1.893-3.76 2.84-6 2.84-2.134 0-3.84-.787-5.12-2.36-1.28-1.6-1.92-3.6-1.92-6s.88-4.533 2.64-6.4c1.76-1.867 3.786-2.8 6.08-2.8zm-5.2 6.84c0 2.08.306 4.067.92 5.96.613 1.893 1.92 2.84 3.92 2.84 1.12 0 2.026-.48 2.72-1.44.693-.96 1.04-2.187 1.04-3.68 0-2.16-.36-4.133-1.08-5.92-.72-1.813-1.947-2.72-3.68-2.72-1.174 0-2.107.467-2.8 1.4-.694.933-1.04 2.12-1.04 3.56zM108.78 9.6c2.027 0 3.627.427 4.8 1.28 1.2.853 1.8 2.227 1.8 4.12 0 1.387-1.813 3.08-5.44 5.08-3.6 1.973-5.613 3.213-6.04 3.72.614 0 1.24.013 1.88.04h2.04c2.027 0 3.774-.053 5.24-.16 1.494-.133 2.627-.387 3.4-.76-.586.907-1.16 1.8-1.72 2.68-.88.987-2.026 1.48-3.44 1.48L100.7 27c0-1.787.907-3.427 2.72-4.92a316.74 316.74 0 0 0 5.16-3.6c1.787-1.253 2.68-2.533 2.68-3.84 0-1.173-.253-2.093-.76-2.76-.48-.693-1.386-1.04-2.72-1.04-.826 0-1.653.32-2.48.96-.826.613-1.24 1.36-1.24 2.24 0 .693.054 1.267.16 1.72.107.453.4 1.027.88 1.72-1.28-.667-2.133-1.28-2.56-1.84-.4-.587-.6-1.347-.6-2.28 0-1.04.667-1.92 2-2.64 1.36-.747 2.974-1.12 4.84-1.12zm16.953 0c2.027 0 3.627.427 4.8 1.28 1.2.853 1.8 2.227 1.8 4.12 0 1.387-1.813 3.08-5.44 5.08-3.6 1.973-5.613 3.213-6.04 3.72.614 0 1.24.013 1.88.04h2.04c2.027 0 3.774-.053 5.24-.16 1.494-.133 2.627-.387 3.4-.76-.586.907-1.16 1.8-1.72 2.68-.88.987-2.026 1.48-3.44 1.48l-10.6-.08c0-1.787.907-3.427 2.72-4.92a316.74 316.74 0 0 0 5.16-3.6c1.787-1.253 2.68-2.533 2.68-3.84 0-1.173-.253-2.093-.76-2.76-.48-.693-1.386-1.04-2.72-1.04-.826 0-1.653.32-2.48.96-.826.613-1.24 1.36-1.24 2.24 0 .693.054 1.267.16 1.72.107.453.4 1.027.88 1.72-1.28-.667-2.133-1.28-2.56-1.84-.4-.587-.6-1.347-.6-2.28 0-1.04.667-1.92 2-2.64 1.36-.747 2.974-1.12 4.84-1.12z" fill="url(#8u6t7okw8a)"/>
    <path d="m29.073 4.48-1.05 1.07.005.006.005.005 1.04-1.081zm2.24 20.72 1.192.91.081-.105.06-.118-1.333-.687zm-4.36 5.76-1.2-.9-.576.77.457.844 1.32-.714zm1.04 1.92-1.319.714.03.055.034.053 1.255-.822zm3.72 3.84-.876 1.218.01.007.866-1.225zm10.84-1.08h1.5v-4.5l-2.7 3.6 1.2.9zm-2.12 2.84-.739-1.305-.009.005-.009.005.757 1.295zm-11.84-.84.964-1.15h-.001l-.963 1.15zm-4.64-5.32 1.246-.836-.735-1.096-1.181.59.67 1.342zm-3.2.92-.255-1.478-.017.003-.016.003.288 1.472zm-16.6-3.84-1.09 1.03.004.005L4.153 29.4zm.6-24.56 1.042 1.08-1.042-1.08zm4 22.72 1.203-.897-1.203.897zm11.64 4.6-.222-1.483-.021.003-.022.004.265 1.476zm3-.84.591 1.379 1.42-.608-.65-1.401-1.36.63zm-4.36-6.76-1.133.982.007.008 1.126-.99zM11.793 22l.729 1.311.011-.006.012-.007L11.793 22zm-1.36 1.16-1.488-.186-.629 5.029 3.265-3.877-1.148-.966zm10.88-.16-1.052 1.068.007.008.008.008L21.313 23zm4.6 6.48-1.355.642.925 1.954 1.506-1.55-1.076-1.046zm1.88-3.8 1.466.318-1.466-.318zm-.56-13.72-1.457.354.002.008.002.008 1.453-.37zm-3.92-7.28-1.096 1.024.007.007.007.008 1.082-1.039zm-15.52-.44 1.045 1.077L7.793 4.24zm9.12-2.38c5.056 0 8.678 1.305 11.11 3.69l2.1-2.14c-3.167-3.108-7.652-4.55-13.21-4.55v3zm11.12 3.7c2.463 2.37 3.78 5.753 3.78 10.36h3c0-5.206-1.509-9.45-4.7-12.52l-2.08 2.16zm3.78 10.36c0 3.417-.632 6.263-1.833 8.593l2.667 1.374c1.466-2.843 2.166-6.184 2.166-9.967h-3zm-1.692 8.37a820.884 820.884 0 0 0-4.368 5.77l2.4 1.8a819.524 819.524 0 0 1 4.352-5.75l-2.384-1.82zm-4.486 7.384c.051.096.077.145.13.24l.13.24.13.24.13.24.52.96 2.637-1.428-.26-.48-.26-.48c-.15-.28-.369-.681-.52-.96l-2.637 1.428zm1.103 2.028c1.068 1.63 2.44 3.042 4.1 4.236l1.751-2.436c-1.38-.993-2.488-2.141-3.34-3.444l-2.51 1.644zm4.11 4.243c1.834 1.297 4 1.915 6.425 1.915v-3c-1.895 0-3.435-.475-4.694-1.365l-1.731 2.45zm6.425 1.915c1.466 0 2.807-.187 3.813-.751l-1.465-2.618c-.327.183-1.04.369-2.348.369v3zm3.813-.751c.938-.525 1.822-1.441 2.667-2.569l-2.4-1.8c-.754 1.006-1.337 1.53-1.733 1.751l1.466 2.618zm-.033-3.469c0 .316-.165.86-1.358 1.535l1.477 2.61c1.634-.924 2.881-2.275 2.881-4.145h-3zm-1.377 1.545c-1.132.662-2.589 1.035-4.443 1.035v3c2.253 0 4.263-.454 5.958-1.445l-1.515-2.59zm-4.443 1.035c-2.523 0-4.362-.627-5.676-1.73l-1.927 2.3c1.992 1.67 4.58 2.43 7.603 2.43v-3zm-5.677-1.73c-1.495-1.25-2.951-2.91-4.357-5.006l-2.491 1.672c1.527 2.277 3.165 4.165 4.923 5.635l1.925-2.302zm-6.273-5.512c-.557.279-1.459.554-2.785.784l.511 2.956c1.447-.25 2.678-.588 3.615-1.056l-1.341-2.684zm-2.818.79a20.065 20.065 0 0 1-3.872.372v3c1.509 0 2.992-.142 4.45-.428l-.578-2.944zm-3.872.372c-5.37 0-9.048-1.355-11.354-3.775l-2.172 2.07c3.081 3.233 7.697 4.705 13.526 4.705v-3zM5.245 28.37c-2.358-2.498-3.592-5.813-3.592-10.09h-3c0 4.896 1.434 8.995 4.41 12.15l2.182-2.06zM1.653 18.28c0-5.762 1.471-9.782 4.142-12.36L3.712 3.76C.25 7.103-1.347 12.043-1.347 18.28h3zM5.795 5.92c2.768-2.673 6.425-4.06 11.118-4.06v-3c-5.332 0-9.782 1.6-13.201 4.9l2.083 2.16zm-2.182 7.64c0 6.25 1.243 11.284 3.938 14.897l2.405-1.794C7.797 23.77 6.613 19.47 6.613 13.56h-3zm3.938 14.897c2.655 3.56 6.018 5.483 10.042 5.483v-3c-2.908 0-5.439-1.33-7.637-4.277L7.55 28.457zm10.042 5.483c.936 0 1.96-.105 3.065-.304l-.53-2.952c-.975.175-1.817.256-2.535.256v3zm3.023-.297a13.66 13.66 0 0 0 3.368-.944l-1.181-2.758c-.809.347-1.684.593-2.632.736l.445 2.966zm4.139-2.953c-1.23-2.656-2.76-5.032-4.595-7.12l-2.253 1.98c1.632 1.859 3.009 3.99 4.125 6.4l2.723-1.26zm-4.588-7.112c-1.856-2.142-3.94-3.518-6.254-3.518v3c1.047 0 2.376.624 3.987 2.482l2.267-1.964zm-6.254-3.518c-1.038 0-2.044.163-2.871.642l1.503 2.596c.186-.107.593-.238 1.368-.238v-3zm-2.848.629c-.669.371-1.258.887-1.779 1.505l2.295 1.932c.333-.395.65-.653.94-.815l-1.456-2.622zm.857 2.657c.08-.643.32-.913.662-1.084l-1.341-2.684c-1.365.683-2.112 1.905-2.298 3.396l2.977.372zm.662-1.084c.607-.304 1.37-.482 2.33-.482v-3c-1.334 0-2.572.249-3.671.798l1.341 2.684zm2.33-.482c2.005 0 3.767.732 5.347 2.288l2.105-2.136c-2.1-2.07-4.605-3.152-7.453-3.152v3zm5.362 2.304c1.724 1.65 3.154 3.656 4.282 6.038l2.711-1.284c-1.272-2.685-2.909-4.998-4.918-6.922l-2.075 2.168zm6.713 6.441c1.147-1.18 1.88-2.723 2.27-4.527l-2.931-.636c-.303 1.396-.824 2.387-1.49 3.073l2.151 2.09zm2.27-4.527c.372-1.714.554-3.514.554-5.398h-3c0 1.69-.163 3.276-.485 4.762l2.931.636zm.554-5.398c0-3.058-.375-6.062-1.126-9.01l-2.907.74a33.366 33.366 0 0 1 1.033 8.27h3zm-1.122-8.994c-.752-3.095-2.181-5.762-4.296-7.965L22.231 5.72c1.726 1.797 2.91 3.983 3.545 6.595l2.915-.708zm-4.281-7.95C22.178 1.268 19.149.14 15.513.14v3c2.978 0 5.149.899 6.704 2.564l2.193-2.048zM15.513.14c-3.61 0-6.611.935-8.764 3.023l2.089 2.154c1.42-1.378 3.566-2.177 6.675-2.177v-3zM6.75 3.163C4.511 5.335 3.613 8.972 3.613 13.56h3c0-4.372.89-6.948 2.225-8.243L6.749 3.163zM50.121 9.88h1.5V8.214l-1.657.174.157 1.492zm0 16.4h-1.5v1.5h1.5v-1.5zm1.8-.04-.049-1.5.049 1.5zm2.32-.48 1.491.16.267-2.496-2.324.947.566 1.389zm-.92 1.84-1.004-1.115-.014.013-.014.013 1.032 1.089zm-3.2.72v-1.5h-1.5v1.5h1.5zm.56 6.4-1.061 1.06 1.06-1.06zm1.2 1v1.5h4.954l-4.122-2.748-.832 1.248zm-7.12 0-.872-1.22-3.81 2.72h4.682v-1.5zm1.12-1-1.061-1.06-.018.018-.018.019 1.097 1.023zm.6-6.4h1.5v-1.5h-1.5v1.5zm-10.2 0-1.213-.882-1.733 2.382h2.946v-1.5zm4.2-7.68 1.355.643.002-.004-1.357-.639zm4.04-7.92 1.286.772-1.286-.772zm3.32-2.6-.157-1.492h-.002l.159 1.492zm-1.4 2.2h1.5V8.152l-2.656 3.212 1.156.956zm-4.28 7.56-1.36-.635-.001.005 1.36.63zM39 26.28l-1.248-.832-1.555 2.332H39v-1.5zm7.44 0v1.5h1.5v-1.5h-1.5zm2.18-16.4v16.4h3V9.88h-3zm1.5 17.9c.399 0 1.02-.014 1.848-.04l-.097-3c-.825.027-1.404.04-1.751.04v3zm1.848-.04a8.167 8.167 0 0 0 2.838-.59l-1.132-2.78a5.171 5.171 0 0 1-1.803.37l.097 3zm.78-2.14c-.043.398-.187.665-.432.885l2.007 2.23c.822-.74 1.29-1.7 1.408-2.795l-2.983-.32zm-.46.911c.024-.023-.072.074-.478.166-.386.087-.94.143-1.69.143v3c.876 0 1.669-.064 2.349-.217.66-.148 1.352-.411 1.882-.914L52.29 26.51zm-3.668 1.809v4.84h3v-4.84h-3zm0 4.84c0 .955.275 1.897.999 2.62l2.121-2.12c-.023-.023-.12-.121-.12-.5h-3zm.999 2.62c.458.459.934.858 1.429 1.188l1.664-2.496a6.453 6.453 0 0 1-.972-.813l-2.121 2.122zm2.26-1.56h-7.12v3h7.12v-3zm-6.248 2.72a9.055 9.055 0 0 0 1.345-1.197l-2.193-2.047c-.318.341-.617.605-.895.803l1.743 2.442zm1.31-1.16c.718-.718 1.039-1.64 1.039-2.62h-3c0 .3-.08.419-.161.5l2.121 2.12zm1.039-2.62v-4.84h-3v4.84h3zm-1.5-6.34h-10.2v3h10.2v-3zm-8.987 2.382c1.155-1.588 2.605-4.258 4.342-7.919l-2.71-1.286c-1.73 3.646-3.08 6.096-4.058 7.44l2.426 1.765zm4.344-7.923c1.73-3.674 3.05-6.256 3.969-7.787l-2.573-1.544c-1.001 1.67-2.375 4.367-4.11 8.053l2.714 1.278zm3.969-7.787c.839-1.399 1.6-1.817 2.192-1.88l-.317-2.984c-1.914.204-3.367 1.518-4.448 3.32l2.573 1.544zm2.19-1.88 2.28-.24-.313-2.984-2.28.24.314 2.984zm-2.712-.248c-1.279 1.546-2.773 4.219-4.483 7.881l2.718 1.27c1.702-3.645 3.062-6.012 4.077-7.24l-2.312-1.91zM40.8 19.25a200.917 200.917 0 0 1-2.034 4.286c-.535 1.083-.863 1.687-1.014 1.912l2.497 1.664c.276-.415.688-1.198 1.207-2.248a203.79 203.79 0 0 0 2.066-4.354L40.8 19.25zM39 27.78h7.44v-3H39v3zm8.94-1.5V12.32h-3v13.96h3zm30.68-15.4-.883 1.213.007.005.006.004.87-1.222zm-3.64 9.2.72 1.315.004-.002-.725-1.313zm-6.04 3.72-1.148-.966-2.077 2.466h3.224v-1.5zm1.88.04-.063 1.499.031.001h.031v-1.5zm7.28-.16.108 1.496h.013l.012-.002-.134-1.494zm3.4-.76 1.259.815 2.906-4.492-4.818 2.326.652 1.351zm-1.72 2.68 1.119.998.08-.09.066-.103-1.266-.805zm-3.44 1.48-.012 1.5h.011v-1.5zM65.74 27h-1.5v1.489l1.488.011.011-1.5zm2.72-4.92-.846-1.239-.056.038-.052.043.953 1.158zm5.16-3.6-.862-1.228-.009.006.87 1.222zm1.92-6.6-1.234.854.019.027.02.027 1.194-.908zm-5.2-.08.893 1.205.013-.01.012-.009-.919-1.186zm-1.08 3.96 1.46-.344-1.46.344zm.88 1.72-.694 1.33 1.927-2.184-1.234.854zm-2.56-1.84-1.24.845.022.033.024.031 1.193-.909zm1.4-4.92.712 1.32.01-.005-.723-1.315zm4.84.38c1.832 0 3.084.387 3.917.993l1.765-2.426C77.988 8.567 76.04 8.1 73.819 8.1v3zm3.93 1.002c.694.494 1.17 1.336 1.17 2.898h3c0-2.225-.725-4.129-2.431-5.342l-1.739 2.444zM78.92 15c0 .05-.06.444-.884 1.214-.776.724-2.014 1.578-3.781 2.553l1.449 2.627c1.86-1.026 3.342-2.02 4.38-2.988.988-.923 1.835-2.069 1.835-3.406h-3zm-4.662 3.765c-1.808.991-3.237 1.808-4.275 2.448-.518.319-.955.603-1.3.85-.31.223-.653.488-.891.77l2.295 1.933c-.025.03.045-.05.343-.264.266-.19.637-.434 1.126-.735.975-.6 2.353-1.39 4.144-2.372l-1.442-2.63zM68.94 25.3c.592 0 1.198.013 1.818.039l.125-2.998a46.662 46.662 0 0 0-1.943-.041v3zm1.88.04h2.04v-3h-2.04v3zm2.04 0c2.05 0 3.836-.054 5.35-.164l-.218-2.992c-1.42.103-3.129.156-5.132.156v3zm5.374-.166c1.56-.14 2.904-.413 3.918-.903l-1.304-2.702c-.532.257-1.454.49-2.881.617l.267 2.988zm2.007-3.069c-.589.91-1.164 1.806-1.726 2.69l2.53 1.61c.559-.876 1.13-1.767 1.715-2.67l-2.519-1.63zm-1.58 2.497c-.574.643-1.302.978-2.32.978v3c1.807 0 3.373-.652 4.559-1.982l-2.24-1.996zm-2.31.978-10.6-.08-.022 3 10.6.08.023-3zM67.24 27c0-1.206.589-2.458 2.173-3.762l-1.907-2.316c-2.043 1.682-3.267 3.711-3.267 6.078h3zm2.065-3.681a317.46 317.46 0 0 0 5.184-3.617l-1.74-2.444a315.208 315.208 0 0 1-5.135 3.583l1.691 2.478zm5.176-3.611c1.918-1.346 3.318-3.017 3.318-5.068h-3c0 .562-.386 1.451-2.041 2.612l1.723 2.456zm3.318-5.068c0-1.373-.295-2.653-1.065-3.668l-2.389 1.816c.243.319.454.878.454 1.852h3zm-1.026-3.614c-.894-1.29-2.422-1.686-3.954-1.686v3c1.136 0 1.42.298 1.487.394l2.467-1.708zM72.819 9.34c-1.238 0-2.379.485-3.398 1.274l1.837 2.372c.634-.491 1.147-.646 1.561-.646v-3zm-3.373 1.255c-1.135.842-1.847 2.005-1.847 3.445h3c0-.32.115-.65.634-1.035l-1.787-2.41zm-1.847 3.445c0 .759.058 1.457.2 2.064l2.92-.688c-.07-.3-.12-.748-.12-1.376h-3zm.2 2.064c.172.728.592 1.487 1.107 2.23l2.467-1.708c-.446-.643-.612-1.032-.654-1.21l-2.92.688zm3.033.046c-1.247-.65-1.845-1.138-2.06-1.42l-2.386 1.82c.64.838 1.748 1.577 3.06 2.26l1.386-2.66zm-2.013-1.355c-.184-.27-.34-.71-.34-1.435h-3c0 1.141.245 2.222.861 3.125l2.479-1.69zm-.34-1.435c0-.256.118-.729 1.213-1.32L68.267 9.4c-1.572.849-2.788 2.136-2.788 3.96h3zm1.222-1.325c1.098-.603 2.453-.935 4.118-.935v-3c-2.068 0-3.94.415-5.562 1.305l1.444 2.63zm26.992.005-1.183.922.004.007.005.006 1.173-.935zm-.8 12.36-1.099-1.022 1.099 1.022zm-11.12.48-1.172.937.008.01 1.163-.947zm.72-12.4 1.09 1.029-1.09-1.029zm1.8 10-1.428.462 1.428-.462zm6.64 1.4-1.217-.878 1.217.878zm-.04-9.6-1.395.554.003.007 1.391-.561zm-6.48-1.32-1.205-.895 1.204.895zm4.16-1.78c1.775 0 3.024.612 3.937 1.782l2.365-1.844c-1.54-1.977-3.704-2.938-6.302-2.938v3zm3.946 1.795c1.01 1.268 1.553 2.87 1.553 4.905h3.001c0-2.605-.71-4.896-2.207-6.775l-2.347 1.87zm1.553 4.905c0 2.015-.726 3.831-2.278 5.498l2.197 2.044c2.022-2.173 3.082-4.704 3.082-7.542h-3zm-2.278 5.499c-1.524 1.64-3.144 2.361-4.901 2.361v3c2.722 0 5.102-1.172 7.098-3.319l-2.197-2.042zm-4.901 2.361c-1.71 0-2.978-.604-3.957-1.807l-2.327 1.894c1.581 1.943 3.726 2.913 6.284 2.913v-3zm-3.95-1.797c-1.031-1.29-1.59-2.943-1.59-5.063h-3c0 2.68.72 5.027 2.248 6.937l2.343-1.874zm-1.59-5.063c0-1.99.714-3.762 2.23-5.371l-2.182-2.058c-2.002 2.124-3.048 4.618-3.048 7.429h3zm2.23-5.371c1.515-1.605 3.16-2.329 4.99-2.329v-3c-2.758 0-5.166 1.143-7.172 3.271l2.183 2.058zm-1.71 3.011c0 2.23.329 4.373.992 6.422l2.855-.924a17.719 17.719 0 0 1-.847-5.498h-3zm.992 6.422c.382 1.178 1.022 2.183 1.988 2.883.965.699 2.12.995 3.36.995v-3c-.761 0-1.259-.177-1.6-.425-.341-.247-.662-.661-.894-1.377l-2.853.924zm5.348 3.878c1.633 0 2.98-.738 3.936-2.062l-2.433-1.756c-.43.596-.897.818-1.503.818v3zm3.936-2.062c.92-1.275 1.323-2.832 1.323-4.558h-3c0 1.261-.29 2.157-.755 2.802l2.431 1.756zm1.323-4.558c0-2.329-.388-4.495-1.188-6.48L92.5 14.84c.64 1.589.971 3.369.971 5.36h3zm-1.185-6.474c-.435-1.095-1.07-2.032-1.963-2.692-.906-.67-1.97-.974-3.111-.974v3c.59 0 1.007.15 1.328.386.333.247.672.67.957 1.388l2.789-1.108zm-5.075-3.666c-1.642 0-3.024.687-4.004 2.005l2.409 1.79c.407-.549.892-.795 1.596-.795v-3zm-4.004 2.005c-.927 1.249-1.335 2.771-1.335 4.455h3c0-1.196.284-2.047.744-2.665l-2.409-1.79zm27.372-1.185-.882 1.213.007.005.006.004.869-1.222zm-3.64 9.2.721 1.315.004-.002-.725-1.313zm-6.04 3.72-1.147-.966-2.077 2.466h3.224v-1.5zm1.88.04-.062 1.499.031.001h.031v-1.5zm7.28-.16.109 1.496h.012l.013-.002-.134-1.494zm3.4-.76 1.26.815 2.906-4.492-4.818 2.326.652 1.351zm-1.72 2.68 1.12.998.081-.09.065-.103-1.266-.805zm-3.44 1.48-.011 1.5h.011v-1.5zM100.7 27h-1.5v1.489l1.489.011.011-1.5zm2.72-4.92-.845-1.239-.056.038-.052.043.953 1.158zm5.16-3.6-.861-1.228-.009.006.87 1.222zm1.92-6.6-1.233.854.019.027.02.027 1.194-.908zm-5.2-.08.894 1.205.012-.01.013-.009-.919-1.186zm-1.08 3.96 1.46-.344-1.46.344zm.88 1.72-.693 1.33 1.927-2.184-1.234.854zm-2.56-1.84-1.239.845.022.033.024.031 1.193-.909zm1.4-4.92.713 1.32.009-.005-.722-1.315zm4.84.38c1.832 0 3.085.387 3.918.993l1.765-2.426c-1.514-1.1-3.461-1.567-5.683-1.567v3zm3.931 1.002c.694.494 1.169 1.336 1.169 2.898h3c0-2.225-.724-4.129-2.43-5.342l-1.739 2.444zM113.88 15c0 .05-.059.444-.883 1.214-.777.724-2.014 1.578-3.781 2.553l1.449 2.627c1.86-1.026 3.342-2.02 4.379-2.988.989-.923 1.836-2.069 1.836-3.406h-3zm-4.661 3.765c-1.808.991-3.237 1.808-4.275 2.448-.518.319-.955.603-1.299.85-.312.223-.654.488-.892.77l2.295 1.933c-.025.03.045-.05.343-.264.266-.19.637-.434 1.126-.735.975-.6 2.353-1.39 4.144-2.372l-1.442-2.63zM103.9 25.3c.592 0 1.198.013 1.818.039l.125-2.998a46.694 46.694 0 0 0-1.943-.041v3zm1.88.04H107.82v-3h-2.04v3zm2.04 0c2.051 0 3.836-.054 5.349-.164l-.217-2.992c-1.42.103-3.129.156-5.132.156v3zm5.374-.166c1.559-.14 2.904-.413 3.918-.903l-1.304-2.702c-.532.257-1.454.49-2.881.617l.267 2.988zm2.007-3.069c-.589.91-1.164 1.806-1.726 2.69l2.531 1.61c.558-.876 1.129-1.767 1.714-2.67l-2.519-1.63zm-1.58 2.497c-.574.643-1.302.978-2.321.978v3c1.808 0 3.374-.652 4.56-1.982l-2.239-1.996zm-2.309.978-10.6-.08-.023 3 10.6.08.023-3zM102.2 27c0-1.206.59-2.458 2.174-3.762l-1.907-2.316C100.424 22.604 99.2 24.633 99.2 27h3zm2.066-3.681a313.613 313.613 0 0 0 5.184-3.617l-1.74-2.444a314.343 314.343 0 0 1-5.135 3.583l1.691 2.478zm5.176-3.611c1.918-1.346 3.318-3.017 3.318-5.068h-3c0 .562-.386 1.451-2.041 2.612l1.723 2.456zm3.318-5.068c0-1.373-.295-2.653-1.065-3.668l-2.389 1.816c.243.319.454.878.454 1.852h3zm-1.026-3.614c-.894-1.29-2.422-1.686-3.954-1.686v3c1.136 0 1.421.298 1.487.394l2.467-1.708zM107.78 9.34c-1.238 0-2.379.485-3.398 1.274l1.837 2.372c.634-.491 1.147-.646 1.561-.646v-3zm-3.373 1.255c-1.135.842-1.847 2.005-1.847 3.445h3c0-.32.115-.65.634-1.035l-1.787-2.41zm-1.847 3.445c0 .759.058 1.457.2 2.064l2.92-.688c-.07-.3-.12-.748-.12-1.376h-3zm.2 2.064c.172.728.592 1.487 1.107 2.23l2.467-1.708c-.446-.643-.612-1.032-.654-1.21l-2.92.688zm3.033.046c-1.247-.65-1.845-1.138-2.06-1.42l-2.386 1.82c.639.838 1.748 1.577 3.06 2.26l1.386-2.66zm-2.013-1.355c-.185-.27-.34-.71-.34-1.435h-3c0 1.141.245 2.222.861 3.125l2.479-1.69zm-.34-1.435c0-.256.118-.729 1.213-1.32l-1.425-2.64c-1.572.849-2.788 2.136-2.788 3.96h3zm1.222-1.325c1.098-.603 2.453-.935 4.118-.935v-3c-2.068 0-3.94.415-5.562 1.305l1.444 2.63zm25.871-1.155-.882 1.213.007.005.006.004.869-1.222zm-3.64 9.2.721 1.315.004-.002-.725-1.313zm-6.04 3.72-1.147-.966-2.077 2.466h3.224v-1.5zm1.88.04-.062 1.499.031.001h.031v-1.5zm7.28-.16.109 1.496h.013l.012-.002-.134-1.494zm3.4-.76 1.26.815 2.906-4.492-4.818 2.326.652 1.351zm-1.72 2.68 1.12.998.081-.09.065-.103-1.266-.805zm-3.44 1.48-.011 1.5h.011v-1.5zm-10.6-.08h-1.5v1.489l1.489.011.011-1.5zm2.72-4.92-.845-1.239-.056.038-.052.043.953 1.158zm5.16-3.6-.861-1.228-.009.006.87 1.222zm1.92-6.6-1.233.854.019.027.02.027 1.194-.908zm-5.2-.08.894 1.205.013-.01.012-.009-.919-1.186zm-1.08 3.96 1.461-.344-1.461.344zm.88 1.72-.692 1.33 1.926-2.184-1.234.854zm-2.56-1.84-1.239.845.022.033.024.031 1.193-.909zm1.4-4.92.713 1.32.009-.005-.722-1.315zm4.84.38c1.833 0 3.085.387 3.918.993l1.765-2.426c-1.514-1.1-3.461-1.567-5.683-1.567v3zm3.931 1.002c.694.494 1.169 1.336 1.169 2.898h3c0-2.225-.724-4.129-2.43-5.342l-1.739 2.444zM130.833 15c0 .05-.059.444-.883 1.214-.776.724-2.014 1.578-3.781 2.553l1.449 2.627c1.86-1.026 3.342-2.02 4.379-2.988.989-.923 1.836-2.069 1.836-3.406h-3zm-4.661 3.765c-1.808.991-3.237 1.808-4.275 2.448-.518.319-.955.603-1.299.85-.312.223-.654.488-.892.77l2.295 1.933c-.025.03.045-.05.343-.264.266-.19.638-.434 1.126-.735.975-.6 2.353-1.39 4.144-2.372l-1.442-2.63zm-5.319 6.535c.592 0 1.198.013 1.818.039l.125-2.998a46.694 46.694 0 0 0-1.943-.041v3zm1.88.04H124.773v-3h-2.04v3zm2.04 0c2.051 0 3.836-.054 5.349-.164l-.217-2.992c-1.42.103-3.129.156-5.132.156v3zm5.374-.166c1.56-.14 2.904-.413 3.919-.903l-1.305-2.702c-.532.257-1.454.49-2.881.617l.267 2.988zm2.007-3.069c-.589.91-1.164 1.806-1.726 2.69l2.531 1.61c.558-.876 1.129-1.767 1.714-2.67l-2.519-1.63zm-1.58 2.497c-.574.643-1.302.978-2.321.978v3c1.808 0 3.374-.652 4.56-1.982l-2.239-1.996zm-2.309.978-10.6-.08-.023 3 10.6.08.023-3zM119.153 27c0-1.206.59-2.458 2.174-3.762l-1.907-2.316c-2.043 1.682-3.267 3.711-3.267 6.078h3zm2.066-3.681a317.892 317.892 0 0 0 5.185-3.617l-1.741-2.444a314.343 314.343 0 0 1-5.135 3.583l1.691 2.478zm5.176-3.611c1.918-1.346 3.318-3.017 3.318-5.068h-3c0 .562-.386 1.451-2.041 2.612l1.723 2.456zm3.318-5.068c0-1.373-.295-2.653-1.065-3.668l-2.389 1.816c.243.319.454.878.454 1.852h3zm-1.026-3.614c-.894-1.29-2.422-1.686-3.954-1.686v3c1.136 0 1.421.298 1.487.394l2.467-1.708zm-3.954-1.686c-1.238 0-2.379.485-3.398 1.274l1.837 2.372c.634-.491 1.147-.646 1.561-.646v-3zm-3.373 1.255c-1.135.842-1.847 2.005-1.847 3.445h3c0-.32.115-.65.634-1.035l-1.787-2.41zm-1.847 3.445c0 .759.058 1.457.2 2.064l2.921-.688c-.071-.3-.121-.748-.121-1.376h-3zm.2 2.064c.172.728.593 1.487 1.107 2.23l2.467-1.708c-.446-.643-.612-1.032-.653-1.21l-2.921.688zm3.033.046c-1.247-.65-1.845-1.138-2.059-1.42l-2.387 1.82c.64.838 1.748 1.577 3.061 2.26l1.385-2.66zm-2.013-1.355c-.184-.27-.34-.71-.34-1.435h-3c0 1.141.245 2.222.861 3.125l2.479-1.69zm-.34-1.435c0-.256.118-.729 1.213-1.32l-1.425-2.64c-1.572.849-2.788 2.136-2.788 3.96h3zm1.222-1.325c1.098-.603 2.453-.935 4.118-.935v-3c-2.068 0-3.939.415-5.561 1.305l1.443 2.63z" fill="#764E01"/>
    <defs>
        <linearGradient id="8u6t7okw8a" x1="66.919" y1="6.778" x2="66.284" y2="32.884" gradientUnits="userSpaceOnUse">
            <stop stop-color="#FFD600"/>
            <stop offset="1" stop-color="#B9750E"/>
        </linearGradient>
    </defs>
</svg>
