<svg width="327" height="177" fill="none" xmlns="http://www.w3.org/2000/svg">
    <path d="M10.936 177c1.007 0 1.976-.129 2.906-.386a10.976 10.976 0 0 0 4.827-2.789 10.874 10.874 0 0 0 2.815-4.786c.259-.922.388-1.882.388-2.88 0-.071-.005-.139-.015-.204l-.03-.204h-10.89v3.749h6.283a7.62 7.62 0 0 1-1.105 1.528c-.433.463-.92.861-1.465 1.194a7.407 7.407 0 0 1-1.754.779 6.838 6.838 0 0 1-1.96.279 7.04 7.04 0 0 1-2.791-.559 7.262 7.262 0 0 1-2.288-1.527 7.187 7.187 0 0 1-1.54-2.268 6.874 6.874 0 0 1-.565-2.767c0-.988.188-1.913.565-2.775a7.22 7.22 0 0 1 1.54-2.26 7.262 7.262 0 0 1 2.288-1.527 7.04 7.04 0 0 1 2.791-.56c.966 0 1.869.177 2.708.53a7.386 7.386 0 0 1 2.234 1.451l2.471-2.132.381-.332a10.96 10.96 0 0 0-3.492-2.374c-1.332-.575-2.766-.862-4.302-.862-1.006 0-1.975.129-2.905.386a10.975 10.975 0 0 0-4.828 2.789 10.876 10.876 0 0 0-2.814 4.786c-.26.922-.389 1.882-.389 2.88s.13 1.958.389 2.88a10.876 10.876 0 0 0 5.026 6.479c.813.474 1.685.839 2.616 1.096.93.257 1.899.386 2.905.386zm24.19 0c3.032 0 5.61-1.028 7.73-3.084 2.101-2.067 3.152-4.632 3.152-7.697 0-2.993-1.087-5.569-3.259-7.726-2.152-2.117-4.693-3.175-7.624-3.175-1.967 0-3.807.484-5.518 1.452-1.721.977-3.053 2.293-3.996 3.946-.984 1.633-1.476 3.467-1.476 5.503 0 2.873 1.045 5.408 3.136 7.606C29.38 175.942 32 177 35.125 177zm.006-3.738a6.629 6.629 0 0 1-4.339-1.557c-1.673-1.373-2.51-3.219-2.51-5.538 0-2.065.645-3.754 1.935-5.066 1.26-1.363 2.863-2.045 4.808-2.045 1.925 0 3.533.682 4.823 2.045 1.34 1.414 2.01 3.102 2.01 5.066 0 2.044-.67 3.728-2.01 5.05-.665.671-1.389 1.18-2.17 1.526a6.219 6.219 0 0 1-2.547.519zM59.26 177c3.034 0 5.61-1.028 7.732-3.084 2.1-2.067 3.15-4.632 3.15-7.697 0-2.993-1.085-5.569-3.258-7.726-2.152-2.117-4.693-3.175-7.624-3.175-1.967 0-3.806.484-5.518 1.452-1.721.977-3.053 2.293-3.996 3.946-.984 1.633-1.476 3.467-1.476 5.503 0 2.873 1.046 5.408 3.136 7.606 2.11 2.117 4.729 3.175 7.854 3.175zm.007-3.738a6.629 6.629 0 0 1-4.339-1.557c-1.673-1.373-2.51-3.219-2.51-5.538 0-2.065.646-3.754 1.936-5.066 1.26-1.363 2.862-2.045 4.807-2.045 1.925 0 3.533.682 4.823 2.045 1.34 1.414 2.01 3.102 2.01 5.066 0 2.044-.67 3.728-2.01 5.05-.665.671-1.388 1.18-2.17 1.526a6.219 6.219 0 0 1-2.547.519zM77.45 177c1.895 0 3.411-.544 4.548-1.633 1.147-1.089 1.72-2.5 1.72-4.234 0-1.764-.697-3.326-2.094-4.687-.15-.121-.379-.322-.688-.605a50.906 50.906 0 0 0-2.05-1.799 189.748 189.748 0 0 1-1.862-1.655 19.785 19.785 0 0 1-.995-.945c-.19-.323-.284-.635-.284-.938 0-.393.16-.716.478-.968.24-.252.649-.378 1.227-.378 1.037 0 2.05.701 3.037 2.102l2.948-2.585a17.937 17.937 0 0 0-1.586-1.588c-.499-.433-.983-.766-1.452-.998a5.882 5.882 0 0 0-2.947-.771c-1.536 0-2.862.514-3.98 1.542-1.077 1.038-1.615 2.283-1.615 3.735 0 .968.349 1.955 1.047 2.963.329.494.85 1.092 1.563 1.792.713.701 1.614 1.51 2.7 2.427.57.484 1.043.899 1.422 1.247.38.348.668.638.868.87.31.483.464.962.464 1.436 0 .484-.22.932-.659 1.346a2.685 2.685 0 0 1-1.705.574c-1.237 0-2.344-.927-3.322-2.782l-3.336 2.011c1.496 3.014 3.68 4.521 6.553 4.521zm22.108 0v-4.037h-8.846v-4.838h8.846v-3.932h-8.846v-4.838h8.846v-4.037H86.736V177h12.822zm16.981 0v-8.875h7.908v-3.932h-7.908v-4.838h7.908v-4.037h-12.068V177h4.16zm14.889 0 5.148-7.59 5.025 7.59h4.718l-2.359-3.553a789.83 789.83 0 0 1-1.723-2.601 4702.16 4702.16 0 0 1-3.302-5.005l-7.093-10.523h-4.719l6.986 10.523L126.71 177h4.718zm8.994-13.458 5.143-8.224h-4.633l-2.909 4.537 2.399 3.687zM116.539 177v-8.875h7.908v-3.932h-7.908v-4.838h7.908v-4.037h-12.068V177h4.16zm14.889 0 5.148-7.59 5.025 7.59h4.718l-2.359-3.553a789.83 789.83 0 0 1-1.723-2.601 4702.16 4702.16 0 0 1-3.302-5.005l-7.093-10.523h-4.719l6.986 10.523L126.71 177h4.718zm8.994-13.458 5.143-8.224h-4.633l-2.909 4.537 2.399 3.687z" fill="#fff"/>
    <path d="M213.712 35.703a7.566 7.566 0 0 1 6.059 3.024l30.32 40.546a2.226 2.226 0 0 1-.087 2.781l-66.749 78.539a1.517 1.517 0 0 1-2.125.18 1.486 1.486 0 0 1-.323-1.911l46.219-76.59c.471-.78.42-1.765-.129-2.494l-31.422-41.684a1.486 1.486 0 0 1 .306-2.093c.26-.193.577-.298.902-.298h17.029zM69.715 36.96c4.004.614 6.832 1.423 8.486 2.426 1.654 1.003 3.411 2.976 5.272 5.92-1.003.826-1.877 1.304-2.621 1.435-.744.13-1.978.02-3.703-.33l-2.055-.926c-1.982-.892-4.32-.042-5.249 1.909a3.365 3.365 0 0 0 1.626 4.496c.145.068.294.126.447.173l2.743.842c.774.606 1.118 1.458 1.03 2.556-.088 1.097-.601 2.164-1.54 3.2l1.486 4.041c-1.792.393-3.945.508-6.46.347-3.77-.242-5.615-1.382-5.646-1.554-.019-.11-1.8-1.069-5.342-2.877a31.212 31.212 0 0 0-6.274-.634c-17.203 0-31.149 13.959-31.149 31.178 0 17.218 13.946 31.177 31.15 31.177 11.543 0 21.62-6.286 27.001-15.624h-8.311c-5.028 0-9.453-3.29-10.861-8.074l-1.672-5.683a2.24 2.24 0 0 1 1.538-2.781c.206-.06.42-.09.634-.09h36.938c3.057 0 5.631 2.267 5.992 5.276.102.855.154 1.736.154 2.642 0 2.393-.47 4.786-1.411 7.178-6.113 21.887-26.185 37.941-50.003 37.941C23.243 141.123 0 117.858 0 89.161c0-27.209 20.893-49.533 47.498-51.777l.751-.119.968-.155c.483-.079.967-.159 1.449-.241 3.425-.586 9.775-.556 19.05.09zm109.79-1.256c1.205 0 2.19.934 2.259 2.111l.004.132v12.432c0 1.195-.942 2.171-2.13 2.24l-.133.003H136.12c-2.028 0-3.682 1.587-3.767 3.576l-.004.162v81.025a2.251 2.251 0 0 1-2.13 2.239l-.132.004h-16.199a2.254 2.254 0 0 1-2.259-2.111l-.004-.132V40.937c0-2.83 2.266-5.136 5.098-5.23l.182-.004h62.6zM326.463.352c.566.472.703 1.282.323 1.911l-46.219 76.59c-.471.78-.42 1.765.129 2.494l31.422 41.684a1.487 1.487 0 0 1-.306 2.093 1.51 1.51 0 0 1-.903.298h-17.028a7.567 7.567 0 0 1-6.059-3.024l-30.32-40.546a2.226 2.226 0 0 1 .087-2.781L324.338.531a1.517 1.517 0 0 1 2.125-.18zM169.37 80.012c.346 0 .687.078.997.23a2.235 2.235 0 0 1 1.092 2.876l-.057.125-7.346 14.848a2.262 2.262 0 0 1-1.88 1.25l-.151.006h-20.239a2.255 2.255 0 0 1-2.259-2.111l-.004-.132v-14.85c0-1.194.942-2.17 2.13-2.238l.133-.004h27.584zM84.94 47.128c1.452 1.124 2.387 2.071 2.806 2.842.397.728.784 1.953 1.161 3.675l.067.308 9.824 8.796c.541.485.91 1.13 1.05 1.837l.031.178.096.664a.648.648 0 0 1-.363.677l-.08.031-.518.172-.478-.063c-9.967-1.318-16.04-2.441-18.217-3.369-1.94-.826-2.357-2.688-1.248-5.586a3.708 3.708 0 0 0 .046-2.526l-.07-.188-.518-1.284a3.735 3.735 0 0 0-.684-1.096l-.15-.157-1.778-1.766c-.62-.124-1.307.07-1.927-.055-.143-.029-.479-.138-1.008-.327a1.19 1.19 0 0 1-.682-1.632 1.716 1.716 0 0 1 1.874-.944c.589.113 1.012.212 1.269.296.42.139.984.433 1.69.881 2.118.414 3.673.535 4.665.361.99-.173 2.039-.748 3.143-1.725z" fill="url(#a)"/>
    <defs>
        <linearGradient id="a" x1="8.492" y1="79.425" x2="317.146" y2="84.111" gradientUnits="userSpaceOnUse">
            <stop stop-color="#3735BB"/>
            <stop offset="1" stop-color="#9B24AC"/>
        </linearGradient>
    </defs>
</svg>
