<svg width="45" height="45" viewBox="0 0 45 45" fill="none" xmlns="http://www.w3.org/2000/svg">
    <path fill-rule="evenodd" clip-rule="evenodd" d="M22.5 45C34.926 45 45 34.926 45 22.5S34.926 0 22.5 0 0 10.074 0 22.5 10.074 45 22.5 45zm-3.063-29 .526.98c1.624-.358 2.494-.284 4.019 0l.526-.98c1.537.163 2.317.436 3.684.98 2.34 3.794 3.073 5.951 2.727 9.883-1.775 1.132-2.784 1.631-4.593 2.137l-.909-1.47 1.483-.667-.383-.356c-3.53 1.368-5.51 1.28-9.041 0l-.431.356 1.53.668L17.62 29c-1.922-.596-2.93-1.058-4.593-2.137-.153-4.054.313-6.238 2.68-9.883 1.42-.477 2.24-.68 3.731-.98zm5.55 8.904c.898 0 1.626-.797 1.626-1.78 0-.984-.728-1.781-1.627-1.781-.898 0-1.626.797-1.626 1.78 0 .984.728 1.781 1.627 1.781zm-4.402-1.78c0 .983-.728 1.78-1.627 1.78-.898 0-1.626-.797-1.626-1.78 0-.984.728-1.781 1.626-1.781.899 0 1.627.797 1.627 1.78z" fill="#F5D69C"/>
</svg>
