<svg width="45" height="45" viewBox="0 0 45 45" fill="none" xmlns="http://www.w3.org/2000/svg">
    <path fill-rule="evenodd" clip-rule="evenodd" d="M22.5 45C34.926 45 45 34.926 45 22.5S34.926 0 22.5 0 0 10.074 0 22.5 10.074 45 22.5 45zm-4.13-17c2.967 0 5.371-2.462 5.371-5.5s-2.404-5.5-5.37-5.5S13 19.462 13 22.5s2.405 5.5 5.37 5.5zm11.136-5.495c0 2.845-1.208 5.151-2.698 5.151s-2.699-2.306-2.699-5.15c0-2.846 1.208-5.152 2.699-5.152 1.49 0 2.698 2.306 2.698 5.151zm1.473 4.667c.564 0 1.022-2.096 1.022-4.681 0-2.586-.458-4.682-1.022-4.682-.564 0-1.022 2.096-1.022 4.682 0 2.585.457 4.681 1.022 4.681z" fill="#F5D69C"/>
</svg>
