<svg width="45" height="45" viewBox="0 0 45 45" fill="none" xmlns="http://www.w3.org/2000/svg">
    <path fill-rule="evenodd" clip-rule="evenodd" d="M22.5 45C34.926 45 45 34.926 45 22.5S34.926 0 22.5 0 0 10.074 0 22.5 10.074 45 22.5 45zm6.056-26.865a6.722 6.722 0 0 0 1.944-.537 6.917 6.917 0 0 1-1.69 1.765c.215 4.793-3.336 10.137-9.62 10.137A9.536 9.536 0 0 1 14 27.969a6.774 6.774 0 0 0 5.012-1.412 3.39 3.39 0 0 1-3.163-2.367c.531.103 1.053.072 1.53-.058a3.406 3.406 0 0 1-2.716-3.384c.456.255.979.408 1.533.426a3.427 3.427 0 0 1-1.047-4.55 9.589 9.589 0 0 0 6.977 3.56C21.632 18.053 23.238 16 25.423 16c.974 0 1.855.414 2.471 1.076a6.754 6.754 0 0 0 2.15-.827 3.41 3.41 0 0 1-1.488 1.886z" fill="#F5D69C"/>
</svg>
