<svg width="1311" height="2029" viewBox="0 0 1311 2029" fill="none" xmlns="http://www.w3.org/2000/svg">
    <g filter="url(#g8qyp69fla)">
        <path d="m266.873 34.231-55.794 49.502-38.017 22.76a65.992 65.992 0 0 0-17.846 15.663l-29.888 37.754-19.239 33.997-17.59 25.812-18.43 27.345a31.997 31.997 0 0 0-5.45 18.836l1.343 45.107-13.742 27.701c-2.663 18.125-27.232 39.477-30.782 63.586-5 33.953 11.25 69.039 10.993 70.512-.44 2.518-1.282 30.849-1.649 44.699l-5.162 29.139a63.995 63.995 0 0 1-10.992 26.108l-9.131 12.747v11.332l-3.298 11.962 4.947 18.887L0 671.75l23.087 7.555 17.04-20.776v25.183l29.683 2.518-41.226 20.776-8.246 15.109L0 741.632v52.884l14.841 61.068-2.198 32.108 12.642 38.403-4.947 13.221v35.886L9.345 1007.94l-7.146 5.04 2.748 18.25-1.977 11.83a85.004 85.004 0 0 0 1.521 35.21l8.152 31.66 42.875 62.96 1.65 33.36-7.696 9.45-13.742 129.69-32.982 138.5 14.842 8.19-7.696 70.51-7.146 93.81v45.95l14.842 14.48-7.696 66.11 7.696 10.07-7.696 28.96 25.836 61.7-13.844 36.77a186.987 186.987 0 0 0-11.992 65.89v19.9c0 5.63 4.647 10.15 10.275 10l150.234-4.13 24.453-22.19c8.708-7.9 22.616-4.78 27.124 6.08l1.058 2.55a22 22 0 0 0 20.319 13.56h181l13.922-18.14c.917-1.2 2.775-.99 3.404.38l4.112 8.95 17.075 2.06a31.014 31.014 0 0 0 24.787-8.05l1.013-.94 12.094-15.11 53.143-8.39a65.103 65.103 0 0 1 21.215.15l8.222 1.42a16.016 16.016 0 0 1 12.813 11.95l4.78 19.47a13.999 13.999 0 0 0 13.596 10.66h40.692l9.895-9.45 7.695 9.45h54.419l13.192-13.22 29.134 3.77 8.795 13.86c61.564 1.88 184.144 11.33 187.442 6.92 3.575-4.78 10.395-41.55 14.881-66.49a5.985 5.985 0 0 1 6.98-4.83l52.892 9.62 5.5 5.67h8.43c6.9 0 13.49-2.85 18.21-7.88l7.99-8.49 12.04-16.45a7.969 7.969 0 0 0 1.29-6.75l-2.33-8.91 9.89-7.55 86.85-107.03 19.24-22.66 29.68-33.37 11-21.41 15.39-22.66 15.94-3.78 6.04-15.74 15.4-25.18v-69.88l-12.1-28.96v-40.29l-3.3-9.45 7.7-28.33-29.68-100.1-26.39-44.7 24.5-4.74c10.35-2 17.83-11.06 17.83-21.6v-44.8l18.14-48.48 13.19 3.78v-18.26l-9.89-4.4-3.3-5.67h-18.14l21.44-33.37 6.59-40.92v-75.55l-6.59-25.18 3.84-17-7.14-8.184 7.14-11.962 2.75-16.368 3.3-118.989-9.89-23.923 3.84-22.665-3.84-42.811 3.84-22.664 4.85-68.116a58.077 58.077 0 0 0-6.86-31.751l-1.83-3.382 3.84-5.037v-20.146l6.05-9.444-13.19-30.848 7.14-6.296v-21.405l.24-.345a17.995 17.995 0 0 0 1.47-17.781l-7.24-15.552a5.988 5.988 0 0 0-5.44-3.467h-2.77l-13.74-10.703-3.85-8.814h-18.14l9.9-8.814v-6.295l12.09-17.628 8.24-109.545-3.29-6.296 2.85-48.016c.19-3.174-3.22-5.289-5.98-3.709l-5.67 3.248-28.02-30.986a10.002 10.002 0 0 0-9.49-3.075l-9.21 1.953-24.72-47.658a216.037 216.037 0 0 0-89.76-90.946l-51.53-27.602v-7.555h-3.84l-7.7-6.295 7.7-24.553-3.85-5.666V42.81l-3.85-2.519h-7.7l-4.94 1.26v3.147l-6.05 1.26-6.6-6.926h-8.24l-20.339 2.518-4.948-1.259-5.497 2.519-5.496 5.036H961.4l-7.696-3.148-14.841-5.666-15.391-8.814-1.1-5.036-2.748-.63-6.596-6.296-1.1-3.147-3.847-5.666-3.299 1.259-1.649-4.407-9.344-5.037L880.596 0l-9.344 6.296-10.994 10.702-4.398 1.89-1.099 3.776-5.497 5.037-8.245 13.85h-6.047l-4.947 6.296h-3.848l-13.192 1.889h-6.047l-3.298-6.296-8.245-1.889-4.947-4.406-6.596-12.592-3.848-1.889-3.298-3.777-5.497-1.889-4.947-3.148-7.696 1.26-3.848-1.26-1.099 3.148-17.04 5.666h-3.848l-15.391 9.444-7.146 14.48-3.848-20.146-2.749-3.777-4.947 1.888-3.848-3.777-19.238 8.184-10.444-8.184-17.59 3.777-27.485-7.555-19.42 14.197a9 9 0 0 0-2.555 11.637l3.836 6.904-7.696 12.591 4.398 21.406h-10.444l-3.848 12.591-8.795-8.184h-7.146l-24.186-13.85-4.398-9.444L524.4 57.92l-19.789 9.444-3.116-33.02c-.574-6.08-7.475-9.3-12.504-5.835l-56.388 38.855-56.533-2.252a17.001 17.001 0 0 0-11.754 4.09l-5.921 5.087-46.736-40.358c-12.895-11.136-32.041-11.007-44.786.3z" fill="url(#u70rjtmeib)"/>
    </g>
    <g filter="url(#5n9ld65zbc)">
        <path d="m1037.47 1813.16 17.68-11.88a7.927 7.927 0 0 1 7.6-.69 29.07 29.07 0 0 0 18.98 1.48l7.76-2.03 68.16-19.53a202.295 202.295 0 0 0 94-58.42l12.35-13.59 22-20-11.5 30-40.06 34.63.49 15.01-31.93 37.34-8.64 5.73a28.799 28.799 0 0 0-10.72 13l-4.73 11.38-82.12 92.67.81 11.64-10.4 18.56-27.12 18.62-11.59-6.44-5.28 4.27-39.32-4.49-9.52-16.61-6.17-32.45 17.45-13.48 1.5-26.29-23.564-26.22 21.204-7.61-.97-13.86 19.79-19.78 13.86-.96z" fill="url(#ecj8zww5kd)"/>
    </g>
    <g filter="url(#za9jbn9sve)">
        <path d="M122.583 304.636h-7.526l-15.038 1.467a52.682 52.682 0 0 1-20.911-2.175l-11.718-3.682L63 268.259l4.39-23.206 8.154-17.562 13.798-15.68 5.018-11.289 15.679-15.68 3.136-10.662 12.544-13.171 26.97-35.123 16.747-16.747a85.284 85.284 0 0 1 27.939-18.6L206 87l-11.289 59.583-3.332 5.275a41.41 41.41 0 0 0-5.665 14.359l-1.039 5.454-5.017 13.171 4.35 10.15a18.818 18.818 0 0 1 0 14.823l-4.35 10.15 13.48 34.824a8.781 8.781 0 0 1-.71 7.772l-.316.512a16.307 16.307 0 0 0-2.419 8.547v1.825a5.825 5.825 0 0 1-2.4 4.712l-.721.525a11.417 11.417 0 0 0-4.546 7.356 4.894 4.894 0 0 1-3.297 3.843l-40.655 13.373a27.612 27.612 0 0 1-8.624 1.382h-6.867z" fill="url(#e8bh2dixkf)"/>
    </g>
    <defs>
        <filter id="g8qyp69fla" x="0" y="0" width="1311" height="2032" filterUnits="userSpaceOnUse" color-interpolation-filters="sRGB">
            <feFlood flood-opacity="0" result="BackgroundImageFix"/>
            <feBlend in="SourceGraphic" in2="BackgroundImageFix" result="shape"/>
            <feColorMatrix in="SourceAlpha" values="0 0 0 0 0 0 0 0 0 0 0 0 0 0 0 0 0 0 127 0" result="hardAlpha"/>
            <feOffset dy="3"/>
            <feGaussianBlur stdDeviation="17.5"/>
            <feComposite in2="hardAlpha" operator="arithmetic" k2="-1" k3="1"/>
            <feColorMatrix values="0 0 0 0 0.425 0 0 0 0 0.219526 0 0 0 0 0.0301042 0 0 0 1 0"/>
            <feBlend in2="shape" result="effect1_innerShadow_316_1495"/>
        </filter>
        <filter id="5n9ld65zbc" x="983.586" y="1688.5" width="302.414" height="291.912" filterUnits="userSpaceOnUse" color-interpolation-filters="sRGB">
            <feFlood flood-opacity="0" result="BackgroundImageFix"/>
            <feBlend in="SourceGraphic" in2="BackgroundImageFix" result="shape"/>
            <feColorMatrix in="SourceAlpha" values="0 0 0 0 0 0 0 0 0 0 0 0 0 0 0 0 0 0 127 0" result="hardAlpha"/>
            <feOffset dy="3.335"/>
            <feGaussianBlur stdDeviation="3.335"/>
            <feComposite in2="hardAlpha" operator="arithmetic" k2="-1" k3="1"/>
            <feColorMatrix values="0 0 0 0 0.462745 0 0 0 0 0.305882 0 0 0 0 0.00392157 0 0 0 0.5 0"/>
            <feBlend in2="shape" result="effect1_innerShadow_316_1495"/>
        </filter>
        <filter id="za9jbn9sve" x="57.983" y="85.746" width="148.018" height="220.606" filterUnits="userSpaceOnUse" color-interpolation-filters="sRGB">
            <feFlood flood-opacity="0" result="BackgroundImageFix"/>
            <feBlend in="SourceGraphic" in2="BackgroundImageFix" result="shape"/>
            <feColorMatrix in="SourceAlpha" values="0 0 0 0 0 0 0 0 0 0 0 0 0 0 0 0 0 0 127 0" result="hardAlpha"/>
            <feOffset dx="-5.018" dy="-1.254"/>
            <feGaussianBlur stdDeviation="2.509"/>
            <feComposite in2="hardAlpha" operator="arithmetic" k2="-1" k3="1"/>
            <feColorMatrix values="0 0 0 0 0.623529 0 0 0 0 0.447059 0 0 0 0 0.231373 0 0 0 1 0"/>
            <feBlend in2="shape" result="effect1_innerShadow_316_1495"/>
        </filter>
        <linearGradient id="ecj8zww5kd" x1="1161.66" y1="1796.11" x2="956.212" y2="1806.58" gradientUnits="userSpaceOnUse">
            <stop stop-color="#F9DAA8"/>
            <stop offset="1" stop-color="#AE8B44"/>
        </linearGradient>
        <linearGradient id="e8bh2dixkf" x1="115.684" y1="179.197" x2="145.789" y2="296.482" gradientUnits="userSpaceOnUse">
            <stop stop-color="#FCDCAE"/>
            <stop offset="1" stop-color="#D0B05F"/>
        </linearGradient>
        <radialGradient id="u70rjtmeib" cx="0" cy="0" r="1" gradientUnits="userSpaceOnUse" gradientTransform="rotate(91.083 -112.404 792.433) scale(1191.99 941.917)">
            <stop stop-color="#FFDFB9"/>
            <stop offset=".785" stop-color="#F3D599"/>
            <stop offset="1" stop-color="#D1B261"/>
        </radialGradient>
    </defs>
</svg>
