<svg width="47" height="47" viewBox="0 0 47 47" fill="none" xmlns="http://www.w3.org/2000/svg">
    <path fill-rule="evenodd" clip-rule="evenodd" d="M37.272.249a1.165 1.165 0 0 0-1.686.266c-.395.564-.282 1.358.251 1.775l.001.001.013.01.061.05c.057.048.146.123.261.226.23.207.568.523.977.951.819.856 1.92 2.154 3.023 3.899 2.202 3.482 4.417 8.746 4.417 15.861 0 7.118-2.216 12.492-4.426 16.088a26.83 26.83 0 0 1-3.032 4.05c-.41.447-.75.781-.981.999a10.75 10.75 0 0 1-.326.294l-.012.01-.002.002a1.317 1.317 0 0 0-.205 1.782c.41.552 1.168.65 1.692.217l-.742-1 .743 1 .002-.002.002-.002.009-.007.027-.023.092-.08c.077-.068.187-.166.323-.294.274-.257.657-.635 1.112-1.133a29.362 29.362 0 0 0 3.32-4.432C44.597 36.837 47 30.99 47 23.288c0-7.704-2.405-13.45-4.822-17.27a27.55 27.55 0 0 0-3.33-4.293c-.457-.478-.841-.84-1.116-1.085a12.356 12.356 0 0 0-.419-.358L37.286.26l-.009-.007-.003-.002-.001-.001s-.001-.001-.717 1.02L37.272.25zm-9.296 7.01a1.164 1.164 0 0 1 1.692-.212l-.745.998.746-.998.001.001.003.003.007.005.02.017a5.222 5.222 0 0 1 .272.248c.175.167.418.41.705.73a18.19 18.19 0 0 1 2.08 2.85c1.505 2.534 2.995 6.33 2.995 11.403s-1.488 8.932-2.988 11.527a19.396 19.396 0 0 1-2.07 2.939 13.84 13.84 0 0 1-.908.96l-.028.027-.034.03-.019.017-.006.006-.003.002v.001c-.001 0-.002.001-.773-.975l.771.976a1.163 1.163 0 0 1-1.697-.163 1.318 1.318 0 0 1 .152-1.787l.002-.001v-.001l.003-.002.033-.03c.031-.03.082-.078.148-.145.134-.133.332-.34.574-.622a16.88 16.88 0 0 0 1.797-2.553c1.313-2.273 2.636-5.68 2.636-10.206 0-4.523-1.322-7.857-2.628-10.054a15.669 15.669 0 0 0-1.787-2.453 10.468 10.468 0 0 0-.716-.725l-.023-.02-.009-.007-.004-.004a1.317 1.317 0 0 1-.2-1.781zM0 19.14c0-1.631.889-3.117 2.285-3.82l15.5-7.81c1.067-.536 2.3.283 2.3 1.529v26.237c0 1.173-1.104 1.99-2.15 1.593L2.655 31.071C1.063 30.466 0 28.873 0 27.087V19.14z" fill="url(#kcz7h62u9a)"/>
    <defs>
        <linearGradient id="kcz7h62u9a" x1="21.5" y1="14" x2="21" y2="42.5" gradientUnits="userSpaceOnUse">
            <stop stop-color="#FFD028"/>
            <stop offset="1" stop-color="#FFA800" stop-opacity=".28"/>
        </linearGradient>
    </defs>
</svg>
