<svg width="235" height="70" viewBox="0 0 235 70" fill="none" xmlns="http://www.w3.org/2000/svg">
    <path d="M55.834 18.3c0 4-1.56 7.16-4.68 9.48-3.12 2.28-7.04 3.42-11.76 3.42 1.52 2.68 3.62 6.24 6.3 10.68 2.68 4.4 6.34 8.9 10.98 13.5 4.64 4.64 9.34 6.96 14.1 6.96 2.44 0 4.96-.72 7.56-2.16 2.6-1.44 4.46-2.72 5.58-3.84-1.8 2.64-4 4.7-6.6 6.18-2.6 1.52-6.1 2.28-10.5 2.28-5.44 0-10.32-1.72-14.64-5.16-4.28-3.4-7.92-7.52-10.92-12.36-2.96-4.8-5.96-10.46-9-16.98 5.28 0 9.26-.64 11.94-1.92 2.72-1.28 4.08-3.96 4.08-8.04 0-4.48-1.28-7.7-3.84-9.66-2.52-2-7.4-3-14.64-3v33.6c0 1.4.4 2.66 1.2 3.78.84 1.12 2.26 2.06 4.26 2.82h-20.46c2.32-.44 4.14-1.28 5.46-2.52 1.36-1.24 2.04-2.76 2.04-4.56V21.36c0-2.32.44-4.86 1.32-7.62.88-2.76 2.04-4.78 3.48-6.06-8.68 0-14.5 1.04-17.46 3.12-2.92 2.08-4.38 4.92-4.38 8.52 0 3.48.94 6.6 2.82 9.36 1.92 2.76 5.18 5.1 9.78 7.02-5 0-8.86-1.36-11.58-4.08-2.68-2.76-4.02-6.18-4.02-10.26 0-5.16 2.02-9.04 6.06-11.64 4.04-2.6 10.92-3.9 20.64-3.9l.96-.9v.96c9.56 0 16.26.88 20.1 2.64 3.88 1.76 5.82 5.02 5.82 9.78z" fill="url(#ykseqlyfea)"/>
    <path d="M71.849 19.02c3.28 0 5.84 1.18 7.68 3.54 1.88 2.36 2.82 5.28 2.82 8.76 0 3.68-1.36 6.94-4.08 9.78-2.72 2.84-5.76 4.26-9.12 4.26-3.16 0-5.68-1.18-7.56-3.54-1.88-2.4-2.82-5.4-2.82-9 0-3.6 1.32-6.8 3.96-9.6 2.64-2.8 5.68-4.2 9.12-4.2zm-7.8 10.26c0 3.28.42 6.3 1.26 9.06.88 2.76 2.82 4.14 5.82 4.14 1.72 0 3.12-.72 4.2-2.16 1.08-1.44 1.62-3.28 1.62-5.52 0-3.24-.54-6.2-1.62-8.88-1.08-2.72-2.92-4.08-5.52-4.08-1.76 0-3.16.7-4.2 2.1-1.04 1.4-1.56 3.18-1.56 5.34z" fill="url(#14qnaqbieb)"/>
    <path d="M107.201 19.32v22.2c.04.52.3.78.78.78.36 0 .78-.12 1.26-.36.52-.28 1.34-.74 2.46-1.38-.52 1.08-1.4 2.14-2.64 3.18-1.2 1.04-2.36 1.56-3.48 1.56-.64 0-1.48-.44-2.52-1.32-1-.88-1.5-2.06-1.5-3.54V37.2c-2.44 2.44-4.5 4.4-6.18 5.88-1.68 1.48-3.14 2.22-4.38 2.22-1.36 0-2.58-.8-3.66-2.4-1.04-1.6-1.56-3.74-1.56-6.42 0-5.44 1.5-9.66 4.5-12.66s6.9-4.5 11.7-4.5h5.22zm-15.66 12.6c0 1.96.32 3.4.96 4.32.64.92 1.52 1.38 2.64 1.38.96 0 1.98-.28 3.06-.84 1.12-.6 2.24-1.4 3.36-2.4V21c-3 0-5.42 1.12-7.26 3.36-1.84 2.2-2.76 4.72-2.76 7.56z" fill="url(#kv43lurrcc)"/>
    <path d="M134.916 41.52c.04.52.3.78.78.78.36 0 .78-.12 1.26-.36.52-.28 1.34-.74 2.46-1.38-.48 1.04-1.34 2.08-2.58 3.12-1.24 1-2.42 1.56-3.54 1.68-.64 0-1.48-.46-2.52-1.38-1-.92-1.5-2.1-1.5-3.54V37.2c-2.4 2.4-4.46 4.36-6.18 5.88-1.68 1.52-3.14 2.28-4.38 2.28-1.36 0-2.58-.8-3.66-2.4-1.04-1.64-1.56-3.8-1.56-6.48 0-5.44 1.48-9.66 4.44-12.66 2.96-3 6.74-4.5 11.34-4.5v-4.08c0-2.88.76-5.3 2.28-7.26 1.52-2 3.58-3 6.18-3h5.34c-1.28 2.32-2.96 3.56-5.04 3.72-2.08.12-3.12.48-3.12 1.08v31.74zm-15.66-9.6c0 1.96.32 3.4.96 4.32.64.92 1.52 1.38 2.64 1.38.96 0 1.98-.28 3.06-.84 1.12-.6 2.24-1.4 3.36-2.4V21c-3 0-5.42 1.12-7.26 3.36-1.84 2.2-2.76 4.72-2.76 7.56z" fill="url(#a1geiriwxd)"/>
    <path d="M155.916 45.36V27.84c0-.92-.1-1.64-.3-2.16-.2-.56-.76-.84-1.68-.84-1 0-2.32 1.06-3.96 3.18-1.64 2.08-2.46 3.3-2.46 3.66v10.2c-.2.84-.9 1.64-2.1 2.4-1.16.72-2.32 1.08-3.48 1.08V24.84c0-.64-.24-.96-.72-.96-.6 0-1.74.54-3.42 1.62 1.52-1.92 2.9-3.42 4.14-4.5 1.28-1.12 2.28-1.68 3-1.68 1.12 0 1.82.62 2.1 1.86.32 1.2.48 3.08.48 5.64v2.22c1.56-2.44 3.2-4.66 4.92-6.66 1.76-2.04 3.6-3.06 5.52-3.06 1.48 0 2.46.5 2.94 1.5s.72 2.5.72 4.5c0 .6-.02 1.2-.06 1.8v1.74a85.17 85.17 0 0 1 4.92-6.36c1.84-2.12 3.68-3.18 5.52-3.18 1.28 0 2.18.34 2.7 1.02.56.68.84 1.84.84 3.48V41.1c0 .96.3 1.44.9 1.44.68 0 1.72-.64 3.12-1.92a7.886 7.886 0 0 1-2.34 3.36c-1.08.92-2.32 1.38-3.72 1.38-2.32 0-3.48-1.5-3.48-4.5V27.84c0-1.04-.16-1.8-.48-2.28-.32-.48-.84-.72-1.56-.72-.92 0-2.22 1.06-3.9 3.18-1.68 2.12-2.52 3.34-2.52 3.66v10.2c-.2.84-.88 1.64-2.04 2.4-1.12.72-2.32 1.08-3.6 1.08z" fill="url(#840ambfwze)"/>
    <path d="M203.236 19.32v22.2c.04.52.3.78.78.78.36 0 .78-.12 1.26-.36.52-.28 1.34-.74 2.46-1.38-.52 1.08-1.4 2.14-2.64 3.18-1.2 1.04-2.36 1.56-3.48 1.56-.64 0-1.48-.44-2.52-1.32-1-.88-1.5-2.06-1.5-3.54V37.2c-2.44 2.44-4.5 4.4-6.18 5.88-1.68 1.48-3.14 2.22-4.38 2.22-1.36 0-2.58-.8-3.66-2.4-1.04-1.6-1.56-3.74-1.56-6.42 0-5.44 1.5-9.66 4.5-12.66s6.9-4.5 11.7-4.5h5.22zm-15.66 12.6c0 1.96.32 3.4.96 4.32.64.92 1.52 1.38 2.64 1.38.96 0 1.98-.28 3.06-.84 1.12-.6 2.24-1.4 3.36-2.4V21c-3 0-5.42 1.12-7.26 3.36-1.84 2.2-2.76 4.72-2.76 7.56z" fill="url(#kuu3p9lrwf)"/>
    <path d="M214.871 18.96c.72 0 1.16.32 1.32.96.2.64.3 2.44.3 5.4 1.08-1.32 2.18-2.66 3.3-4.02 1.56-1.56 3.32-2.34 5.28-2.34 1.36 0 2.94 1.1 4.74 3.3 1.8 2.16 2.7 5.18 2.7 9.06 0 3.96-1.6 7.28-4.8 9.96-3.16 2.68-5.74 4.02-7.74 4.02-.52 0-1.12-.22-1.8-.66-.64-.48-1.2-.92-1.68-1.32V56.4c0 1.48.68 2.88 2.04 4.2 1.36 1.32 2.14 2.18 2.34 2.58-1.88-.96-3.14-1.54-3.78-1.74-.6-.2-1.3-.3-2.1-.3-1.16 0-2.1.16-2.82.48-.68.32-2.52 1.46-5.52 3.42.16-.48.92-1.46 2.28-2.94 1.36-1.48 2.04-3.08 2.04-4.8V25.8c0-.4-.1-.68-.3-.84-.2-.16-.48-.24-.84-.24-.72 0-1.38.16-1.98.48-.64.32-1.12.58-1.44.78 1.16-1.56 2.48-3.12 3.96-4.68 1.48-1.56 2.98-2.34 4.5-2.34zm1.62 18.72c0 1.08.4 2.08 1.2 3 .84.88 1.88 1.32 3.12 1.32 1.8 0 3.22-.98 4.26-2.94 1.08-1.96 1.62-4.04 1.62-6.24 0-2.96-.4-5.1-1.2-6.42-.76-1.32-1.74-1.98-2.94-1.98-1.36 0-2.72.64-4.08 1.92-1.32 1.24-1.98 2.16-1.98 2.76v8.58z" fill="url(#5ur9dfqa9g)"/>
    <path fill-rule="evenodd" clip-rule="evenodd" d="m52.34 29.39-.006.005c-2.726 1.992-5.945 3.176-9.592 3.612a609.383 609.383 0 0 0 4.662 7.837c2.577 4.229 6.125 8.602 10.678 13.116l.006.006c4.41 4.41 8.63 6.374 12.686 6.374 2.034 0 4.223-.598 6.59-1.91 2.554-1.413 4.217-2.585 5.135-3.504l3.067 2.54c-1.957 2.872-4.375 5.146-7.253 6.786-3.014 1.76-6.903 2.548-11.5 2.548-5.899 0-11.216-1.878-15.883-5.594-4.468-3.55-8.26-7.845-11.376-12.872l-.003-.004c-2.566-4.162-5.152-8.942-7.757-14.335v7.285c0 .983.27 1.828.813 2.598.527.692 1.553 1.447 3.357 2.133l-.71 3.87h-20.46l-.373-3.966c2.058-.39 3.493-1.101 4.463-2.013l.011-.01.011-.01c.955-.87 1.388-1.859 1.388-3.082V21.36c0-2.57.486-5.318 1.414-8.227.39-1.223.844-2.351 1.37-3.368-2.505.112-4.672.336-6.508.664-2.779.496-4.644 1.207-5.781 2.004-2.387 1.702-3.535 3.933-3.535 6.887 0 3.093.827 5.814 2.467 8.226 1.622 2.328 4.5 4.47 8.903 6.308l-.77 3.846c-5.365 0-9.797-1.468-12.995-4.666l-.01-.01-.01-.01C1.773 29.855.254 25.924.254 21.36c0-5.78 2.316-10.322 6.977-13.322 4.431-2.851 11.54-4.147 20.929-4.215l3.754-3.52v3.59c8.562.115 14.962.99 18.93 2.807 2.262 1.027 4.05 2.54 5.253 4.562 1.196 2.01 1.737 4.389 1.737 7.038 0 4.611-1.843 8.375-5.487 11.085l-.007.005zM50.014 8.52c-2.856-1.309-7.295-2.131-13.315-2.467a113.64 113.64 0 0 0-4.588-.157 140.735 140.735 0 0 0-2.197-.016v-.96l-.96.9a105.526 105.526 0 0 0-1.86.017c-8.448.152-14.578 1.366-18.39 3.64-.002.003-.005.004-.008.006-.13.078-.258.157-.382.237a13.76 13.76 0 0 0-2.883 2.444c-2.118 2.394-3.177 5.46-3.177 9.196 0 4.08 1.34 7.5 4.02 10.26 1.536 1.537 3.437 2.64 5.702 3.308 1.743.515 3.703.772 5.878.772-1.914-.799-3.595-1.67-5.045-2.614-2.035-1.325-3.614-2.794-4.735-4.406-1.88-2.76-2.82-5.88-2.82-9.36 0-2.271.581-4.24 1.744-5.907a10.583 10.583 0 0 1 2.213-2.299c.137-.106.278-.211.423-.314 2.637-1.853 7.546-2.881 14.725-3.083.878-.025 1.79-.037 2.735-.037a7.533 7.533 0 0 0-.175.16 9.58 9.58 0 0 0-1.497 1.854c-.697 1.101-1.3 2.45-1.808 4.046-.88 2.76-1.32 5.3-1.32 7.62V40.8c0 1.8-.68 3.32-2.04 4.56a8.004 8.004 0 0 1-.614.52c-1.251.958-2.867 1.625-4.846 2h20.46c-1.491-.567-2.66-1.233-3.506-2a5.836 5.836 0 0 1-.754-.82c-.8-1.12-1.2-2.38-1.2-3.78V7.68H29.914a74.581 74.581 0 0 1 1.88.027 49.44 49.44 0 0 1 4.733.34c3.633.455 6.268 1.333 7.907 2.633 2.56 1.96 3.84 5.18 3.84 9.66 0 4.08-1.36 6.76-4.08 8.04-.456.218-.95.417-1.48.597-.979.334-2.086.604-3.32.811-.9.15-1.866.268-2.9.353-.656.053-1.34.093-2.05.12-.704.026-1.434.04-2.19.04.314.673.627 1.337.94 1.992 2.72 5.687 5.405 10.683 8.06 14.987 3 4.84 6.64 8.96 10.92 12.36 4.32 3.44 9.2 5.16 14.64 5.16 2.316 0 4.382-.21 6.2-.632 1.635-.379 3.068-.928 4.3-1.648a18.96 18.96 0 0 0 1.708-1.097c1.87-1.348 3.5-3.042 4.892-5.083-1.12 1.12-2.98 2.4-5.58 3.84a20.35 20.35 0 0 1-1.838.904l-.018.007c-1.3.556-2.58.927-3.84 1.111-.627.092-1.248.138-1.864.138-4.76 0-9.46-2.32-14.1-6.96-4.64-4.6-8.3-9.1-10.98-13.5a573.92 573.92 0 0 1-5.165-8.701 271.537 271.537 0 0 1-1.135-1.979c.771 0 1.521-.03 2.25-.091a23.675 23.675 0 0 0 1.535-.178c3.072-.46 5.73-1.51 7.975-3.15 3.12-2.32 4.68-5.48 4.68-9.48 0-4.76-1.94-8.02-5.82-9.78zm-18.22 1.188V28.3h.46c5.179 0 8.801-.637 11.078-1.725l.01-.005c1.766-.83 2.932-2.6 2.932-6.23 0-4.116-1.165-6.624-3.056-8.072l-.014-.01-.014-.011c-.915-.727-2.423-1.39-4.708-1.858-1.82-.373-4.045-.605-6.688-.681zM60.02 43.06l-.006-.007c-2.203-2.813-3.245-6.27-3.245-10.233 0-4.147 1.541-7.829 4.505-10.972 2.968-3.148 6.516-4.828 10.575-4.828 3.823 0 6.99 1.409 9.248 4.298 2.128 2.674 3.18 5.92 3.249 9.618.74-3.362 2.224-6.234 4.52-8.53 3.426-3.426 7.86-5.086 13.115-5.086h7.22v22.358c.415-.233.917-.517 1.507-.854l.869-.497a20.191 20.191 0 0 1-.081-1.847c0-5.806 1.588-10.59 5.016-14.065 2.92-2.96 6.544-4.614 10.764-5.005v-2.17c0-3.246.863-6.114 2.694-8.478 1.912-2.513 4.57-3.782 7.766-3.782h8.727l-1.636 2.966c-1.506 2.73-3.704 4.523-6.638 4.748l-.019.002h-.019c-.529.031-.934.076-1.235.125v12.586c1.306-1.587 2.541-2.9 3.705-3.913.699-.612 1.384-1.127 2.048-1.499.639-.358 1.42-.675 2.267-.675.947 0 1.906.272 2.691.968.748.662 1.148 1.54 1.351 2.413.169.643.293 1.406.379 2.277a55.084 55.084 0 0 1 1.563-1.902l.002-.002c1.98-2.296 4.326-3.754 7.034-3.754 1.946 0 3.817.704 4.743 2.635.41.853.66 1.873.793 3.012.475-.588.961-1.175 1.459-1.761l.007-.009.008-.008c2.019-2.327 4.362-3.869 7.03-3.869 1.573 0 3.209.417 4.267 1.777 1 1.236 1.273 2.982 1.273 4.723v15.908c.203-.167.427-.361.67-.584l2.043 1.366c-.297-1.243-.433-2.594-.433-4.03 0-5.814 1.613-10.601 5.086-14.074 3.425-3.426 7.859-5.086 13.114-5.086h7.22v6.897a54.24 54.24 0 0 1 3.684-4.293c1.698-1.79 3.687-2.964 5.951-2.964.647 0 1.389.145 2.046.623.658.478 1.025 1.14 1.2 1.798.056.19.101.404.139.636l.052-.063.068-.068c1.884-1.884 4.136-2.926 6.695-2.926 1.226 0 2.356.494 3.347 1.184.994.691 1.969 1.663 2.934 2.842 2.193 2.634 3.159 6.166 3.159 10.334 0 4.586-1.889 8.454-5.512 11.49-3.197 2.71-6.258 4.49-9.028 4.49a4.4 4.4 0 0 1-1.48-.27v9.37c0 .798.346 1.71 1.433 2.765a39.187 39.187 0 0 1 1.693 1.726c.378.417.804.918 1.043 1.395l2.721 5.443-5.42-2.768c-1.911-.976-3.018-1.472-3.467-1.612l-.018-.006-.018-.006c-.35-.116-.828-.197-1.467-.197-.984 0-1.613.137-1.989.3-.544.262-2.238 1.302-5.257 3.274l-4.807 3.141 1.815-5.447c.2-.6.632-1.205 1.007-1.689.429-.552 1-1.213 1.698-1.972 1.082-1.177 1.513-2.312 1.513-3.447V42.433c-.658 1.013-1.535 1.953-2.578 2.83-1.41 1.218-3.014 2.037-4.777 2.037-.762 0-1.459-.255-2.038-.558-.593-.31-1.186-.738-1.774-1.235l-.015-.013-.014-.013a6.263 6.263 0 0 1-2.056-3.646 102.554 102.554 0 0 1-2.981 2.746c-1.782 1.57-3.712 2.72-5.702 2.72-2.278 0-4.034-1.38-5.318-3.282l-.01-.014-.009-.015c-.303-.466-.566-.96-.792-1.48a9.907 9.907 0 0 1-2.394 2.992c-1.437 1.224-3.135 1.858-5.017 1.858-1.625 0-3.148-.552-4.192-1.901-.968-1.253-1.288-2.897-1.288-4.599V27.84a4.76 4.76 0 0 0-.074-.922 3.507 3.507 0 0 0-.367.267c-.491.4-1.134 1.07-1.932 2.077-.83 1.049-1.428 1.843-1.81 2.397-.122.178-.213.317-.277.422v10.034l-.054.228c-.373 1.564-1.549 2.732-2.89 3.61l-.007.005-.007.004c-1.429.919-3.003 1.398-4.682 1.398h-2V27.84c0-.395-.022-.701-.053-.934-.092.052-.23.14-.415.289-.487.391-1.117 1.05-1.89 2.049l-.006.007-.005.007c-.81 1.027-1.388 1.805-1.756 2.353a8.193 8.193 0 0 0-.275.432v10.072l-.054.228c-.379 1.59-1.605 2.758-2.976 3.627l-.008.005-.007.004c-1.42.882-2.941 1.381-4.535 1.381h-2v-3.946a14.284 14.284 0 0 1-1.815 1.798l-.015.013-.015.012c-1.42 1.145-2.953 1.937-4.582 2.112l-.107.011h-.106c-.782 0-1.491-.273-2.071-.59-.595-.326-1.188-.773-1.775-1.292l-.014-.013-.015-.013a6.469 6.469 0 0 1-2.019-3.621 108.644 108.644 0 0 1-2.974 2.74c-1.773 1.603-3.707 2.79-5.712 2.79-2.278 0-4.035-1.38-5.318-3.282l-.016-.024-.015-.024c-.252-.396-.475-.81-.673-1.243-.625.879-1.416 1.701-2.336 2.474-1.41 1.22-3.014 2.038-4.777 2.038-.762 0-1.459-.255-2.038-.558-.593-.31-1.186-.738-1.774-1.235l-.015-.013-.015-.013a6.264 6.264 0 0 1-2.055-3.646 103.731 103.731 0 0 1-2.981 2.746C94.92 46.15 92.99 47.3 91 47.3c-2.278 0-4.035-1.38-5.318-3.282l-.01-.014-.01-.015c-1.32-2.03-1.882-4.593-1.882-7.51 0-.333.005-.662.016-.988-.705 2.56-2.078 4.897-4.084 6.991-3.027 3.161-6.565 4.877-10.564 4.877-3.736 0-6.845-1.432-9.124-4.294l-.005-.006zm39.54-3.885c.636-.619 1.303-1.277 2.001-1.975v3.24c0 1.48.5 2.66 1.5 3.54 1.04.88 1.88 1.32 2.52 1.32.906 0 1.838-.34 2.797-1.021.226-.16.454-.34.683-.539.265-.222.513-.445.745-.67l.029-.027c.839-.816 1.461-1.643 1.866-2.483-1.12.64-1.94 1.1-2.46 1.38-.48.24-.9.36-1.26.36a1.162 1.162 0 0 1-.273-.034c-.307-.086-.476-.335-.507-.746v-22.2h-5.22c-.141 0-.281.001-.42.004-1.79.033-3.454.28-4.988.74a14.757 14.757 0 0 0-6.292 3.756c-3 3-4.5 7.22-4.5 12.66 0 2.68.52 4.82 1.56 6.42 1.08 1.6 2.3 2.4 3.66 2.4 1.24 0 2.7-.74 4.38-2.22 1.2-1.057 2.593-2.358 4.18-3.904zM94.3 24.36c-1.84 2.2-2.76 4.72-2.76 7.56 0 1.96.32 3.4.96 4.32.64.92 1.52 1.38 2.64 1.38.96 0 1.98-.28 3.06-.84 1.095-.586 2.19-1.364 3.285-2.333l.076-.067V21c-.698 0-1.365.06-2 .182a8.795 8.795 0 0 0-2.265.753c-1.128.559-2.126 1.367-2.995 2.425zm5.26-1.132c-1.478.363-2.695 1.161-3.714 2.401l-.005.007-.006.007c-1.542 1.844-2.294 3.911-2.294 6.277 0 1.822.312 2.762.602 3.178.266.383.533.522.998.522.563 0 1.263-.163 2.127-.61.745-.4 1.51-.913 2.293-1.551V23.227zm14.413 17.223c.257.94.618 1.776 1.083 2.51 1.08 1.6 2.3 2.4 3.66 2.4 1.24 0 2.7-.76 4.38-2.28a121.214 121.214 0 0 0 4.18-3.906c.638-.621 1.304-1.28 2-1.975v3.24c0 1.44.5 2.62 1.5 3.54 1.04.92 1.88 1.38 2.52 1.38.868-.093 1.773-.45 2.714-1.073.272-.18.547-.383.826-.607.242-.204.47-.407.684-.61l.029-.028c.862-.827 1.485-1.655 1.867-2.482-1.12.64-1.94 1.1-2.46 1.38-.469.234-.88.354-1.234.36h-.044a.97.97 0 0 1-.272-.04c-.296-.09-.459-.337-.49-.74V9.78c0-.6 1.04-.96 3.12-1.08 1.369-.105 2.565-.679 3.587-1.72.531-.54 1.015-1.207 1.453-2h-5.34c-2.6 0-4.66 1-6.18 3-1.52 1.96-2.28 4.38-2.28 7.26v4.08c-1.638 0-3.173.19-4.603.57-2.586.688-4.831 1.998-6.737 3.93-2.96 3-4.44 7.22-4.44 12.66 0 .252.004.5.013.743.045 1.186.2 2.261.464 3.228zm15.227-6.004.076-.067V21c-.699 0-1.365.06-2 .182a8.859 8.859 0 0 0-1.947.604c-1.259.56-2.364 1.418-3.313 2.574-1.84 2.2-2.76 4.72-2.76 7.56 0 1.96.32 3.4.96 4.32.64.92 1.52 1.38 2.64 1.38.96 0 1.98-.28 3.06-.84 1.094-.586 2.189-1.364 3.284-2.333zm-1.924-11.22c-1.48.364-2.696 1.162-3.715 2.402l-.006.007-.005.007c-1.543 1.844-2.294 3.911-2.294 6.277 0 1.822.312 2.762.601 3.178.267.383.534.522.999.522.562 0 1.263-.163 2.127-.61a14.56 14.56 0 0 0 2.293-1.551V23.227zm9.64 16.451c.415-.233.917-.517 1.507-.854l1.513-.865V26.534c-.311.179-.663.394-1.058.648l-1.962-2.165v14.661zm4.763-15.642a.669.669 0 0 0-.463-.156c-.6 0-1.74.54-3.42 1.62 1.14-1.44 2.201-2.643 3.183-3.61.328-.323.647-.62.957-.89 1.28-1.12 2.28-1.68 3-1.68 1.12 0 1.82.62 2.1 1.86.261.98.416 2.411.464 4.296.011.425.016.873.016 1.344v2.22a64.27 64.27 0 0 1 1.283-1.93l.008-.012.193-.278a57.61 57.61 0 0 1 3.436-4.44c1.76-2.04 3.6-3.06 5.52-3.06 1.48 0 2.46.5 2.94 1.5s.72 2.5.72 4.5v.051a26.884 26.884 0 0 1-.06 1.75v1.739a77.929 77.929 0 0 1 1.251-1.74l.049-.067a86.653 86.653 0 0 1 3.62-4.553c1.84-2.12 3.68-3.18 5.52-3.18 1.28 0 2.18.34 2.7 1.02.56.68.84 1.84.84 3.48V41.1c0 .67.146 1.107.439 1.31.127.086.28.13.461.13.68 0 1.72-.64 3.12-1.92a7.886 7.886 0 0 1-2.34 3.36c-.247.21-.503.398-.768.56a5.525 5.525 0 0 1-2.952.82c-2.32 0-3.48-1.5-3.48-4.5V27.84c0-1.04-.16-1.8-.48-2.28-.32-.48-.84-.72-1.56-.72-.356 0-.77.16-1.24.477-.744.503-1.631 1.404-2.66 2.703a91.887 91.887 0 0 0-.658.84c-.238.308-.453.59-.645.85-.811 1.09-1.217 1.748-1.217 1.97v10.2c-.2.84-.88 1.64-2.04 2.4a6.898 6.898 0 0 1-1.6.766c-.643.21-1.31.314-2 .314V27.84c0-.92-.1-1.64-.3-2.16-.2-.56-.76-.84-1.68-.84-.4 0-.852.17-1.355.51-.754.51-1.622 1.4-2.605 2.67-.161.205-.315.4-.46.589-.115.149-.226.292-.331.431-.197.26-.377.5-.539.723-.753 1.034-1.13 1.673-1.13 1.917v10.2c-.2.84-.9 1.64-2.1 2.4a7.743 7.743 0 0 1-1.48.723 5.92 5.92 0 0 1-2 .357V24.84c0-.382-.086-.65-.257-.805zm53.917 15.14c.635-.62 1.302-1.278 2-1.976v3.24c0 1.48.5 2.66 1.5 3.54 1.04.88 1.88 1.32 2.52 1.32.906 0 1.838-.34 2.797-1.021.226-.16.454-.34.683-.539.265-.222.513-.445.745-.67l.029-.027c.839-.816 1.462-1.643 1.866-2.483-1.12.64-1.94 1.1-2.46 1.38-.48.24-.9.36-1.26.36a1.162 1.162 0 0 1-.273-.034c-.307-.086-.476-.335-.507-.746v-22.2h-5.22c-.141 0-.281.001-.42.004-1.791.033-3.453.28-4.988.74a14.757 14.757 0 0 0-6.292 3.756c-3 3-4.5 7.22-4.5 12.66 0 2.68.52 4.82 1.56 6.42 1.08 1.6 2.3 2.4 3.66 2.4 1.24 0 2.7-.74 4.38-2.22a116.701 116.701 0 0 0 4.18-3.904zm-5.26-14.816c-1.84 2.2-2.76 4.72-2.76 7.56 0 1.96.32 3.4.96 4.32.64.92 1.52 1.38 2.64 1.38.96 0 1.98-.28 3.06-.84 1.095-.586 2.189-1.364 3.284-2.333l.076-.067V21c-.698 0-1.365.06-2 .182a8.792 8.792 0 0 0-2.264.753c-1.128.559-2.127 1.367-2.996 2.425zm5.26-1.132c-1.479.363-2.696 1.161-3.715 2.401l-.005.007-.006.007c-1.542 1.844-2.294 3.911-2.294 6.277 0 1.822.312 2.762.602 3.178.266.383.533.522.998.522.563 0 1.263-.163 2.127-.61.745-.4 1.509-.913 2.293-1.551V23.227zm9.64 16.45V25.253l2.235 2.423c.238-.149.65-.375 1.274-.687l.024-.012.023-.012c.058-.031.117-.06.179-.085v10.67l-2.227 1.274c-.591.337-1.093.621-1.508.854zm5.735 17.622a6.404 6.404 0 0 1-.843 3.167 8.646 8.646 0 0 1-1.197 1.633c-1.36 1.48-2.12 2.46-2.28 2.94a207.863 207.863 0 0 1 3.224-2.072 50.08 50.08 0 0 1 1.704-1.032c.25-.143.447-.248.592-.316.72-.32 1.66-.48 2.82-.48.516 0 .991.042 1.424.125.238.046.463.104.676.175.129.04.283.096.462.167.711.282 1.817.806 3.318 1.573-.2-.4-.98-1.26-2.34-2.58a8.574 8.574 0 0 1-.969-1.109c-.714-.988-1.071-2.019-1.071-3.09V43.32c.48.4 1.04.84 1.68 1.32.108.07.215.134.32.193.549.31 1.043.466 1.48.466 2 0 4.58-1.34 7.74-4.02 3.2-2.68 4.8-6 4.8-9.96 0-3.88-.9-6.9-2.7-9.06-1.8-2.2-3.38-3.3-4.74-3.3-1.96 0-3.72.78-5.28 2.34l-1.328 1.614c-.665.81-1.322 1.611-1.972 2.406 0-1.231-.018-2.262-.052-3.092-.049-1.165-.132-1.934-.248-2.308-.16-.64-.6-.96-1.32-.96-1.52 0-3.02.78-4.5 2.34-.465.49-.914.98-1.347 1.469a51.394 51.394 0 0 0-1.501 1.776l-.013.016c-.381.473-.748.946-1.099 1.42.32-.2.8-.46 1.44-.78a4.141 4.141 0 0 1 2.123-.477c.292.02.524.098.697.236.2.16.3.44.3.84v31.5zM79.529 22.56c-1.84-2.36-4.4-3.54-7.68-3.54-3.44 0-6.48 1.4-9.12 4.2-2.64 2.8-3.96 6-3.96 9.6 0 3.6.94 6.6 2.82 9 1.88 2.36 4.4 3.54 7.56 3.54 3.36 0 6.4-1.42 9.12-4.26 2.72-2.84 4.08-6.1 4.08-9.78 0-3.48-.94-6.4-2.82-8.76zm-6.055 4.108-.004-.01c-.44-1.109-.973-1.786-1.52-2.19-.53-.391-1.208-.628-2.141-.628-1.134 0-1.936.406-2.594 1.293-.728.98-1.166 2.312-1.166 4.147 0 3.104.397 5.92 1.17 8.465.337 1.052.82 1.683 1.364 2.07.553.393 1.353.665 2.546.665 1.057 0 1.877-.396 2.6-1.36.763-1.017 1.22-2.405 1.22-4.32 0-3.015-.502-5.717-1.475-8.132zm149.837 11.44.008-.013c.92-1.67 1.372-3.419 1.372-5.275 0-2.875-.406-4.55-.911-5.383l-.011-.02-.012-.019c-.514-.894-.92-.978-1.206-.978-.686 0-1.58.314-2.71 1.376l-.001.002c-.614.577-1.006 1.017-1.229 1.328a2.296 2.296 0 0 0-.12.182v8.372c0 .525.175 1.06.678 1.651.446.454.952.67 1.642.67.875 0 1.704-.391 2.493-1.878l.007-.014zm-5.62 2.572c-.8-.92-1.2-1.92-1.2-3V29.1c0-.6.66-1.52 1.98-2.76 1.36-1.28 2.72-1.92 4.08-1.92 1.2 0 2.18.66 2.94 1.98.8 1.32 1.2 3.46 1.2 6.42 0 2.2-.54 4.28-1.62 6.24-1.04 1.96-2.46 2.94-4.26 2.94-1.24 0-2.28-.44-3.12-1.32zM65.309 38.34c-.84-2.76-1.26-5.78-1.26-9.06 0-2.16.52-3.94 1.56-5.34s2.44-2.1 4.2-2.1c2.6 0 4.44 1.36 5.52 4.08 1.08 2.68 1.62 5.64 1.62 8.88 0 2.24-.54 4.08-1.62 5.52-1.08 1.44-2.48 2.16-4.2 2.16-3 0-4.94-1.38-5.82-4.14z" fill="#764E01"/>
    <defs>
        <linearGradient id="ykseqlyfea" x1="127" y1="9.5" x2="128.333" y2="54.005" gradientUnits="userSpaceOnUse">
            <stop stop-color="#FFD600"/>
            <stop offset="1" stop-color="#B9750E"/>
        </linearGradient>
        <linearGradient id="14qnaqbieb" x1="127" y1="9.5" x2="128.333" y2="54.005" gradientUnits="userSpaceOnUse">
            <stop stop-color="#FFD600"/>
            <stop offset="1" stop-color="#B9750E"/>
        </linearGradient>
        <linearGradient id="kv43lurrcc" x1="127" y1="9.5" x2="128.333" y2="54.005" gradientUnits="userSpaceOnUse">
            <stop stop-color="#FFD600"/>
            <stop offset="1" stop-color="#B9750E"/>
        </linearGradient>
        <linearGradient id="a1geiriwxd" x1="127" y1="9.5" x2="128.333" y2="54.005" gradientUnits="userSpaceOnUse">
            <stop stop-color="#FFD600"/>
            <stop offset="1" stop-color="#B9750E"/>
        </linearGradient>
        <linearGradient id="840ambfwze" x1="127" y1="9.5" x2="128.333" y2="54.005" gradientUnits="userSpaceOnUse">
            <stop stop-color="#FFD600"/>
            <stop offset="1" stop-color="#B9750E"/>
        </linearGradient>
        <linearGradient id="kuu3p9lrwf" x1="127" y1="9.5" x2="128.333" y2="54.005" gradientUnits="userSpaceOnUse">
            <stop stop-color="#FFD600"/>
            <stop offset="1" stop-color="#B9750E"/>
        </linearGradient>
        <linearGradient id="5ur9dfqa9g" x1="127" y1="9.5" x2="128.333" y2="54.005" gradientUnits="userSpaceOnUse">
            <stop stop-color="#FFD600"/>
            <stop offset="1" stop-color="#B9750E"/>
        </linearGradient>
    </defs>
</svg>
